<?xml version="1.0" encoding="UTF-8" standalone="no"?>
<svg
   transform="scale(1)"
   version="1.1"
   id="Layer_1"
   x="0px"
   y="0px"
   viewBox="0 0 500 500"
   xml:space="preserve"
   class="show_show__wrapper__graphic__5Waiy "
   sodipodi:docname="Chart.svg"
   inkscape:version="1.3.2 (091e20e, 2023-11-25)"
   xmlns:inkscape="http://www.inkscape.org/namespaces/inkscape"
   xmlns:sodipodi="http://sodipodi.sourceforge.net/DTD/sodipodi-0.dtd"
   xmlns="http://www.w3.org/2000/svg"
   xmlns:svg="http://www.w3.org/2000/svg"><defs
     id="defs57" /><sodipodi:namedview
     id="namedview57"
     pagecolor="#505050"
     bordercolor="#eeeeee"
     borderopacity="1"
     inkscape:showpageshadow="0"
     inkscape:pageopacity="0"
     inkscape:pagecheckerboard="0"
     inkscape:deskcolor="#505050"
     inkscape:zoom="0.472"
     inkscape:cx="651.48305"
     inkscape:cy="105.9322"
     inkscape:window-width="1440"
     inkscape:window-height="847"
     inkscape:window-x="0"
     inkscape:window-y="25"
     inkscape:window-maximized="0"
     inkscape:current-layer="Layer_1" /><title
     id="title1">React</title><style
     type="text/css"
     id="style1">
	.st0{fill:#000111;}
	.st1{fill:#FFFFFF;}
	.st2{fill:url(#SVGID_1_);}
	.st3{fill:url(#SVGID_00000127757511055873081760000007670127890912832426_);}
	.st4{fill:#FED490;}
	.st5{fill:url(#SVGID_00000106134790503949750070000014222017837786066320_);}
	.st6{fill:url(#SVGID_00000063592809612454379910000012574062107080940462_);}
	.st7{fill:#C64234;}
	.st8{fill:url(#SVGID_00000020387597350302077300000004873301338504077748_);}
	.st9{fill:url(#SVGID_00000079453214575902894130000010869840260774208403_);}
	.st10{fill:url(#SVGID_00000105401623486483433680000007907856585157209511_);}
	.st11{fill:url(#SVGID_00000036213027724512222630000003311585670059640243_);}
</style><g
     id="board"><rect
       class="st0"
       x="149"
       y="372.6"
       width="225.2"
       height="9.4"
       id="rect1" /><path
       class="st0"
       d="M374.2,383.3H149c-0.7,0-1.3-0.6-1.3-1.3c0,0,0,0,0,0v-9.4c0-0.7,0.6-1.3,1.3-1.3h225.2c0.7,0,1.3,0.6,1.3,1.3   c0,0,0,0,0,0v9.4C375.5,382.7,375,383.3,374.2,383.3C374.2,383.3,374.2,383.3,374.2,383.3z M150.2,380.7h222.7v-6.9H150.3   L150.2,380.7z"
       id="path1" /><polygon
       class="st1"
       points="139.2,490 133.9,490 149.1,324.3 164.8,324.3  "
       id="polygon1"
       style="fill:#ffffff" /><path
       class="st0"
       d="M139.2,491.3h-5.4c-0.4,0-0.7-0.2-0.9-0.4c-0.2-0.3-0.4-0.6-0.3-1l15.2-165.7c0.1-0.7,0.6-1.2,1.3-1.2h15.7   c0.7,0,1.3,0.6,1.3,1.3c0,0.1,0,0.1,0,0.2l-25.5,165.7C140.4,490.8,139.9,491.3,139.2,491.3z M135.2,488.7h2.9l25.1-163.2h-13   L135.2,488.7z"
       id="path2" /><polygon
       class="st1"
       points="385.9,490 391.3,490 376.1,324.3 360.4,324.3  "
       id="polygon2" /><path
       class="st0"
       d="M391.3,491.3h-5.4c-0.6,0-1.2-0.5-1.3-1.1l-25.5-165.7c-0.1-0.7,0.4-1.4,1.1-1.4c0,0,0.1,0,0.1,0h15.7   c0.7,0,1.2,0.5,1.3,1.2l15.2,165.7C392.6,490.6,392.1,491.2,391.3,491.3C391.4,491.3,391.3,491.3,391.3,491.3L391.3,491.3z    M387,488.7h2.9l-15-163.2h-13L387,488.7z"
       id="path3" /><rect
       class="st1"
       x="122.7"
       y="42.5"
       width="279.7"
       height="12"
       id="rect3"
       style="fill:#ffffff" /><path
       class="st0"
       d="M402.4,55.8H122.7c-0.7,0-1.3-0.6-1.3-1.3c0,0,0,0,0,0v-12c0-0.7,0.6-1.3,1.3-1.3h279.7c0.7,0,1.3,0.6,1.3,1.3   v12C403.7,55.2,403.1,55.8,402.4,55.8C402.4,55.8,402.4,55.8,402.4,55.8z M124,53.2h277.1v-9.4H124V53.2z"
       id="path4" /><rect
       class="st1"
       x="122.7"
       y="325.2"
       width="279.7"
       height="12"
       id="rect4" /><path
       class="st0"
       d="M402.4,338.4H122.7c-0.7,0-1.3-0.6-1.3-1.3c0,0,0,0,0,0v-12c0-0.7,0.6-1.3,1.3-1.3h279.7   c0.7,0,1.3,0.6,1.3,1.3v12C403.7,337.9,403.1,338.4,402.4,338.4C402.4,338.4,402.4,338.4,402.4,338.4z M124,335.9h277.1v-9.4H124   V335.9z"
       id="path5" /><rect
       class="st1"
       x="111.4"
       y="61.1"
       width="302.4"
       height="255.4"
       id="rect5"
       style="fill:#ffffff" /><path
       class="st0"
       d="M413.7,317.8H111.4c-0.7,0-1.3-0.6-1.3-1.3c0,0,0,0,0,0V61.1c0-0.7,0.6-1.3,1.3-1.3c0,0,0,0,0,0h302.3   c0.7,0,1.3,0.6,1.3,1.3v255.4C415,317.2,414.4,317.8,413.7,317.8z M112.7,315.2h299.8V62.4H112.7L112.7,315.2z"
       id="path6" /><linearGradient
       id="SVGID_1_"
       gradientUnits="userSpaceOnUse"
       x1="188.3784"
       y1="566.8149"
       x2="385.6684"
       y2="232.0049"
       gradientTransform="matrix(1 0 0 -1 0 502)"><stop
         offset="0"
         style="stop-color: rgb(243, 131, 116);"
         id="stop6" /><stop
         offset="1"
         style="stop-color: rgb(198, 66, 52);"
         id="stop7" /></linearGradient><path
       class="st2"
       d="M111.4,52.5h302.3c4.3,0,7.9,3.5,7.9,7.8v1.4c0,4.3-3.5,7.8-7.9,7.8H111.4c-4.3,0-7.8-3.5-7.8-7.8v-1.4   C103.6,56.1,107.1,52.5,111.4,52.5z"
       id="path7"
       style="fill:#800000" /><linearGradient
       id="SVGID_00000055684571677282829150000009362151438406798209_"
       gradientUnits="userSpaceOnUse"
       x1="98.0729"
       y1="461.0617"
       x2="295.3528"
       y2="126.2517"
       gradientTransform="matrix(1 0 0 -1 0 502)"><stop
         offset="0"
         style="stop-color: rgb(243, 131, 116);"
         id="stop8" /><stop
         offset="1"
         style="stop-color: rgb(198, 66, 52);"
         id="stop9" /></linearGradient><path
       d="M111.4,311.6h302.3c4.3,0,7.9,3.5,7.9,7.9   v1.4c0,4.3-3.5,7.9-7.9,7.9H111.4c-4.3,0-7.8-3.5-7.8-7.9v-1.4C103.6,315.1,107.1,311.6,111.4,311.6z"
       style="fill:#800000"
       id="path9" /></g><g
     id="light"
     style="fill:#ffccaa"><path
       class="st4"
       d="M415.2,40.7c10.1,0.7,18.2,8.6,19.2,18.7c1-10.1,9.1-18,19.2-18.7c-10.1-0.7-18.2-8.7-19.2-18.7   C433.5,32.1,425.3,40,415.2,40.7L415.2,40.7z"
       id="path10"
       style="fill:#ffccaa" /><path
       class="st4"
       d="M447.2,20c5.4,0.4,9.7,4.6,10.3,10c0.6-5.4,4.9-9.6,10.3-10c-5.4-0.4-9.7-4.6-10.3-10   C456.9,15.4,452.6,19.6,447.2,20z"
       id="path11"
       style="fill:#ffccaa" /><path
       class="st4"
       d="M18.7,224.6c5.4,0.4,9.7,4.6,10.3,10c0.6-5.4,4.9-9.6,10.3-10c-5.4-0.4-9.7-4.6-10.3-10   C28.5,220,24.1,224.2,18.7,224.6z"
       id="path12"
       style="fill:#ffccaa" /></g><g
     id="chart_1"><path
       class="st0"
       d="M380.1,295H138.3c-0.7,0-1.3-0.6-1.3-1.3c0,0,0,0,0,0V105.2c-0.1-0.7,0.5-1.3,1.2-1.4c0.7-0.1,1.3,0.5,1.4,1.2   c0,0.1,0,0.2,0,0.2v187.2h240.6c0.7,0,1.3,0.6,1.3,1.3C381.4,294.4,380.8,295,380.1,295C380.1,295,380.1,295,380.1,295L380.1,295z"
       id="path13" /><linearGradient
       id="SVGID_00000057855584698585323200000011907438926763679117_"
       gradientUnits="userSpaceOnUse"
       x1="130.36"
       y1="399.71"
       x2="146.1"
       y2="399.71"
       gradientTransform="matrix(1 0 0 -1 0 502)"><stop
         offset="0"
         style="stop-color: rgb(243, 131, 116);"
         id="stop13" /><stop
         offset="1"
         style="stop-color: rgb(198, 66, 52);"
         id="stop14" /></linearGradient><circle
       cx="138.2"
       cy="102.3"
       r="7.9"
       style="fill:#be2727"
       id="circle14" /><linearGradient
       id="SVGID_00000147200588696131150020000002987503415182326964_"
       gradientUnits="userSpaceOnUse"
       x1="372.26"
       y1="208.3"
       x2="388"
       y2="208.3"
       gradientTransform="matrix(1 0 0 -1 0 502)"><stop
         offset="0"
         style="stop-color: rgb(243, 131, 116);"
         id="stop15" /><stop
         offset="1"
         style="stop-color: rgb(198, 66, 52);"
         id="stop16" /></linearGradient><circle
       cx="380.1"
       cy="293.7"
       r="7.9"
       style="fill:#be2727"
       id="circle16" /><path
       class="st4"
       d="M376.4,267.3H147.6c-0.7,0-1.3-0.6-1.3-1.3c0-0.7,0.6-1.3,1.3-1.3h228.8c0.7,0,1.3,0.6,1.3,1.3   C377.7,266.7,377.1,267.3,376.4,267.3z"
       id="path16" /><path
       class="st4"
       d="M376.4,239.6H147.6c-0.7,0.1-1.3-0.5-1.4-1.2c-0.1-0.7,0.5-1.3,1.2-1.4c0.1,0,0.2,0,0.2,0h228.8   c0.7,0.1,1.2,0.7,1.2,1.4C377.5,239.1,377,239.6,376.4,239.6z"
       id="path17" /><path
       class="st4"
       d="M376.4,212H147.6c-0.7,0.1-1.3-0.5-1.4-1.2c-0.1-0.7,0.5-1.3,1.2-1.4c0.1,0,0.2,0,0.2,0h228.8   c0.7,0.1,1.2,0.7,1.2,1.4C377.5,211.5,377,211.9,376.4,212z"
       id="path18" /><path
       class="st4"
       d="M376.4,184.3H147.6c-0.7,0-1.3-0.6-1.3-1.3c0-0.7,0.6-1.3,1.3-1.3c0,0,0,0,0,0h228.8c0.7,0,1.3,0.6,1.3,1.3   C377.7,183.8,377.1,184.3,376.4,184.3z"
       id="path19" /><path
       class="st4"
       d="M376.4,156.7H147.6c-0.7,0-1.3-0.6-1.3-1.3c0-0.7,0.6-1.3,1.3-1.3h228.8c0.7,0,1.3,0.6,1.3,1.3   C377.7,156.1,377.1,156.7,376.4,156.7z"
       id="path20" /><path
       class="st4"
       d="M376.4,129H147.6c-0.7,0-1.3-0.6-1.3-1.3c0-0.7,0.6-1.3,1.3-1.3c0,0,0,0,0,0h228.8c0.7,0,1.3,0.6,1.3,1.3   C377.7,128.4,377.1,129,376.4,129z"
       id="path21" /><path
       class="st4"
       d="M182.2,276.9c-0.7,0-1.3-0.6-1.3-1.3V112.4c0-0.7,0.6-1.3,1.3-1.3c0.7,0,1.3,0.6,1.3,1.3v163.1   C183.4,276.3,182.9,276.9,182.2,276.9z"
       id="path22" /><path
       class="st4"
       d="M215,276.9c-0.7,0-1.3-0.6-1.3-1.3V112.4c0-0.7,0.6-1.3,1.3-1.3s1.3,0.6,1.3,1.3c0,0,0,0,0,0v163.1   C216.3,276.3,215.7,276.9,215,276.9z"
       id="path23" /><path
       class="st4"
       d="M247.7,276.9c-0.7,0-1.3-0.6-1.3-1.3c0,0,0,0,0,0V112.4c-0.1-0.7,0.5-1.3,1.2-1.4c0.7-0.1,1.3,0.5,1.4,1.2   c0,0.1,0,0.2,0,0.2v163.1C249,276.3,248.4,276.9,247.7,276.9z"
       id="path24" /><path
       class="st4"
       d="M280.5,276.9c-0.7,0-1.3-0.6-1.3-1.3V112.4c0-0.7,0.6-1.3,1.3-1.3c0.7,0,1.3,0.6,1.3,1.3v163.1   C281.8,276.3,281.2,276.9,280.5,276.9z"
       id="path25" /><path
       class="st4"
       d="M313.3,276.9c-0.7,0-1.3-0.6-1.3-1.3V112.4c0-0.7,0.6-1.3,1.3-1.3c0.7,0,1.3,0.6,1.3,1.3c0,0,0,0,0,0v163.1   C314.6,276.3,314,276.9,313.3,276.9z"
       id="path26" /><path
       class="st4"
       d="M346.1,276.9c-0.7,0-1.3-0.6-1.3-1.3V112.4c-0.1-0.7,0.5-1.3,1.2-1.4c0.7-0.1,1.3,0.5,1.4,1.2   c0,0.1,0,0.2,0,0.2v163.1C347.4,276.3,346.8,276.9,346.1,276.9C346.1,276.9,346.1,276.9,346.1,276.9z"
       id="path27" /><path
       class="st0"
       d="M148.9,278c-0.3,0-0.7-0.1-0.9-0.4c-0.5-0.5-0.5-1.3,0-1.8l49.6-50.8c0.3-0.3,0.7-0.4,1.1-0.4l29.3,5.6   l44.6-58.8c0.4-0.5,1.1-0.7,1.6-0.3l48.3,27.2l57.1-55.3c0.5-0.5,1.3-0.5,1.8,0s0.5,1.3,0,1.8l0,0l-57.8,56c-0.4,0.4-1,0.5-1.5,0.2   L274,173.9l-44.4,58.6c-0.3,0.4-0.8,0.6-1.3,0.5l-29.4-5.6l-49.2,50.3C149.6,277.9,149.3,278,148.9,278z"
       id="path28" /><path
       class="st0"
       d="M382.1,152.9L382.1,152.9c-0.7,0-1.3-0.6-1.3-1.3c0,0,0,0,0,0l0.1-8.3l-10.1,1.4c-0.7,0.1-1.3-0.4-1.5-1.1   c-0.1-0.7,0.4-1.3,1.1-1.4c0,0,0,0,0,0l11.6-1.6c0.4-0.1,0.7,0.1,1,0.3c0.3,0.3,0.4,0.6,0.4,1l-0.2,9.8   C383.4,152.3,382.8,152.9,382.1,152.9z"
       id="path29" /><path
       class="st7"
       d="M330.9,253.2c-0.3,0-0.5-0.1-0.8-0.2l-30.6-22.5l-65.3-37.8l-43.9,12.5c-0.2,0-0.3,0-0.5,0l-38.7-4   c-0.7-0.1-1.2-0.7-1.1-1.4c0.1-0.7,0.7-1.2,1.4-1.1l38.4,4l44.2-12.6c0.3-0.1,0.7-0.1,1,0.1l65.9,38.1l0.1,0.1l30,22.1l43.2-21   c0.6-0.3,1.4,0,1.7,0.6c0.3,0.6,0.1,1.4-0.6,1.7c0,0,0,0,0,0L331.4,253C331.3,253.1,331.1,253.2,330.9,253.2z"
       id="path30" /><path
       class="st7"
       d="M374.4,239.1c-0.1,0-0.3,0-0.4-0.1c-0.7-0.2-1-0.9-0.8-1.6c0,0,0,0,0,0l2.6-7.5l-8.2-1   c-0.7-0.1-1.2-0.7-1.1-1.4c0,0,0,0,0,0c0.1-0.7,0.7-1.2,1.4-1.1l9.8,1.2c0.4,0,0.7,0.3,0.9,0.6c0.2,0.3,0.3,0.7,0.1,1.1l-3.1,9   C375.5,238.7,375,239.1,374.4,239.1z"
       id="path31" /><circle
       class="st0"
       cx="272.3"
       cy="173.2"
       r="5.8"
       id="circle31"
       style="fill:#be2727" /><circle
       class="st0"
       cx="323.1"
       cy="198.8"
       r="5.8"
       id="circle32"
       style="fill:#be2727" /><circle
       class="st7"
       cx="331.8"
       cy="253.9"
       r="5.8"
       id="circle33"
       style="fill:#be2727" /><circle
       class="st7"
       cx="295.9"
       cy="225.7"
       r="5.8"
       id="circle34"
       style="fill:#be2727" /><circle
       class="st7"
       cx="236.4"
       cy="193.8"
       r="5.8"
       id="circle35"
       style="fill:#be2727" /><circle
       class="st7"
       cx="187.9"
       cy="203.9"
       r="5.8"
       id="circle36"
       style="fill:#be2727" /><circle
       class="st0"
       cx="148.9"
       cy="276.7"
       r="5.8"
       id="circle37"
       style="fill:#be2727" /><circle
       class="st0"
       cx="198.2"
       cy="226.3"
       r="5.8"
       id="circle38"
       style="fill:#be2727" /></g><g
     id="chart_2"><linearGradient
       id="SVGID_00000068678603752022832010000013017284755162078126_"
       gradientUnits="userSpaceOnUse"
       x1="120.3238"
       y1="415.8395"
       x2="102.7638"
       y2="271.0095"
       gradientTransform="matrix(1 0 0 -1 0 502)"><stop
         offset="0"
         style="stop-color: rgb(243, 131, 116);"
         id="stop38" /><stop
         offset="1"
         style="stop-color: rgb(198, 66, 52);"
         id="stop39" /></linearGradient><path
       d="M112.5,207.3l-16.6-16.6   c7.3-9.2,7.3-22.3,0-31.5l16.6-16.6C128.9,161.1,128.9,188.8,112.5,207.3z"
       style="fill:#be2727"
       id="path39" /><path
       class="st1"
       d="M108.2,138.3l-16.6,16.6c-9.2-7.3-22.3-7.3-31.5,0l-16.6-16.6C62,122,89.8,122,108.2,138.3z"
       id="path40" /><path
       class="st0"
       d="M91.6,156.2c-0.3,0-0.6-0.1-0.8-0.3c-8.8-6.9-21.2-6.9-29.9,0c-0.5,0.4-1.2,0.4-1.7-0.1l-16.6-16.6   c-0.3-0.2-0.4-0.6-0.4-0.9c0-0.4,0.2-0.7,0.4-0.9c19-16.8,47.5-16.8,66.4,0c0.5,0.5,0.6,1.3,0.1,1.8c0,0,0,0,0,0.1l-16.6,16.6   C92.3,156.1,92,156.2,91.6,156.2z M75.9,148.2c5.6,0,11.1,1.7,15.7,5.1l14.8-14.8c-17.7-14.7-43.3-14.7-61,0l14.8,14.9   C64.8,150,70.2,148.2,75.9,148.2L75.9,148.2z"
       id="path41" /><linearGradient
       id="SVGID_00000176762555130108306350000008860419143835789223_"
       gradientUnits="userSpaceOnUse"
       x1="53.9205"
       y1="423.8999"
       x2="36.3705"
       y2="279.05"
       gradientTransform="matrix(1 0 0 -1 0 502)"><stop
         offset="0"
         style="stop-color: rgb(10, 107, 91);"
         id="stop41" /><stop
         offset="0.78"
         style="stop-color: rgb(0, 81, 70);"
         id="stop42" /><stop
         offset="0.91"
         style="stop-color: rgb(0, 80, 69);"
         id="stop43" /></linearGradient><path
       d="M50.4,175c0,5.7,1.9,11.3,5.5,15.8   l-16.6,16.6c-16.4-18.5-16.4-46.3,0-64.8l16.6,16.6C52.3,163.7,50.4,169.3,50.4,175z"
       style="fill:#ff8080"
       id="path43" /><path
       class="st4"
       d="M108.2,211.6c-18.5,16.3-46.3,16.3-64.7,0L60.1,195c9.2,7.3,22.3,7.3,31.5,0L108.2,211.6z"
       id="path44" /><linearGradient
       id="SVGID_00000094581702760913671470000014610176784838938546_"
       gradientUnits="userSpaceOnUse"
       x1="94.6586"
       y1="392.8076"
       x2="63.1486"
       y2="282.5175"
       gradientTransform="matrix(1 0 0 -1 0 502)"><stop
         offset="0"
         style="stop-color: rgb(243, 131, 116);"
         id="stop44" /><stop
         offset="1"
         style="stop-color: rgb(198, 66, 52);"
         id="stop45" /></linearGradient><path
       d="M92.4,175c0,3.7-1.2,7.3-3.5,10.2   c-0.8,1-1.7,2-2.8,2.8c-6,4.7-14.4,4.7-20.4,0c-1-0.8-2-1.7-2.8-2.8c-4.7-6-4.7-14.4,0-20.4c0.8-1,1.7-2,2.8-2.8   c6-4.7,14.4-4.7,20.4,0c1,0.8,2,1.7,2.8,2.8C91.1,167.7,92.4,171.3,92.4,175z"
       style="fill:#be2727"
       id="path45" /></g><g
     id="chart_3"><linearGradient
       id="SVGID_00000043418029663055723260000000787980343266904480_"
       gradientUnits="userSpaceOnUse"
       x1="437.9228"
       y1="449.2192"
       x2="399.5927"
       y2="315.0692"
       gradientTransform="matrix(1 0 0 -1 0 502)"><stop
         offset="0"
         style="stop-color: rgb(243, 131, 116);"
         id="stop46" /><stop
         offset="1"
         style="stop-color: rgb(198, 66, 52);"
         id="stop47" /></linearGradient><rect
       x="405.1"
       y="114.7"
       width="20"
       height="36.1"
       style="fill:#800000"
       id="rect47" /><rect
       class="st1"
       x="430.9"
       y="102"
       width="20"
       height="48.8"
       id="rect48" /><path
       class="st0"
       d="M450.9,152.1h-20c-0.7,0-1.3-0.6-1.3-1.3V102c0-0.7,0.6-1.3,1.3-1.3h20c0.7,0,1.3,0.6,1.3,1.3v48.8   C452.2,151.5,451.6,152.1,450.9,152.1C450.9,152.1,450.9,152.1,450.9,152.1z M432.2,149.6h17.4v-46.2h-17.4V149.6z"
       id="path48" /><rect
       class="st4"
       x="456.8"
       y="86.5"
       width="20"
       height="64.3"
       id="rect49" /><path
       class="st0"
       d="M434.7,93.8c-0.4,0-0.7-0.2-1-0.4c-15.1-16.8-44.9-7.2-45.2-7.1c-0.7,0.2-1.4-0.1-1.6-0.8s0.1-1.4,0.8-1.6   c0,0,0.1,0,0.1,0c5.7-1.7,11.7-2.7,17.7-2.9c12.2-0.4,22.1,2.8,28.9,9.4c2.5-4.8,5.4-9.3,8.8-13.5c8.4-10.3,18.2-16.3,28.4-17.4   c0.7,0,1.3,0.5,1.3,1.2c0,0.6-0.4,1.2-1.1,1.3c-23.1,2.6-35.8,30.9-36,31.2c-0.2,0.4-0.6,0.7-1,0.8L434.7,93.8z"
       id="path49" /><path
       class="st0"
       d="M468.1,72.1c-0.2,0-0.4-0.1-0.6-0.2c-0.6-0.4-0.8-1.1-0.5-1.7c0,0,0,0,0,0l5.4-9.4l-8.5-5.3   c-0.6-0.3-0.9-1.1-0.5-1.7c0.3-0.6,1.1-0.9,1.7-0.5c0,0,0.1,0.1,0.1,0.1l9.6,5.9c0.6,0.4,0.8,1.1,0.4,1.7l-6.1,10.5   C468.9,71.8,468.5,72.1,468.1,72.1z"
       id="path50" /></g><g
     id="line"><path
       class="st0"
       d="M412.1,491.3H108c-0.7,0-1.3-0.6-1.3-1.3c0-0.7,0.6-1.3,1.3-1.3h303.2c2-4.9,12.8-28.4,31.4-24.9   c4.7,0.9,6.2,3.1,6.7,5.1c11.7-6.5,25.6-10.6,32.4-8.7c0.7,0.2,1.1,0.9,0.9,1.6c-0.2,0.7-0.9,1.1-1.6,0.9c0,0,0,0,0,0   c-6-1.7-20.1,2.4-31.7,9.1c-1.3,6.7-10.4,15.1-14.8,17.1c-1.5,0.7-2.7,0.7-3.4-0.1c-1.1-1.2-0.2-3.1,0.8-4.9   c2.8-4.8,8.4-9.6,15-13.6c0-1.5-0.6-3.2-4.7-4c-18.2-3.4-28.7,23.9-28.8,24.1C413.1,491,412.6,491.3,412.1,491.3z M445.9,473.9   c-5.1,3.4-9.4,7.2-11.8,11.3c-0.3,0.5-0.5,0.9-0.7,1.4C436.1,485.3,443.2,479.3,445.9,473.9z"
       id="path51" /></g><g
     id="vase"><path
       class="st0"
       d="M80.4,491.3H60c-0.6,0-1.1-0.4-1.2-1c-0.1-0.5-13-53.6-17.2-65.4c-4.9-13.6-1-26.2,10.6-33.6   c9.6-6.2,9.3-22.4,9.1-26.8H50.9c-0.7,0-1.3-0.6-1.3-1.3v-13.9c0-0.3,0.1-0.7,0.4-0.9c0.2-0.3,0.6-0.4,0.9-0.4l19.3,0.5l19.3-0.5   c0.3,0,0.7,0.1,0.9,0.4c0.2,0.2,0.4,0.6,0.4,0.9v13.9c0,0.7-0.6,1.3-1.3,1.3H79.2c-0.3,4.4-0.6,20.7,9.1,26.8   c11.5,7.4,15.5,19.9,10.6,33.6c-4.2,11.8-17.1,64.9-17.2,65.4C81.5,490.9,81,491.3,80.4,491.3z M61,488.7h18.4   c1.8-7.5,13-53.5,17-64.7c4.6-12.6,1.1-23.8-9.5-30.5l0,0c-12.5-8-10.2-29.5-10.2-30.4c0.1-0.6,0.6-1.1,1.3-1.1h10.2v-11.3l-18,0.4   l-18.1-0.4V362h10.2c0.7,0,1.2,0.5,1.3,1.1c0.1,0.9,2.3,22.4-10.1,30.4c-10.6,6.8-14.1,17.9-9.5,30.5C48,435.2,59.1,481.2,61,488.7   z"
       id="path52" /><path
       class="st0"
       d="M70.2,351.1c-0.6,0-1.2-0.5-1.3-1.1c0-0.2-1.1-6.5-3.6-15.4c-5.1-1.1-27.1-6.7-36-27.1   c-8.3-19.1-4.1-33.2-3.9-33.8c0.2-0.7,0.9-1.1,1.6-0.8c0,0,0.1,0,0.1,0c14.2,5.5,26,20.2,35,43.5c1.9,4.9,3.5,9.7,4.8,14.1   c2.6-5.3,5.6-18.7,1.5-31.4c-4.8-14.9-18.3-24.1-38.8-26.5c-0.7-0.1-1.2-0.7-1.2-1.4c0.1-0.7,0.7-1.2,1.4-1.2c0,0,0.1,0,0.1,0   c15.1,1.8,34.4,8.2,40.9,28.3c4.8,14.6,0.5,31-3,35.5c2.5,9.2,3.6,15.7,3.6,15.8c0.1,0.7-0.4,1.4-1.1,1.5L70.2,351.1z M27.6,275.9   c-0.8,3.9-2.3,15.8,4.1,30.6c7.8,17.8,26.4,23.7,32.9,25.3C59.1,312.9,47.8,284.8,27.6,275.9z"
       id="path53" /><path
       class="st0"
       d="M39.4,487.7c-1.7,0.1-3.3-0.3-4.9-1c-1.6-0.9-2.7-2.5-2.9-4.4c-0.6-5.1,7.6-12.1,17.2-20.2   c10.7-9.1,22.9-19.4,21.3-26.5c-0.2-1.7-1.3-3.1-2.8-3.7c-5.3-2.1-16.2,3.9-20,6.3c-0.6,0.4-1.4,0.2-1.8-0.4   c-0.4-0.6-0.2-1.4,0.4-1.8c0.6-0.4,14.7-9.6,22.3-6.6c2.3,0.9,4,3,4.4,5.5c1.9,8.6-10.3,19-22.1,29c-8.2,7-16.7,14.2-16.3,18   c0.1,1,0.6,2,1.5,2.5c4.5,2.5,16.6-2.1,20.9-4.1c0.6-0.3,1.4-0.1,1.7,0.5s0.1,1.4-0.5,1.7c0,0-0.1,0-0.1,0.1   C56.4,483.3,46.6,487.7,39.4,487.7z"
       id="path54" /><path
       class="st0"
       d="M78.1,364.5H62.3c-0.7,0-1.3-0.6-1.3-1.3c0-0.7,0.6-1.3,1.3-1.3c0,0,0,0,0,0H78c0.7,0,1.3,0.6,1.3,1.3   C79.3,363.9,78.8,364.5,78.1,364.5C78.1,364.5,78.1,364.5,78.1,364.5z"
       id="path55" /><path
       class="st0"
       d="M74.7,350.8c-0.7,0-1.3-0.6-1.3-1.2c0-11.8,1.1-23.7,3.2-35.3c0.2-1.2,0.4-2.4,0.7-3.7   c-0.1-0.1-0.2-0.3-0.3-0.5c-5.2-17.6-4.4-31.4,2.4-40.9c8.6-12,23.5-12.8,24.2-12.8l0,0c0.2-0.1,0.4-0.2,0.6-0.2   c0.7-0.1,1.3,0.5,1.4,1.2c1,12.9-0.3,31-12.1,43.8c-3.7,4.1-8.4,7.3-13.5,9.4c-2.6,12.8-3.9,25.9-4,39   C76,350.2,75.5,350.8,74.7,350.8C74.8,350.8,74.8,350.8,74.7,350.8L74.7,350.8z M103.2,260c-12.1,12.5-18.8,30.8-22.6,47.6   C87.5,304.5,105,293.4,103.2,260z M100.2,259.5c-4.8,0.9-13.2,3.6-18.6,11.2c-5.8,8.2-6.9,19.9-3.1,34.8   C82,290.1,88.5,272.2,100.2,259.5L100.2,259.5z"
       id="path56" /><path
       class="st0"
       d="M100.3,491.3H50.9c-0.7,0-1.3-0.6-1.3-1.3c0-0.7,0.6-1.3,1.3-1.3h49.4c0.7,0,1.3,0.6,1.3,1.3   C101.6,490.7,101,491.3,100.3,491.3C100.3,491.3,100.3,491.3,100.3,491.3z"
       id="path57" /></g></svg>
