<?xml version="1.0" encoding="UTF-8" standalone="no"?>
<svg
   transform="scale(1)"
   id="_0020_checklist_2"
   data-name="0020_checklist_2"
   viewBox="0 0 500 500"
   class="show_show__wrapper__graphic__5Waiy "
   version="1.1"
   sodipodi:docname="Checklist 2.svg"
   inkscape:version="1.3.2 (091e20e, 2023-11-25)"
   xmlns:inkscape="http://www.inkscape.org/namespaces/inkscape"
   xmlns:sodipodi="http://sodipodi.sourceforge.net/DTD/sodipodi-0.dtd"
   xmlns:xlink="http://www.w3.org/1999/xlink"
   xmlns="http://www.w3.org/2000/svg"
   xmlns:svg="http://www.w3.org/2000/svg">
  <sodipodi:namedview
     id="namedview40"
     pagecolor="#505050"
     bordercolor="#eeeeee"
     borderopacity="1"
     inkscape:showpageshadow="0"
     inkscape:pageopacity="0"
     inkscape:pagecheckerboard="0"
     inkscape:deskcolor="#505050"
     inkscape:zoom="0.472"
     inkscape:cx="90.042373"
     inkscape:cy="506.35593"
     inkscape:window-width="1440"
     inkscape:window-height="847"
     inkscape:window-x="0"
     inkscape:window-y="25"
     inkscape:window-maximized="0"
     inkscape:current-layer="_0020_checklist_2" />
  <title
     id="title1">React</title>
  <defs
     id="defs5">
    <style
       id="style1">.cls-1{fill:url(#linear-gradient);}.cls-2{fill:#fef1e0;}.cls-3{fill:url(#linear-gradient-2);}.cls-4{fill:#c64234;}.cls-5{fill:url(#linear-gradient-3);}.cls-6{fill:url(#linear-gradient-4);}.cls-7{fill:url(#linear-gradient-5);}.cls-8{fill:#fed490;}.cls-9{fill:#000111;}.cls-10{fill:#d88260;}.cls-11{fill:#ffc2a7;}.cls-12{fill:url(#linear-gradient-6);}.cls-13{fill:url(#linear-gradient-7);}</style>
    <linearGradient
       id="linear-gradient"
       x1="-5.48"
       y1="411.19"
       x2="69.52"
       y2="562.99"
       gradientTransform="translate(-75.41 -84.58) rotate(-14.67)"
       gradientUnits="userSpaceOnUse">
      <stop
         offset="0"
         stop-color="#f38374"
         id="stop1" />
      <stop
         offset="1"
         stop-color="#c64234"
         id="stop2" />
    </linearGradient>
    <linearGradient
       id="linear-gradient-2"
       x1="22.09"
       y1="397.56"
       x2="97.09"
       y2="549.37"
       xlink:href="#linear-gradient" />
    <linearGradient
       id="linear-gradient-3"
       x1="106.81"
       y1="287.21"
       x2="93.72"
       y2="333.83"
       gradientTransform="translate(-34.61 -95.26) rotate(-14.67)"
       xlink:href="#linear-gradient" />
    <linearGradient
       id="linear-gradient-4"
       x1="105.67"
       y1="359.44"
       x2="92.58"
       y2="406.06"
       gradientTransform="translate(-34.61 -95.26) rotate(-14.67)"
       xlink:href="#linear-gradient" />
    <linearGradient
       id="linear-gradient-5"
       x1="104.53"
       y1="431.66"
       x2="91.44"
       y2="478.28"
       gradientTransform="translate(-34.61 -95.26) rotate(-14.67)"
       xlink:href="#linear-gradient" />
    <linearGradient
       id="linear-gradient-6"
       x1="399.52"
       y1="249.9"
       x2="448.13"
       y2="416.39"
       gradientTransform="translate(-20.05 -13.46) rotate(-4.9)"
       gradientUnits="userSpaceOnUse">
      <stop
         offset="0"
         stop-color="#0a6b5b"
         id="stop3" />
      <stop
         offset="0.78"
         stop-color="#005146"
         id="stop4" />
      <stop
         offset="0.91"
         stop-color="#005045"
         id="stop5" />
    </linearGradient>
    <linearGradient
       id="linear-gradient-7"
       x1="287.4"
       y1="199.71"
       x2="284.81"
       y2="416.68"
       gradientTransform="translate(-39.8 -25.49) rotate(-9.36)"
       xlink:href="#linear-gradient" />
  </defs>
  <g
     id="paper">
    <polygon
       class="cls-1"
       points="59.39 317.91 31.52 325.21 45.36 378.09 82.06 368.49 59.39 317.91"
       id="polygon5"
       style="fill:#be2727" />
    <path
       class="cls-2"
       d="M82.8,404.31,26.31,419.09,11,360.37a28.8,28.8,0,0,1,20.57-35.16h0a28.8,28.8,0,0,1,35.16,20.57l13.53,51.7A33.69,33.69,0,0,0,82.8,404.31Z"
       id="path5"
       style="fill:#ffe6d5;fill-opacity:1" />
    <path
       class="cls-3"
       d="M119.46,422.83h0A34.58,34.58,0,0,1,82.8,404.31a33.69,33.69,0,0,1-2.59-6.83L59.39,317.91,115,303.37,134.75,379C144.25,410.26,126.12,420.28,119.46,422.83Z"
       id="path6"
       style="fill:#be2727" />
    <path
       class="cls-2"
       d="M256.59,76.46l66,252a40,40,0,0,1-28.6,48.86L117.3,423.54a18.21,18.21,0,0,0,2.13-.7h0c6.66-2.55,24.79-12.57,15.29-43.81L68.45,125.7Z"
       id="path7"
       style="fill:#ffe6d5" />
    <path
       class="cls-4"
       d="M132.33,204.41a22.63,22.63,0,0,1-13.07-4c-5.69-4-9.22-10.34-9.94-17.9-1.45-15.33,9.32-30.92,24-34.77a23.49,23.49,0,0,1,19.74,3.17c5.69,4,9.22,10.34,9.94,17.9h0c1.46,15.32-9.32,30.91-24,34.76A26.31,26.31,0,0,1,132.33,204.41ZM140,149a24.18,24.18,0,0,0-6.12.81c-13.73,3.59-23.79,18.16-22.43,32.48.65,6.93,3.86,12.74,9,16.35a21.41,21.41,0,0,0,18,2.85c13.73-3.59,23.8-18.17,22.43-32.49h0c-.65-6.93-3.86-12.73-9-16.34A20.45,20.45,0,0,0,140,149Z"
       id="path8" />
    <path
       class="cls-5"
       d="M137,190.76l-.37.08a3.73,3.73,0,0,1-3.26-1.09l-14.44-14.86a3.74,3.74,0,1,1,5.37-5.22l10.77,11.08,22.85-45.67a3.75,3.75,0,1,1,6.7,3.35l-25.21,50.38A3.77,3.77,0,0,1,137,190.76Z"
       id="path9"
       style="fill:#be2727" />
    <path
       class="cls-4"
       d="M149.51,274.57a22.62,22.62,0,0,1-13.06-4c-5.69-4-9.22-10.34-9.94-17.9-1.46-15.33,9.32-30.92,24-34.77A23.47,23.47,0,0,1,170.26,221c5.69,4,9.23,10.34,9.94,17.9h0c1.46,15.32-9.32,30.91-24,34.76A26.31,26.31,0,0,1,149.51,274.57Zm7.68-55.44a24.24,24.24,0,0,0-6.12.81c-13.73,3.59-23.79,18.16-22.43,32.48.66,6.93,3.87,12.74,9,16.35a21.4,21.4,0,0,0,18,2.85c13.73-3.59,23.79-18.17,22.43-32.49-.66-6.93-3.87-12.73-9-16.34A20.45,20.45,0,0,0,157.19,219.13Z"
       id="path10" />
    <path
       class="cls-6"
       d="M154.2,260.92l-.38.08a3.74,3.74,0,0,1-3.26-1.09l-14.44-14.86a3.74,3.74,0,1,1,5.37-5.22l10.77,11.08,22.85-45.67a3.75,3.75,0,1,1,6.7,3.35L156.6,259A3.76,3.76,0,0,1,154.2,260.92Z"
       id="path11"
       style="fill:#be2727" />
    <path
       class="cls-4"
       d="M166.7,344.73a22.63,22.63,0,0,1-13.07-4c-5.69-4-9.22-10.34-9.94-17.9-1.45-15.33,9.32-30.92,24-34.77a23.49,23.49,0,0,1,19.74,3.17c5.69,4,9.22,10.34,9.94,17.9h0c1.45,15.32-9.32,30.92-24,34.76A26.31,26.31,0,0,1,166.7,344.73Zm7.68-55.44a24.18,24.18,0,0,0-6.12.81c-13.73,3.59-23.79,18.16-22.43,32.48.65,6.93,3.86,12.74,9,16.35a21.41,21.41,0,0,0,18,2.85c13.73-3.59,23.79-18.17,22.43-32.49h0c-.65-6.93-3.86-12.73-9-16.34A20.45,20.45,0,0,0,174.38,289.29Z"
       id="path12" />
    <path
       class="cls-7"
       d="M171.38,331.08l-.37.08a3.73,3.73,0,0,1-3.26-1.09l-14.44-14.86a3.74,3.74,0,1,1,5.37-5.22l10.77,11.08L192.3,275.4a3.75,3.75,0,1,1,6.7,3.35l-25.21,50.39A3.78,3.78,0,0,1,171.38,331.08Z"
       id="path13"
       style="fill:#be2727" />
    <rect
       class="cls-8"
       x="165.27"
       y="138.22"
       width="94.3"
       height="8.54"
       transform="matrix(0.97, -0.25, 0.25, 0.97, -29.15, 58.42)"
       id="rect13" />
    <rect
       class="cls-8"
       x="168.7"
       y="151.32"
       width="94.3"
       height="8.54"
       transform="translate(-32.36 59.71) rotate(-14.67)"
       id="rect14" />
    <rect
       class="cls-8"
       x="172.12"
       y="164.41"
       width="94.3"
       height="8.54"
       transform="translate(-35.56 61.01) rotate(-14.67)"
       id="rect15" />
    <rect
       class="cls-8"
       x="184.05"
       y="210.01"
       width="94.3"
       height="8.54"
       transform="translate(-46.72 65.52) rotate(-14.67)"
       id="rect16" />
    <rect
       class="cls-8"
       x="187.48"
       y="223.1"
       width="94.3"
       height="8.54"
       transform="translate(-49.92 66.81) rotate(-14.67)"
       id="rect17" />
    <rect
       class="cls-8"
       x="190.91"
       y="236.2"
       width="94.3"
       height="8.54"
       transform="translate(-53.12 68.1) rotate(-14.67)"
       id="rect18" />
    <rect
       class="cls-8"
       x="201.89"
       y="278.15"
       width="94.3"
       height="8.54"
       transform="translate(-63.39 72.25) rotate(-14.67)"
       id="rect19" />
    <rect
       class="cls-8"
       x="205.31"
       y="291.24"
       width="94.3"
       height="8.54"
       transform="matrix(0.97, -0.25, 0.25, 0.97, -66.59, 73.54)"
       id="rect20" />
    <rect
       class="cls-8"
       x="208.74"
       y="304.34"
       width="94.3"
       height="8.54"
       transform="matrix(0.97, -0.25, 0.25, 0.97, -69.79, 74.84)"
       id="rect21" />
  </g>
  <g
     id="hand">
    <path
       class="cls-9"
       d="M374.61,306.49s2.25-75.79,56.9-90.13C431.51,216.36,436.13,278.48,374.61,306.49Z"
       id="path23" />
    <path
       class="cls-10"
       d="M295.18,196s-8.41,23,.91,32.09,29.43-21.2,29.43-21.2Z"
       id="path24" />
    <path
       class="cls-11"
       d="M437.06,272.19c-9.62,13.42-27.34,33.28-46.27,21.61-15.63-9.64-36.43-27.15-43.57-33.36-9.34-1.16-26.74-1.31-34.78-4.88-10.91-4.83-38.65-3.74-43.11-7.55a4.2,4.2,0,0,1-.32-.29c-4.54-4.36-12.7-22.12,6.9-26.19,3.33-.69,7.67-.75,11.87-1,6.49-.42,12.63-1.38,14.18-6.08a13.39,13.39,0,0,0-1.81-11.82,11,11,0,0,0-9-4.89c-8-.08-19.49,21.34-31.28,28.16a20.93,20.93,0,0,1-13.41,3c-5.38-.79-9-4.19-9-8.06-.05-6.62,7.37-23.41,14.87-40.82,6.1-14.18,11.82-23.58,21.84-26.27,8.27-2.24,22.47-3.07,27.18-3.29l1.58-.06c11.3-11.73,27.46-8,36.41-4.56a49.75,49.75,0,0,1,6.61,3S359.43,146,369.66,153c7.18,4.94,25.33,23.36,35.66,36.9,3.4,4,34.61,33.73,44.24,44.55C463.62,250.27,446.68,258.78,437.06,272.19Z"
       id="path25"
       style="fill:#ffccaa" />
    <path
       class="cls-10"
       d="M365.78,161a1,1,0,0,1-.72-.29c-7.25-6.65-19.33-10.71-19.45-10.75a1.08,1.08,0,0,1,.68-2c.51.17,12.62,4.24,20.22,11.22a1.07,1.07,0,0,1-.73,1.86Z"
       id="path26" />
    <path
       class="cls-10"
       d="M347.27,261.51a1.09,1.09,0,0,1-1.07-.86,1,1,0,0,1,.77-1.25,15.82,15.82,0,0,1,2.46-.11c4.48-.07,15-.22,25.15-2.75a1.07,1.07,0,0,1,1.3.78,1.08,1.08,0,0,1-.78,1.3c-10.42,2.59-21.08,2.75-25.64,2.81-.94,0-1.82,0-2,.06Z"
       id="path27" />
    <path
       class="cls-10"
       d="M416.16,211.82h-.1a1.07,1.07,0,0,1-1-1.16c.64-7.27-4-13.21-4.06-13.26a1.08,1.08,0,0,1,.17-1.51,1.06,1.06,0,0,1,1.5.17c.22.26,5.25,6.64,4.53,14.78A1.08,1.08,0,0,1,416.16,211.82Z"
       id="path28" />
    <path
       class="cls-12"
       d="M431.59,216.08l57.34,47.7s-15.55,63.71-62.63,84.53l-51.69-41.82S427.4,269.27,431.59,216.08Z"
       id="path29"
       style="fill:#ff8080" />
    <path
       class="cls-9"
       d="M390.38,319.36a1.07,1.07,0,0,1-.53-2c43.14-24.49,57.41-86.24,57.55-86.86a1.08,1.08,0,0,1,1.28-.81,1.07,1.07,0,0,1,.81,1.28c-.14.63-14.61,63.29-58.59,88.25A1,1,0,0,1,390.38,319.36Z"
       id="path31" />
  </g>
  <g
     id="pen">
    <path
       class="cls-13"
       d="M337.14,123.39a14.24,14.24,0,0,0-19.46,3.75l-16.33,23.35L246.5,228.93l-8.79,12.57-4.63,32.34,28.94-16,7-10.1c-4.54-4.36-12.7-22.12,6.9-26.19,3.33-.69,7.67-.75,11.87-1l12.37-17.9,39.19-56.75,1.72-2.48a14.24,14.24,0,0,0-3.92-20Z"
       id="path32"
       style="fill:#be2727" />
    <polygon
       class="cls-9"
       points="233.08 273.84 245.41 267 234.96 260.17 233.08 273.84"
       id="polygon32" />
    <path
       class="cls-9"
       d="M262,258.89h0c-16.09-.2-24.88-16.2-25.25-16.88a1.07,1.07,0,0,1,1.89-1c.08.16,8.57,15.57,23.39,15.76a1.07,1.07,0,0,1,0,2.14Z"
       id="path33" />
    <path
       class="cls-9"
       d="M339.09,144.52c-19.54,0-22.44-17-22.47-17.21a1.07,1.07,0,0,1,2.12-.34c.11.67,2.88,16.45,22.26,15.35a1.07,1.07,0,0,1,.12,2.14C340.42,144.5,339.75,144.52,339.09,144.52Z"
       id="path34" />
    <path
       class="cls-9"
       d="M244.8,251.48a1.1,1.1,0,0,1-.62-.19,1.08,1.08,0,0,1-.26-1.5L323,136.86a1.07,1.07,0,0,1,1.75,1.23L245.68,251A1.07,1.07,0,0,1,244.8,251.48Z"
       id="path35" />
    <path
       class="cls-9"
       d="M280.69,221.14a1.05,1.05,0,0,1-.78-.34,1.08,1.08,0,0,1,0-1.46c1.34-1.66,35.3-50.86,53.12-76.71a1.07,1.07,0,1,1,1.76,1.21c-15.8,22.93-52.63,76.34-53.35,77A1.1,1.1,0,0,1,280.69,221.14Z"
       id="path36" />
    <path
       class="cls-9"
       d="M255.65,257.38a1.08,1.08,0,0,1-.88-1.69L264.33,242a1.07,1.07,0,0,1,1.75,1.23l-9.55,13.65A1.07,1.07,0,0,1,255.65,257.38Z"
       id="path37" />
  </g>
  <g
     id="light"
     style="fill:#ffccaa">
    <path
       class="cls-8"
       d="M310.13,117.18a16.16,16.16,0,0,0-14.88,14.49,16.16,16.16,0,0,0-14.89-14.49,16.14,16.14,0,0,0,14.89-14.49,16.14,16.14,0,0,0,14.88,14.49Z"
       id="path38"
       style="fill:#ffccaa" />
    <path
       class="cls-8"
       d="M319.8,105.18a8.63,8.63,0,0,0-8,7.75,8.65,8.65,0,0,0-8-7.75,8.65,8.65,0,0,0,8-7.76,8.59,8.59,0,0,0,2.48,5.25A8.7,8.7,0,0,0,319.8,105.18Z"
       id="path39"
       style="fill:#ffccaa" />
    <path
       class="cls-8"
       d="M97.79,291.81a8.65,8.65,0,0,0-8,7.76,8.65,8.65,0,0,0-8-7.76,8.65,8.65,0,0,0,8-7.75,8.65,8.65,0,0,0,8,7.75Z"
       id="path40"
       style="fill:#ffccaa" />
  </g>
</svg>
