<?xml version="1.0" encoding="UTF-8" standalone="no"?>
<svg
   transform="scale(1)"
   version="1.1"
   id="Layer_1"
   x="0px"
   y="0px"
   viewBox="0 0 500 500"
   xml:space="preserve"
   class="show_show__wrapper__graphic__5Waiy "
   sodipodi:docname="Data Cloud 2.svg"
   inkscape:version="1.3.2 (091e20e, 2023-11-25)"
   xmlns:inkscape="http://www.inkscape.org/namespaces/inkscape"
   xmlns:sodipodi="http://sodipodi.sourceforge.net/DTD/sodipodi-0.dtd"
   xmlns="http://www.w3.org/2000/svg"
   xmlns:svg="http://www.w3.org/2000/svg"><defs
     id="defs86" /><sodipodi:namedview
     id="namedview86"
     pagecolor="#505050"
     bordercolor="#eeeeee"
     borderopacity="1"
     inkscape:showpageshadow="0"
     inkscape:pageopacity="0"
     inkscape:pagecheckerboard="0"
     inkscape:deskcolor="#505050"
     inkscape:zoom="1.888"
     inkscape:cx="233.84534"
     inkscape:cy="304.55508"
     inkscape:window-width="1440"
     inkscape:window-height="847"
     inkscape:window-x="0"
     inkscape:window-y="25"
     inkscape:window-maximized="0"
     inkscape:current-layer="Layer_1" /><title
     id="title1">React</title><style
     type="text/css"
     id="style1">
	.st0{fill:#FFFFFF;}
	.st1{fill:#000111;}
	.st2{fill:url(#SVGID_1_);}
	.st3{fill:url(#SVGID_00000116937767826391930210000017114363065349453968_);}
	.st4{fill:url(#SVGID_00000045595647837088385260000006413762734961598141_);}
	.st5{fill:url(#SVGID_00000078764772096162342460000005661496884566002622_);}
	.st6{fill:url(#SVGID_00000132050221736357264080000006873706882170277304_);}
	.st7{fill:url(#SVGID_00000102527333539421055360000002651791467654187171_);}
	.st8{fill:url(#SVGID_00000013895440833879831940000016498030128195605695_);}
	.st9{fill:url(#SVGID_00000080197463796849465380000004960927712625915805_);}
	.st10{fill:url(#SVGID_00000179634383188029745360000018305586637858804379_);}
	.st11{fill:url(#SVGID_00000114755526217728873910000003699569953814227390_);}
	.st12{fill:url(#SVGID_00000031197196720285027790000006310257434838615434_);}
	.st13{fill:url(#SVGID_00000088092458071581981560000012103929897721995653_);}
	.st14{fill:url(#SVGID_00000146499378764480012250000002699686846933943702_);}
	.st15{fill:url(#SVGID_00000000196204529529111940000004686950458090959039_);}
	.st16{fill:url(#SVGID_00000181799436627461212000000017440071538089830576_);}
	.st17{fill:url(#SVGID_00000110437733792725182270000006153518449888535740_);}
	.st18{fill:#FED490;}
	.st19{fill:url(#SVGID_00000132809573152842376450000005860462636243539898_);}
	.st20{fill:url(#SVGID_00000132087388714219671270000014133094383813574292_);}
	.st21{fill:url(#SVGID_00000166637507881200454700000000594436992353821313_);}
	.st22{fill:url(#SVGID_00000165916382572872616040000006280674351014190212_);}
	.st23{fill:url(#SVGID_00000047781976426897124740000001583797238835722127_);}
	.st24{fill:url(#SVGID_00000035489269898680733780000015940028875004968869_);}
</style><g
     id="cloud_2"><path
       class="st0"
       d="M17.4,401.9l80.5-0.1h23.4c0-20.2-17.1-20.4-17.1-20.4s-6.3-33.5-30.4-30.5c-3.9,0.4-7.6,1.7-11,3.7   c-1.6,1-3,2.1-4.2,3.5l-0.7,0.7c-0.2,0.3-0.5,0.6-0.7,0.9l0,0c-0.4,0.5-0.8,1.1-1.2,1.6c-0.3,0.5-0.6,1-0.9,1.4   c-1.5,2.7-2.7,5.6-3.3,8.7c0,0,0,0,0,0.1c-0.6,2.6-0.9,5.3-0.9,8.1c-1.2-1.1-2.5-2.2-3.8-3.1c-1.4-1-2.9-1.9-4.4-2.7   c-3.7-2-8.2-3.5-12.6-2.9c-2.5,0.3-4.8,1.3-6.7,2.9C11.4,382.7,17.4,401.9,17.4,401.9z"
       id="path1"
       style="fill:#ffffff" /><path
       class="st1"
       d="M17.4,403c-0.5,0-0.9-0.3-1-0.8c-1-3.6-1.6-7.3-1.6-11c0-8.1,2.6-14.5,7.7-18.5c2.1-1.7,4.6-2.7,7.3-3.1   c4-0.5,8.5,0.5,13.3,3c1.6,0.8,3.1,1.8,4.5,2.8c0.8,0.6,1.5,1.1,2.1,1.6c0.1-2,0.4-4,0.8-6c0.7-3.2,1.8-6.2,3.5-9   c0.3-0.5,0.6-1,0.9-1.5s0.8-1.2,1.2-1.7l0.1-0.1l0.7-0.9c0.2-0.3,0.5-0.5,0.7-0.8c1.3-1.4,2.9-2.6,4.5-3.6   c3.5-2.1,7.4-3.4,11.4-3.8c22.7-2.8,30.2,25.4,31.4,30.6c3.7,0.4,17.3,3.1,17.3,21.5c0,0.3-0.1,0.6-0.3,0.8   c-0.2,0.2-0.5,0.3-0.8,0.3L17.4,403L17.4,403z M31.9,371.6c-0.6,0-1.2,0-1.8,0.1c-2.3,0.3-4.4,1.2-6.2,2.6   c-9.7,7.6-6.5,22.8-5.6,26.4l101.9-0.1c-0.6-17.8-15.4-18.2-16-18.2c-0.5,0-1-0.4-1.1-0.9c-1.2-5.6-3.3-11-6.1-16.1   c-5.9-10.2-13.7-14.7-23.1-13.6c-3.7,0.4-7.3,1.6-10.5,3.5c-1.5,0.9-2.9,2-4.1,3.3c-0.2,0.2-0.4,0.5-0.6,0.7s-0.5,0.5-0.7,0.8l0,0   c-0.4,0.5-0.8,1-1.2,1.6s-0.6,0.9-0.9,1.4c-1.5,2.6-2.6,5.4-3.2,8.4c-0.6,2.6-0.9,5.2-0.9,7.9c0,0.6-0.4,1.1-1,1.1   c-0.3,0-0.6-0.1-0.8-0.3c-1.2-1.1-2.4-2.1-3.7-3c-1.4-1-2.8-1.9-4.3-2.7C39,372.7,35.5,371.7,31.9,371.6z"
       id="path2" /></g><g
     id="cupboard_3"><rect
       class="st1"
       x="149.2"
       y="208.3"
       width="39.1"
       height="193.3"
       id="rect2" /><path
       class="st1"
       d="M188.3,402.7h-39.1c-0.6,0-1.1-0.5-1.1-1.1V208.3c0-0.6,0.5-1.1,1.1-1.1h39.1c0.6,0,1.1,0.5,1.1,1.1   c0,0,0,0,0,0v193.3C189.4,402.2,188.9,402.7,188.3,402.7C188.3,402.7,188.3,402.7,188.3,402.7z M150.3,400.5h36.9V209.4h-36.9   L150.3,400.5z"
       id="path3" /><rect
       class="st0"
       x="73.8"
       y="208.3"
       width="85.3"
       height="193.3"
       id="rect3"
       style="fill:#ffffff" /><path
       class="st1"
       d="M159.1,402.7H73.8c-0.6,0-1.1-0.5-1.1-1.1V208.3c0-0.6,0.5-1.1,1.1-1.1h85.3c0.6,0,1.1,0.5,1.1,1.1v193.3   C160.2,402.2,159.7,402.7,159.1,402.7z M74.9,400.5H158V209.4H74.9V400.5z"
       id="path4" /><linearGradient
       id="SVGID_1_"
       gradientUnits="userSpaceOnUse"
       x1="86.5223"
       y1="306.6915"
       x2="248.3423"
       y2="63.1515"
       gradientTransform="matrix(1 0 0 -1 0 502)"><stop
         offset="0"
         style="stop-color: rgb(243, 131, 116);"
         id="stop4" /><stop
         offset="1"
         style="stop-color: rgb(198, 66, 52);"
         id="stop5" /></linearGradient><rect
       class="st2"
       x="73.8"
       y="208.3"
       width="85.3"
       height="64.2"
       id="rect5"
       style="fill:#be2727;fill-opacity:1" /><rect
       class="st0"
       x="79.3"
       y="213.8"
       width="74.4"
       height="53.3"
       id="rect6"
       style="fill:#ffffff" /><path
       class="st1"
       d="M153.7,268.1H79.3c-0.6,0-1.1-0.5-1.1-1.1c0,0,0,0,0,0v-53.2c0-0.6,0.5-1.1,1.1-1.1h74.4   c0.6,0,1.1,0.5,1.1,1.1V267C154.8,267.6,154.3,268.1,153.7,268.1C153.7,268.1,153.7,268.1,153.7,268.1z M80.4,265.9h72.2v-51.1   H80.4V265.9z"
       id="path6" /><linearGradient
       id="SVGID_00000085218651892858604140000018058683342000717499_"
       gradientUnits="userSpaceOnUse"
       x1="56.9813"
       y1="287.0609"
       x2="218.8013"
       y2="43.5208"
       gradientTransform="matrix(1 0 0 -1 0 502)"><stop
         offset="0"
         style="stop-color: rgb(243, 131, 116);"
         id="stop6" /><stop
         offset="1"
         style="stop-color: rgb(198, 66, 52);"
         id="stop7" /></linearGradient><rect
       x="73.8"
       y="272.4"
       width="85.3"
       height="64.2"
       style="fill:#be2727;fill-opacity:1"
       id="rect7" /><rect
       class="st0"
       x="79.3"
       y="277.8"
       width="74.4"
       height="53.3"
       id="rect8"
       style="fill:#ffffff" /><path
       class="st1"
       d="M153.7,332.2H79.3c-0.6,0-1.1-0.5-1.1-1.1c0,0,0,0,0,0v-53.2c0-0.6,0.5-1.1,1.1-1.1c0,0,0,0,0,0h74.4   c0.6,0,1.1,0.5,1.1,1.1c0,0,0,0,0,0v53.2C154.8,331.7,154.3,332.2,153.7,332.2C153.7,332.2,153.7,332.2,153.7,332.2z M80.4,330   h72.2v-51.1H80.4V330z"
       id="path8" /><linearGradient
       id="SVGID_00000044158894920284692960000015868086433212662205_"
       gradientUnits="userSpaceOnUse"
       x1="27.4403"
       y1="267.4302"
       x2="189.2603"
       y2="23.8902"
       gradientTransform="matrix(1 0 0 -1 0 502)"><stop
         offset="0"
         style="stop-color: rgb(243, 131, 116);"
         id="stop8" /><stop
         offset="1"
         style="stop-color: rgb(198, 66, 52);"
         id="stop9" /></linearGradient><rect
       x="73.8"
       y="336.5"
       width="85.3"
       height="64.2"
       style="fill:#be2727;fill-opacity:1"
       id="rect9" /><rect
       class="st0"
       x="79.3"
       y="341.9"
       width="74.4"
       height="53.3"
       id="rect10"
       style="fill:#ffffff" /><path
       class="st1"
       d="M153.7,396.3H79.3c-0.6,0-1.1-0.5-1.1-1.1v-53.3c0-0.6,0.5-1.1,1.1-1.1h74.4c0.6,0,1.1,0.5,1.1,1.1v53.3   C154.8,395.8,154.3,396.3,153.7,396.3z M80.4,394.1h72.2V343H80.4V394.1z"
       id="path10" /><polygon
       class="st1"
       points="94.3,306.5 98.3,309.7 98.3,306.4  "
       id="polygon10" /><polygon
       class="st1"
       points="138.9,306.5 134.8,309.7 134.8,306.4  "
       id="polygon11" /><linearGradient
       id="SVGID_00000083796663232365825250000010770103073392523701_"
       gradientUnits="userSpaceOnUse"
       x1="94.4123"
       y1="237.7413"
       x2="122.9023"
       y2="187.0913"
       gradientTransform="matrix(1 0 0 -1 0 502)"><stop
         offset="0"
         style="stop-color: rgb(243, 131, 116);"
         id="stop11" /><stop
         offset="1"
         style="stop-color: rgb(198, 66, 52);"
         id="stop12" /></linearGradient><rect
       x="94.3"
       y="300.8"
       width="44.6"
       height="5.7"
       style="fill:#be2727;fill-opacity:1"
       id="rect12" /><polygon
       class="st1"
       points="94.3,239 98.3,242.2 98.3,238.9  "
       id="polygon12" /><polygon
       class="st1"
       points="138.9,239 134.8,242.2 134.8,238.9  "
       id="polygon13" /><linearGradient
       id="SVGID_00000097465039970327556600000013295376808001495732_"
       gradientUnits="userSpaceOnUse"
       x1="94.4165"
       y1="305.2537"
       x2="122.9065"
       y2="254.6037"
       gradientTransform="matrix(1 0 0 -1 0 502)"><stop
         offset="0"
         style="stop-color: rgb(243, 131, 116);"
         id="stop13" /><stop
         offset="1"
         style="stop-color: rgb(198, 66, 52);"
         id="stop14" /></linearGradient><rect
       x="94.3"
       y="233.3"
       width="44.6"
       height="5.7"
       style="fill:#be2727"
       id="rect14" /><polygon
       class="st1"
       points="94.3,371.8 98.3,375 98.3,371.7  "
       id="polygon14" /><polygon
       class="st1"
       points="138.9,371.8 134.8,375 134.8,371.7  "
       id="polygon15" /><linearGradient
       id="SVGID_00000098921555803462731490000008980800804388340402_"
       gradientUnits="userSpaceOnUse"
       x1="94.4132"
       y1="172.4518"
       x2="122.9032"
       y2="121.8118"
       gradientTransform="matrix(1 0 0 -1 0 502)"><stop
         offset="0"
         style="stop-color: rgb(243, 131, 116);"
         id="stop15" /><stop
         offset="1"
         style="stop-color: rgb(198, 66, 52);"
         id="stop16" /></linearGradient><rect
       x="94.3"
       y="366.1"
       width="44.6"
       height="5.7"
       style="fill:#be2727;fill-opacity:1"
       id="rect16" /></g><g
     id="cupboard_2"><rect
       class="st1"
       x="313.1"
       y="208.3"
       width="39.1"
       height="193.3"
       id="rect17" /><path
       class="st1"
       d="M352.1,402.7h-39.1c-0.6,0-1.1-0.5-1.1-1.1V208.3c0-0.6,0.5-1.1,1.1-1.1h39.1c0.6,0,1.1,0.5,1.1,1.1v193.3   C353.2,402.2,352.7,402.7,352.1,402.7z M314.1,400.5H351V209.4h-36.9V400.5z"
       id="path17" /><rect
       class="st0"
       x="342.2"
       y="208.3"
       width="85.3"
       height="193.3"
       id="rect18"
       style="fill:#ffffff" /><path
       class="st1"
       d="M427.5,402.7h-85.3c-0.6,0-1.1-0.5-1.1-1.1c0,0,0,0,0,0V208.3c0-0.6,0.5-1.1,1.1-1.1c0,0,0,0,0,0h85.3   c0.6,0,1.1,0.5,1.1,1.1v193.3C428.6,402.2,428.1,402.7,427.5,402.7z M343.3,400.5h83.1V209.4h-83.1L343.3,400.5z"
       id="path18" /><linearGradient
       id="SVGID_00000098923670605844166310000004398925928955873177_"
       gradientUnits="userSpaceOnUse"
       x1="276.7545"
       y1="424.373"
       x2="438.5645"
       y2="180.843"
       gradientTransform="matrix(1 0 0 -1 0 502)"><stop
         offset="0"
         style="stop-color: rgb(243, 131, 116);"
         id="stop18" /><stop
         offset="1"
         style="stop-color: rgb(198, 66, 52);"
         id="stop19" /></linearGradient><rect
       x="342.2"
       y="208.3"
       width="85.3"
       height="64.2"
       style="fill:#be2727"
       id="rect19" /><rect
       class="st0"
       x="347.7"
       y="213.8"
       width="74.4"
       height="53.3"
       id="rect20"
       style="fill:#ffffff" /><path
       class="st1"
       d="M422.1,268.1h-74.4c-0.6,0-1.1-0.5-1.1-1.1v-53.3c0-0.6,0.5-1.1,1.1-1.1h74.4c0.6,0,1.1,0.5,1.1,1.1   c0,0,0,0,0,0V267C423.2,267.6,422.7,268.1,422.1,268.1C422.1,268.1,422.1,268.1,422.1,268.1z M348.8,265.9H421v-51.1h-72.2V265.9z"
       id="path20" /><linearGradient
       id="SVGID_00000121982388088648618860000018284369350065636277_"
       gradientUnits="userSpaceOnUse"
       x1="247.2132"
       y1="404.7521"
       x2="409.0232"
       y2="161.2121"
       gradientTransform="matrix(1 0 0 -1 0 502)"><stop
         offset="0"
         style="stop-color: rgb(243, 131, 116);"
         id="stop20" /><stop
         offset="1"
         style="stop-color: rgb(198, 66, 52);"
         id="stop21" /></linearGradient><rect
       x="342.2"
       y="272.4"
       width="85.3"
       height="64.2"
       style="fill:#be2727"
       id="rect21" /><rect
       class="st0"
       x="347.7"
       y="277.8"
       width="74.4"
       height="53.3"
       id="rect22"
       style="fill:#ffffff" /><path
       class="st1"
       d="M422.1,332.2h-74.4c-0.6,0-1.1-0.5-1.1-1.1c0,0,0,0,0,0v-53.2c0-0.6,0.5-1.1,1.1-1.1c0,0,0,0,0,0h74.4   c0.6,0,1.1,0.5,1.1,1.1c0,0,0,0,0,0v53.2C423.2,331.7,422.7,332.2,422.1,332.2C422.1,332.2,422.1,332.2,422.1,332.2z M348.8,330   H421v-51.1h-72.2V330z"
       id="path22" /><linearGradient
       id="SVGID_00000139289190332375403090000015534541106542359954_"
       gradientUnits="userSpaceOnUse"
       x1="217.6735"
       y1="385.1223"
       x2="379.4835"
       y2="141.5823"
       gradientTransform="matrix(1 0 0 -1 0 502)"><stop
         offset="0"
         style="stop-color: rgb(243, 131, 116);"
         id="stop22" /><stop
         offset="1"
         style="stop-color: rgb(198, 66, 52);"
         id="stop23" /></linearGradient><rect
       x="342.2"
       y="336.5"
       width="85.3"
       height="64.2"
       style="fill:#be2727;fill-opacity:1"
       id="rect23" /><rect
       class="st0"
       x="347.7"
       y="341.9"
       width="74.4"
       height="53.3"
       id="rect24"
       style="fill:#ffffff" /><path
       class="st1"
       d="M422.1,396.3h-74.4c-0.6,0-1.1-0.5-1.1-1.1v-53.3c0-0.6,0.5-1.1,1.1-1.1h74.4c0.6,0,1.1,0.5,1.1,1.1v53.3   C423.2,395.8,422.7,396.3,422.1,396.3C422.1,396.3,422.1,396.3,422.1,396.3z M348.8,394.1H421V343h-72.2V394.1z"
       id="path24" /><polygon
       class="st1"
       points="361.8,306.5 365.8,309.7 365.8,306.4  "
       id="polygon24" /><polygon
       class="st1"
       points="406.4,306.5 402.3,309.7 402.3,306.4  "
       id="polygon25" /><linearGradient
       id="SVGID_00000101101181607142852680000003618259538701573779_"
       gradientUnits="userSpaceOnUse"
       x1="361.8947"
       y1="237.737"
       x2="390.3847"
       y2="187.087"
       gradientTransform="matrix(1 0 0 -1 0 502)"><stop
         offset="0"
         style="stop-color: rgb(243, 131, 116);"
         id="stop25" /><stop
         offset="1"
         style="stop-color: rgb(198, 66, 52);"
         id="stop26" /></linearGradient><rect
       x="361.8"
       y="300.8"
       width="44.6"
       height="5.7"
       style="fill:#be2727"
       id="rect26" /><polygon
       class="st1"
       points="361.8,239 365.8,242.2 365.8,238.9  "
       id="polygon26" /><polygon
       class="st1"
       points="406.4,239 402.3,242.2 402.3,238.9  "
       id="polygon27" /><linearGradient
       id="SVGID_00000019646062040035715760000000908248873231063455_"
       gradientUnits="userSpaceOnUse"
       x1="361.8989"
       y1="305.2494"
       x2="390.3889"
       y2="254.5994"
       gradientTransform="matrix(1 0 0 -1 0 502)"><stop
         offset="0"
         style="stop-color: rgb(243, 131, 116);"
         id="stop27" /><stop
         offset="1"
         style="stop-color: rgb(198, 66, 52);"
         id="stop28" /></linearGradient><rect
       x="361.8"
       y="233.3"
       width="44.6"
       height="5.7"
       style="fill:#be2727"
       id="rect28" /><polygon
       class="st1"
       points="361.8,371.8 365.8,375 365.8,371.7  "
       id="polygon28" /><polygon
       class="st1"
       points="406.4,371.8 402.3,375 402.3,371.7  "
       id="polygon29" /><linearGradient
       id="SVGID_00000137839299265704388100000004751415818585074308_"
       gradientUnits="userSpaceOnUse"
       x1="361.8956"
       y1="172.4475"
       x2="390.3856"
       y2="121.8075"
       gradientTransform="matrix(1 0 0 -1 0 502)"><stop
         offset="0"
         style="stop-color: rgb(243, 131, 116);"
         id="stop29" /><stop
         offset="1"
         style="stop-color: rgb(198, 66, 52);"
         id="stop30" /></linearGradient><rect
       x="361.8"
       y="366.1"
       width="44.6"
       height="5.7"
       style="fill:#be2727;fill-opacity:1"
       id="rect30" /></g><g
     id="cloud_1"><path
       class="st0"
       d="M440.3,401.9l-103.7-0.1h-30.1c0-26.1,22.1-26.3,22.1-26.3s8.1-43.1,39.1-39.3c5,0.5,9.8,2.1,14.1,4.7   c2,1.2,3.9,2.7,5.5,4.4c0.3,0.3,0.6,0.6,0.9,0.9s0.6,0.7,0.9,1.1l0,0c0.6,0.7,1.1,1.4,1.6,2.1s0.8,1.2,1.1,1.8   c2,3.5,3.4,7.2,4.3,11.2c0,0,0,0.1,0,0.1c0.8,3.4,1.2,6.9,1.1,10.4c1.5-1.4,3.2-2.7,4.9-4c1.8-1.3,3.7-2.5,5.7-3.5   c4.7-2.5,10.5-4.5,16.3-3.8c3.2,0.4,6.2,1.7,8.7,3.7C448.1,377.2,440.3,401.9,440.3,401.9z"
       id="path30"
       style="fill:#ffffff" /><path
       class="st1"
       d="M440.3,403L440.3,403l-133.8-0.1c-0.6,0-1.1-0.5-1.1-1.1c0,0,0,0,0,0c0-20.7,14.1-26.9,22.3-27.4   c1.4-6.1,11-42.9,40.2-39.4c5.2,0.6,10.1,2.2,14.6,4.9c2.1,1.3,4,2.8,5.7,4.6c0.3,0.3,0.6,0.6,0.9,0.9s0.6,0.7,0.9,1.1l0.1,0.1   c0.5,0.7,1.1,1.4,1.6,2.2c0.4,0.6,0.8,1.2,1.2,1.9c2,3.6,3.5,7.4,4.4,11.5v0.1c0.6,2.7,1,5.5,1.1,8.2c0.8-0.7,1.9-1.5,3.2-2.5   c1.9-1.3,3.8-2.5,5.8-3.6c6.1-3.2,11.8-4.6,16.9-3.9c3.4,0.4,6.5,1.8,9.2,3.9c15.6,12.2,8.1,36.7,7.8,37.7   C441.2,402.7,440.8,403,440.3,403z M307.6,400.7l131.9,0.1c1.1-4.2,5.6-24.5-7.3-34.6c-2.4-1.9-5.2-3.1-8.1-3.5   c-4.7-0.6-9.9,0.6-15.6,3.6c-1.9,1-3.8,2.2-5.6,3.5c-1.7,1.2-3.3,2.5-4.8,3.9c-0.3,0.3-0.8,0.4-1.2,0.2c-0.4-0.2-0.6-0.6-0.6-1   c0-3.4-0.3-6.8-1.1-10.1c-0.8-3.8-2.3-7.5-4.2-11c-0.4-0.6-0.7-1.2-1.1-1.8c-0.5-0.7-1-1.4-1.5-2l0,0c-0.3-0.4-0.6-0.7-0.9-1.1   s-0.5-0.6-0.8-0.9c-1.6-1.6-3.4-3.1-5.3-4.2c-4.2-2.5-8.8-4.1-13.7-4.6c-29.7-3.6-37.9,38-37.9,38.4c-0.1,0.5-0.5,0.9-1.1,0.9   C327.8,376.6,308.2,377.1,307.6,400.7L307.6,400.7z"
       id="path31" /></g><g
     id="cupboard_1"><rect
       class="st0"
       x="187.8"
       y="191.6"
       width="129.3"
       height="210"
       id="rect31"
       style="fill:#ffffff" /><path
       class="st1"
       d="M317.1,402.7H187.8c-0.6,0-1.1-0.5-1.1-1.1c0,0,0,0,0,0v-210c0-0.6,0.5-1.1,1.1-1.1c0,0,0,0,0,0h129.3   c0.6,0,1.1,0.5,1.1,1.1v210C318.2,402.2,317.7,402.7,317.1,402.7z M188.9,400.5H316V192.7H188.9L188.9,400.5z"
       id="path32" /><rect
       class="st0"
       x="187.8"
       y="191.8"
       width="129.3"
       height="43.9"
       id="rect32"
       style="fill:#ffffff" /><path
       class="st1"
       d="M317.1,236.8H187.8c-0.6,0-1.1-0.5-1.1-1.1c0,0,0,0,0,0v-43.9c0-0.6,0.5-1.1,1.1-1.1h0h129.3   c0.6,0,1.1,0.5,1.1,1.1c0,0,0,0,0,0v43.8C318.2,236.3,317.7,236.8,317.1,236.8L317.1,236.8z M188.9,234.6H316v-41.7H188.9   L188.9,234.6z"
       id="path33" /><rect
       class="st0"
       x="187.8"
       y="357.3"
       width="129.3"
       height="43.9"
       id="rect33"
       style="fill:#ffffff" /><path
       class="st1"
       d="M317.1,402.3H187.8c-0.6,0-1.1-0.5-1.1-1.1c0,0,0,0,0,0v-43.9c0-0.6,0.5-1.1,1.1-1.1c0,0,0,0,0,0h129.3   c0.6,0,1.1,0.5,1.1,1.1v43.9C318.2,401.8,317.7,402.3,317.1,402.3z M188.9,400.1H316v-41.7H188.9L188.9,400.1z"
       id="path34" /><rect
       class="st0"
       x="161.1"
       y="264.8"
       width="179.1"
       height="64"
       id="rect34"
       style="fill:#ffffff" /><path
       class="st1"
       d="M340.2,329.9H161.1c-0.6,0-1.1-0.5-1.1-1.1v-64c0-0.6,0.5-1.1,1.1-1.1c0,0,0,0,0,0h179.1   c0.6,0,1.1,0.5,1.1,1.1l0,0v64C341.3,329.4,340.9,329.9,340.2,329.9C340.2,329.9,340.2,329.9,340.2,329.9z M162.2,327.7h176.9   v-61.8H162.2L162.2,327.7z"
       id="path35" /><rect
       class="st0"
       x="166.6"
       y="270.3"
       width="168.2"
       height="53"
       id="rect35"
       style="fill:#ffffff" /><path
       class="st1"
       d="M334.8,324.4H166.6c-0.6,0-1.1-0.5-1.1-1.1v-53.1c0-0.6,0.5-1.1,1.1-1.1h168.2c0.6,0,1.1,0.5,1.1,1.1v53.1   C335.9,324,335.4,324.4,334.8,324.4z M167.7,322.3h166v-50.9h-166V322.3z"
       id="path36" /><polygon
       class="st1"
       points="161.1,328.8 187.7,339.2 316.4,339.2 340.2,328.8  "
       id="polygon36" /><path
       class="st1"
       d="M316.4,340.3H187.7c-0.1,0-0.3,0-0.4-0.1l-26.6-10.4c-0.6-0.2-0.8-0.9-0.6-1.4c0.2-0.4,0.6-0.7,1-0.7h179.1   c0.6,0,1.1,0.5,1.1,1.1c0,0.4-0.3,0.8-0.7,1l-23.8,10.4C316.7,340.3,316.6,340.3,316.4,340.3z M187.9,338.1h128.2l18.8-8.2H166.9   L187.9,338.1z"
       id="path37" /><polygon
       class="st1"
       points="203.5,300.1 212.2,307.1 212.2,300  "
       id="polygon37" /><polygon
       class="st1"
       points="300.4,300.1 291.6,307.1 291.6,300  "
       id="polygon38" /><linearGradient
       id="SVGID_00000090273061676201802150000009565543004250856353_"
       gradientUnits="userSpaceOnUse"
       x1="203.7889"
       y1="293.5894"
       x2="265.6689"
       y2="183.5894"
       gradientTransform="matrix(1 0 0 -1 0 502)"><stop
         offset="0"
         style="stop-color: rgb(243, 131, 116);"
         id="stop38" /><stop
         offset="1"
         style="stop-color: rgb(198, 66, 52);"
         id="stop39" /></linearGradient><rect
       x="203.5"
       y="287.8"
       width="96.9"
       height="12.4"
       style="fill:#be2727"
       id="rect39" /><polygon
       class="st1"
       points="219.1,216.6 225,221.3 225,216.5  "
       id="polygon39" /><polygon
       class="st1"
       points="284.8,216.6 278.8,221.3 278.8,216.5  "
       id="polygon40" /><linearGradient
       id="SVGID_00000099636476696176435210000010045370006370878881_"
       gradientUnits="userSpaceOnUse"
       x1="219.2601"
       y1="347.6201"
       x2="261.2502"
       y2="272.9801"
       gradientTransform="matrix(1 0 0 -1 0 502)"><stop
         offset="0"
         style="stop-color: rgb(243, 131, 116);"
         id="stop40" /><stop
         offset="1"
         style="stop-color: rgb(198, 66, 52);"
         id="stop41" /></linearGradient><rect
       x="219.1"
       y="208.2"
       width="65.7"
       height="8.4"
       style="fill:#be2727;fill-opacity:1"
       id="rect41" /><polygon
       class="st1"
       points="219.1,379.4 225,384.1 225,379.3  "
       id="polygon41" /><polygon
       class="st1"
       points="284.8,379.4 278.8,384.1 278.8,379.3  "
       id="polygon42" /><linearGradient
       id="SVGID_00000160888802782716859930000007133686896526831754_"
       gradientUnits="userSpaceOnUse"
       x1="219.2601"
       y1="184.8201"
       x2="261.2502"
       y2="110.1801"
       gradientTransform="matrix(1 0 0 -1 0 502)"><stop
         offset="0"
         style="stop-color: rgb(243, 131, 116);"
         id="stop42" /><stop
         offset="1"
         style="stop-color: rgb(198, 66, 52);"
         id="stop43" /></linearGradient><rect
       x="219.1"
       y="371"
       width="65.7"
       height="8.4"
       style="fill:#be2727"
       id="rect43" /><path
       class="st0"
       d="M223.8,264.6h-43.2c0,0-11.3-18.6-26.5-21.2l52.9-9.2C207.1,234.3,227.8,251.4,223.8,264.6z"
       id="path43"
       style="fill:#ffffff" /><path
       class="st1"
       d="M223.8,265.7h-43.2c-0.4,0-0.7-0.2-0.9-0.5c-0.1-0.2-11.3-18.3-25.7-20.7c-0.6-0.1-1-0.7-0.9-1.3   c0.1-0.5,0.4-0.8,0.9-0.9l52.9-9.2c0.3-0.1,0.6,0,0.9,0.2c0.9,0.7,21.2,17.8,17.1,31.5C224.7,265.4,224.3,265.7,223.8,265.7z    M181.2,263.5H223c2.5-11.3-13.5-25.8-16.2-28.1l-47.6,8.2C170.9,248.2,179.4,260.8,181.2,263.5z"
       id="path44" /><linearGradient
       id="SVGID_00000016070942632764550520000012791227234448525700_"
       gradientUnits="userSpaceOnUse"
       x1="266.8414"
       y1="294.6967"
       x2="280.1714"
       y2="259.9167"
       gradientTransform="matrix(1 0 0 -1 0 502)"><stop
         offset="0"
         style="stop-color: rgb(243, 131, 116);"
         id="stop44" /><stop
         offset="1"
         style="stop-color: rgb(198, 66, 52);"
         id="stop45" /></linearGradient><path
       d="M261.5,264.3c0,0,8.3-26.6,5.1-36.9   l40.8,14.9c0,0-6.9,13.7-7.6,22.2L261.5,264.3z"
       style="fill:#be2727;fill-opacity:1"
       id="path45" /><path
       class="st0"
       d="M266.7,264.6c0,0,8.9-33.3,28.6-38.7l34.3,23.1c0,0-11.9,7.6-12.8,15.9L266.7,264.6z"
       id="path46"
       style="fill:#ffffff" /><path
       class="st1"
       d="M316.9,266L316.9,266l-50.1-0.3c-0.3,0-0.7-0.2-0.9-0.4c-0.2-0.3-0.3-0.6-0.2-1c1.7-6.1,4.1-12,7-17.6   c6.4-12.2,13.9-19.6,22.4-21.9c0.3-0.1,0.6,0,0.9,0.1l34.3,23.1c0.3,0.2,0.5,0.6,0.5,0.9c0,0.4-0.2,0.7-0.5,0.9   c-0.1,0.1-11.5,7.4-12.3,15.1C317.9,265.6,317.4,266,316.9,266z M268.2,263.5l47.8,0.3c1.3-6.7,8.7-12.6,11.8-14.8l-32.6-21.9   C278.8,232,270.1,257.3,268.2,263.5z"
       id="path47" /><path
       class="st18"
       d="M233.6,264.6h-43.2c0,0-11.3-28.3-26.4-32l52.9-13.9C216.9,218.8,237.6,244.7,233.6,264.6z"
       id="path48"
       style="fill:#ffb380" /><path
       class="st1"
       d="M183.1,239.7c-0.6,0-1.1-0.5-1.1-1.1c0-0.5,0.3-0.9,0.8-1.1c32-9.2,32.1-9.2,32.6-8.7c0.5,0.3,0.6,1,0.3,1.5   c-0.2,0.3-0.6,0.5-1,0.5c-1.7,0.3-19.6,5.4-31.4,8.9C183.3,239.7,183.2,239.7,183.1,239.7z"
       id="path49" /><path
       class="st1"
       d="M187.1,246.4c-0.6,0-1.1-0.5-1.1-1.1c0-0.5,0.3-0.9,0.8-1.1l25.5-7.6c0.6-0.2,1.2,0.2,1.4,0.7   s-0.2,1.2-0.7,1.4l-25.5,7.6C187.3,246.4,187.2,246.4,187.1,246.4z"
       id="path50" /><path
       class="st1"
       d="M190.3,253.2c-0.5,0-0.9-0.3-1-0.8c-0.2-0.6,0.1-1.2,0.7-1.4l23.7-7.5c0.6-0.2,1.2,0.1,1.4,0.7   c0.2,0.6-0.1,1.2-0.7,1.4l-23.7,7.5C190.6,253.2,190.4,253.2,190.3,253.2z"
       id="path51" /><path
       class="st1"
       d="M198.2,261.1c-0.6,0-1.1-0.5-1.1-1.1c0-0.5,0.3-0.9,0.8-1.1l28.3-7c0.6-0.2,1.2,0.2,1.3,0.8c0,0,0,0,0,0   c0.1,0.6-0.2,1.2-0.8,1.3c0,0,0,0,0,0l-28.3,7L198.2,261.1z"
       id="path52" /><path
       class="st1"
       d="M315,252.1c-0.2,0-0.4,0-0.5-0.1l-27.3-14.8c-0.5-0.3-0.6-1-0.3-1.5c0.3-0.4,0.8-0.6,1.3-0.4l27.3,14.8   c0.5,0.3,0.7,1,0.4,1.5C315.7,251.8,315.4,252.1,315,252.1L315,252.1z"
       id="path53" /><path
       class="st1"
       d="M297.7,251.4c-0.2,0-0.3,0-0.5-0.1l-14.2-6.7c-0.6-0.3-0.8-0.9-0.5-1.5s0.9-0.8,1.5-0.5l14.2,6.7   c0.5,0.3,0.8,0.9,0.5,1.4C298.5,251.1,298.2,251.4,297.7,251.4L297.7,251.4z"
       id="path54" /><path
       class="st1"
       d="M308,256.2c-0.2,0-0.3,0-0.4-0.1l-5.6-2.4c-0.6-0.2-0.8-0.9-0.6-1.4s0.9-0.8,1.4-0.6l0,0l5.5,2.4   c0.6,0.2,0.8,0.9,0.6,1.4C308.8,255.9,308.4,256.2,308,256.2L308,256.2z"
       id="path55" /><path
       class="st1"
       d="M295.8,260.2c-0.1,0-0.2,0-0.3,0l-17.4-5.4c-0.6-0.2-0.9-0.8-0.7-1.4c0.2-0.5,0.8-0.9,1.3-0.7l17.4,5.4   c0.6,0.2,0.9,0.8,0.7,1.3c0,0,0,0,0,0C296.7,259.8,296.3,260.2,295.8,260.2z"
       id="path56" /></g><g
     id="document_2"><linearGradient
       id="SVGID_00000176728128550882704080000006816511508169380506_"
       gradientUnits="userSpaceOnUse"
       x1="435.5917"
       y1="616.2636"
       x2="474.5117"
       y2="616.2636"
       gradientTransform="matrix(0.72 0.69 0.69 -0.72 -422.86 256.45)"><stop
         offset="0"
         style="stop-color: rgb(243, 131, 116);"
         id="stop56" /><stop
         offset="1"
         style="stop-color: rgb(198, 66, 52);"
         id="stop57" /></linearGradient><path
       d="M311.3,142c0,0,21.3-28.9,21.9-45   l28.3,26.7L311.3,142z"
       style="fill:#ff8080"
       id="path57" /><path
       class="st0"
       d="M366.3,111.2c0,0-49.5,5.1-63.9,41.6l39.4,38.9c0,0,1.4-36.8,45.8-32.4L366.3,111.2z"
       id="path58"
       style="fill:#ffffff" /><path
       class="st1"
       d="M341.7,192.7c-0.3,0-0.6-0.1-0.8-0.3l-39.4-38.9c-0.3-0.3-0.4-0.8-0.2-1.2c14.5-36.7,64.3-42.2,64.8-42.2   c0.5-0.1,0.9,0.2,1.1,0.6l21.2,48.1c0.2,0.4,0.1,0.8-0.1,1.1c-0.2,0.3-0.6,0.5-1,0.4c-14.3-1.4-25.5,1.3-33.3,8.1   c-10.6,9.2-11.3,23-11.3,23.2c0,0.4-0.3,0.8-0.7,1C342,192.7,341.9,192.7,341.7,192.7z M303.7,152.5l37.2,36.8   c0.6-4.6,3-14.8,11.8-22.4c8-6.9,19.1-9.9,33.1-8.8l-20.2-45.7C359.3,113.2,317,120.1,303.7,152.5L303.7,152.5z"
       id="path59" /><path
       class="st1"
       d="M361.4,149.8c-0.5,0-0.9-0.3-1.1-0.8c-1.2-4.6-5.7-8.8-10.3-11c-4.7,2.2-10.8,3.7-12.6,2   c-0.5-0.4-1.1-1.5,0-3.3c1.5-2.2,4.3-3.2,7.9-2.6c1.6,0.3,3.2,0.7,4.6,1.4c1-0.5,2-1.2,2.9-1.9c0.6-0.5,2-1.7,1.5-2.6   c-1.7-3.4-11.5-4.9-17.3-5.1c-0.6,0-1.1-0.5-1.1-1.1c0-0.6,0.5-1.1,1.1-1.1l0,0l0,0c1.7,0,16.4,0.7,19.2,6.3   c0.6,1.2,0.6,3.2-2.6,5.6c-0.5,0.4-1,0.7-1.5,1c4.6,2.6,8.8,6.9,10.1,11.7c0.1,0.6-0.2,1.2-0.8,1.3   C361.5,149.8,361.4,149.8,361.4,149.8z M339,138.5c0.9,0.4,4.5-0.2,8.1-1.6c-0.7-0.2-1.4-0.4-2.1-0.5c-1.6-0.3-4.4-0.4-5.7,1.6   C339.2,138.1,339.1,138.3,339,138.5z"
       id="path60" /><path
       class="st1"
       d="M341.8,157.8c-0.1,0-0.2,0-0.3,0c-0.3-0.1-0.5-0.2-0.6-0.4c-1-1-11.3-10-18.1-15.8c-0.5-0.4-0.5-1.1-0.1-1.5   s1.1-0.5,1.5-0.1c18.9,16.2,18.9,16.2,18.7,17.1C342.7,157.5,342.3,157.8,341.8,157.8z"
       id="path61" /><path
       class="st1"
       d="M336.9,162.9c-0.3,0-0.5-0.1-0.7-0.3l-17.2-14.9c-0.5-0.4-0.6-1.1-0.2-1.5s1.1-0.6,1.5-0.2c0,0,0.1,0,0.1,0.1   l17.2,14.9c0.5,0.4,0.5,1.1,0.1,1.5C337.5,162.7,337.2,162.9,336.9,162.9L336.9,162.9z"
       id="path62" /><path
       class="st1"
       d="M333.2,260.1c-0.1,0-0.2,0-0.3,0c-0.3-0.1-0.5-0.3-0.6-0.5c-0.1-0.3-0.2-0.6-0.1-0.8c0.6-1.8,1.2-3.6,1.9-5.2   c0.2-0.6,0.9-0.8,1.4-0.6c0.4,0.2,0.7,0.6,0.7,1c0,0.1,0,0.3-0.1,0.4c-0.7,1.6-1.3,3.3-1.8,5C334.1,259.8,333.7,260.1,333.2,260.1z    M338,249.1c-0.2,0-0.4-0.1-0.5-0.1c-0.3-0.1-0.4-0.4-0.5-0.7c-0.1-0.3,0-0.6,0.1-0.8c0.9-1.6,1.9-3.2,3-4.7c0.4-0.5,1-0.6,1.5-0.2   c0.3,0.2,0.4,0.5,0.5,0.9c0,0.2-0.1,0.5-0.2,0.7c-1,1.4-2,2.9-2.9,4.4C338.7,248.9,338.4,249.1,338,249.1z M345.2,239.6   c-0.3,0-0.6-0.1-0.8-0.3c-0.2-0.2-0.3-0.5-0.3-0.8c0-0.3,0.1-0.6,0.3-0.8c1.3-1.3,2.7-2.6,4.1-3.7l0,0c0.5-0.3,1.1-0.3,1.5,0.2   c0.2,0.2,0.2,0.4,0.2,0.7c0,0.3-0.2,0.6-0.4,0.8c-1.4,1.1-2.7,2.3-3.9,3.6C345.7,239.5,345.5,239.6,345.2,239.6L345.2,239.6z    M354.6,232.3c-0.4,0-0.7-0.2-0.9-0.5c-0.3-0.5-0.1-1.2,0.4-1.5c0,0,0,0,0,0c1.6-0.9,3.2-1.8,4.9-2.6l0,0c0.5-0.2,1.2,0,1.5,0.5   c0.1,0.1,0.1,0.3,0.1,0.4c0,0.4-0.2,0.8-0.6,1c-1.6,0.8-3.2,1.6-4.7,2.5C355,232.2,354.8,232.3,354.6,232.3L354.6,232.3z    M365.5,227.3c-0.5,0-0.8-0.3-1-0.7c-0.2-0.6,0.1-1.2,0.7-1.4c1.7-0.6,3.5-1.1,5.3-1.6l0,0c0.6-0.2,1.2,0.2,1.3,0.8   c0,0.1,0,0.2,0,0.3c0,0.5-0.3,0.9-0.8,1.1c-1.7,0.5-3.5,1-5.1,1.6C365.7,227.3,365.6,227.3,365.5,227.3L365.5,227.3z M377.1,224.3   c-0.6,0-1.1-0.5-1.1-1.1c0-0.5,0.4-1,0.9-1.1c1.8-0.3,3.6-0.6,5.4-0.9l0,0c0.6-0.1,1.1,0.3,1.2,0.9v0.1c0,0.6-0.4,1-0.9,1.1   c-1.8,0.2-3.6,0.6-5.3,0.9L377.1,224.3z M389,222.7c-0.6,0-1.1-0.4-1.1-1s0.4-1.1,1-1.1l0,0c1.7-0.1,3.5-0.3,5.5-0.4   c0.6,0,1.1,0.4,1.2,1c0,0,0,0,0,0v0.1c0,0.6-0.4,1-1,1.1c-1.9,0.1-3.7,0.2-5.4,0.4L389,222.7z M401,222L401,222   c-0.6,0-1.1-0.5-1.1-1.1c0-0.3,0.1-0.6,0.3-0.8c0.2-0.2,0.5-0.3,0.8-0.4l5.5-0.2h0c0.6,0,1.1,0.5,1.1,1.1l0,0   c0,0.6-0.5,1.1-1.1,1.1C405,221.8,403,221.9,401,222L401,222z M413,221.7c-0.6,0-1.1-0.5-1.1-1.1c0-0.3,0.1-0.6,0.3-0.8   c0.2-0.2,0.5-0.3,0.8-0.3h1.1l4.4-0.1l0,0c0.6,0,1.1,0.5,1.1,1.1l0,0c0,0.6-0.5,1.1-1,1.1h-0.1L413,221.7L413,221.7z M425,221.4   c-0.6,0-1.1-0.5-1.1-1.1c0-0.3,0.1-0.5,0.3-0.7c0.2-0.2,0.5-0.3,0.8-0.4c2-0.1,3.8-0.2,5.4-0.4l0,0c0.6,0,1.1,0.4,1.2,1v0.1   c0,0.6-0.4,1-1,1.1C428.8,221.1,427,221.2,425,221.4L425,221.4z M437,220.2c-0.5,0-1-0.4-1.1-0.9c-0.1-0.6,0.3-1.2,0.9-1.3   c0,0,0,0,0,0c1.8-0.3,3.5-0.7,5.2-1.2c0.6-0.2,1.2,0.2,1.4,0.7c0.2,0.6-0.2,1.2-0.7,1.4c-1.8,0.5-3.6,0.9-5.5,1.2L437,220.2z    M448.3,216.4c-0.4,0-0.7-0.2-0.9-0.5c-0.2-0.2-0.2-0.5-0.1-0.8c0.1-0.3,0.3-0.5,0.5-0.7c1.4-0.9,2.7-2,3.7-3.3   c0.4-0.5,1-0.6,1.5-0.2c0.3,0.2,0.4,0.5,0.4,0.9c0,0.2-0.1,0.5-0.2,0.7c-1.2,1.5-2.6,2.8-4.3,3.8   C448.7,216.3,448.5,216.4,448.3,216.4L448.3,216.4z M454.8,207h-0.2c-0.6-0.1-1-0.7-0.9-1.3c0.3-1.3,0.4-2.7,0.4-4.1   c0-0.4,0-0.7,0-1.1l0,0v-0.1c0-0.6,0.6-1.1,1.2-1c0.5,0,0.9,0.4,1,1c0,0.4,0,0.8,0,1.2c0,1.5-0.1,3-0.4,4.5   C455.8,206.6,455.4,207,454.8,207L454.8,207z M414.5,202.4c-1.1,0-2.1,0-3.1-0.1c-0.6-0.1-1-0.6-0.9-1.2c0.1-0.5,0.5-0.9,1.1-1   c1.6,0.1,3.4,0.1,5.4,0c0.6,0,1.1,0.4,1.1,1c0,0,0,0,0,0.1l0,0c0,0.6-0.5,1.1-1,1.1C416.2,202.4,415.4,202.4,414.5,202.4   L414.5,202.4z M423.5,201.8c-0.6,0-1-0.4-1.1-0.9c-0.1-0.6,0.3-1.1,0.9-1.2c0,0,0,0,0,0c1.8-0.2,3.6-0.5,5.3-0.9   c0.6-0.1,1.2,0.3,1.3,0.9c0,0.1,0,0.1,0,0.2c0,0.5-0.4,1-0.9,1.1c-1.9,0.4-3.7,0.7-5.5,0.9L423.5,201.8z M405,201.6   c-0.1,0-0.1,0-0.2,0c-1.9-0.3-3.7-0.8-5.5-1.5c-0.3-0.1-0.5-0.3-0.6-0.6c-0.1-0.3-0.1-0.6,0-0.8c0.2-0.6,0.8-0.8,1.4-0.6   c1.7,0.6,3.4,1,5.1,1.4c0.5,0.1,0.9,0.6,0.9,1.1c0,0.1,0,0.1,0,0.2C406,201.2,405.5,201.6,405,201.6L405,201.6z M435.2,199.4   c-0.5,0-0.9-0.3-1-0.8c-0.2-0.6,0.2-1.2,0.7-1.3c0,0,0,0,0,0c1.7-0.5,3.4-1.1,5.1-1.7c0.6-0.2,1.2,0.1,1.4,0.6   c0,0.1,0.1,0.2,0.1,0.4c0,0.4-0.3,0.8-0.7,1c-1.7,0.6-3.5,1.2-5.3,1.7C435.5,199.3,435.4,199.3,435.2,199.4L435.2,199.4z M394,197   c-0.3,0-0.5-0.1-0.7-0.2c-1.6-1.3-2.8-2.9-3.6-4.7c-0.3-0.5-0.1-1.2,0.4-1.5c0.5-0.3,1.2-0.1,1.5,0.4c0,0.1,0.1,0.2,0.1,0.3   c0.6,1.5,1.7,2.9,2.9,3.9c0.5,0.4,0.5,1.1,0.1,1.5C394.6,196.9,394.3,197,394,197z M453.9,195.2c-0.4,0-0.8-0.3-1-0.7   c-0.3-0.8-0.6-1.6-1-2.3l0,0c-1.6,1-3.2,1.9-4.9,2.7c-0.5,0.3-1.2,0-1.5-0.5c-0.1-0.3-0.2-0.6,0-0.8c0.1-0.3,0.3-0.5,0.5-0.6   c1.6-0.8,3.1-1.7,4.6-2.6h0.1c-0.1-0.1-0.2-0.3-0.3-0.4l0,0c-0.1-0.2-0.2-0.4-0.2-0.6c0-0.4,0.2-0.7,0.5-0.9   c0.5-0.3,1.2-0.2,1.5,0.3c1.1,1.6,2,3.2,2.7,5c0.2,0.6-0.1,1.2-0.6,1.4C454.2,195.2,454,195.2,453.9,195.2L453.9,195.2z    M456.4,188.4c-0.3,0-0.6-0.1-0.8-0.4c-0.4-0.4-0.4-1.1,0.1-1.5c0,0,0,0,0,0c1.3-1.2,2.5-2.4,3.6-3.8l0,0c0.4-0.5,1-0.5,1.5-0.2   c0.3,0.2,0.4,0.5,0.4,0.9c0,0.2-0.1,0.5-0.2,0.6c-1.2,1.5-2.5,2.9-3.9,4.1C456.9,188.3,456.7,188.4,456.4,188.4L456.4,188.4z    M390.2,186.3H390c-0.5-0.1-0.9-0.5-0.9-1.1c0-0.1,0-0.1,0-0.2c0.3-1.9,1.1-3.8,2.2-5.4c0.3-0.5,1-0.6,1.5-0.3   c0.5,0.3,0.6,1,0.3,1.5c-0.9,1.4-1.6,2.9-1.9,4.6C391.2,185.9,390.8,186.2,390.2,186.3L390.2,186.3z M447,185.4   c-0.3,0-0.5-0.1-0.8-0.3c-1.3-1.2-2.7-2.3-4.1-3.3c-0.3-0.2-0.5-0.5-0.5-0.9c0-0.2,0.1-0.4,0.2-0.6c0.4-0.5,1-0.6,1.5-0.3   c1.5,1.1,3,2.2,4.4,3.5c0.4,0.4,0.5,1.1,0.1,1.5c0,0,0,0,0,0C447.6,185.3,447.4,185.4,447,185.4L447,185.4z M463.4,178.8   c-0.1,0-0.3,0-0.4-0.1c-0.3-0.1-0.5-0.3-0.6-0.6c-0.1-0.3-0.1-0.6,0-0.8c0.6-1.6,1-3.3,1.2-5c0.1-0.6,0.6-1,1.2-0.9   c0.5,0.1,0.9,0.5,0.9,1v0.1c-0.2,1.9-0.7,3.8-1.4,5.6C464.3,178.5,463.9,178.8,463.4,178.8L463.4,178.8z M437.1,178.8   c-0.2,0-0.3,0-0.5-0.1c-1.6-0.8-3.2-1.5-4.9-2.1c-0.4-0.2-0.7-0.6-0.7-1c0-0.1,0-0.3,0.1-0.4c0.2-0.6,0.8-0.9,1.4-0.7   c1.7,0.6,3.5,1.4,5.1,2.2c0.5,0.3,0.8,0.9,0.5,1.5c0,0,0,0,0,0C437.9,178.6,437.5,178.8,437.1,178.8L437.1,178.8z M397.1,176.9   c-0.4,0-0.7-0.2-0.9-0.5c-0.1-0.2-0.2-0.4-0.2-0.6c0-0.4,0.2-0.7,0.5-0.9c1.6-1,3.4-1.7,5.2-2.3c0.6-0.2,1.2,0.2,1.4,0.7   c0.2,0.6-0.1,1.2-0.7,1.4c0,0,0,0,0,0c-1.7,0.5-3.3,1.2-4.8,2.1C397.5,176.8,397.3,176.9,397.1,176.9L397.1,176.9z M425.8,174.8   c-0.1,0-0.2,0-0.3,0c-1.7-0.4-3.5-0.8-5.3-1c-0.5-0.1-0.9-0.5-0.9-1.1c0-0.1,0-0.1,0-0.2c0.1-0.6,0.6-1,1.2-0.9   c1.8,0.3,3.6,0.6,5.5,1.1c0.3,0.1,0.5,0.2,0.7,0.5c0.3,0.5,0.2,1.2-0.4,1.5C426.2,174.8,426,174.8,425.8,174.8L425.8,174.8z    M408.5,173.4c-0.6,0-1-0.4-1.1-1c0,0,0-0.1,0-0.1c0-0.6,0.4-1,1-1.1c1.5-0.2,3.1-0.2,4.6-0.2c0.3,0,0.6,0,0.9,0   c0.3,0,0.6,0.1,0.8,0.3c0.2,0.2,0.3,0.5,0.3,0.8c0,0.6-0.5,1.1-1.1,1.1l0,0c-1.8,0-3.6,0-5.3,0.2L408.5,173.4z M464.4,167   c-0.5,0-1-0.4-1.1-0.9c-0.3-1.7-0.8-3.4-1.5-5l0,0c-0.1-0.1-0.1-0.3-0.1-0.4c0-0.4,0.3-0.8,0.7-1c0.6-0.2,1.2,0,1.4,0.6   c0.7,1.7,1.3,3.5,1.6,5.4c0.1,0.3,0,0.6-0.2,0.8c-0.2,0.2-0.4,0.4-0.7,0.5L464.4,167z M459.6,156.1c-0.4,0-0.7-0.2-0.9-0.5   c-1-1.4-2.2-2.8-3.4-4c-0.2-0.2-0.3-0.5-0.3-0.8c0-0.3,0.1-0.6,0.3-0.8c0.4-0.4,1.1-0.4,1.5,0c1.3,1.3,2.5,2.8,3.6,4.3   c0.4,0.5,0.3,1.2-0.2,1.5C460,156.1,459.8,156.2,459.6,156.1L459.6,156.1z M451.2,147.6c-0.2,0-0.5-0.1-0.6-0.2   c-1.4-1.1-2.9-2.1-4.4-3l0,0c-0.3-0.2-0.5-0.6-0.5-0.9c0-0.2,0.1-0.4,0.2-0.6c0.3-0.5,1-0.7,1.5-0.4c1.6,1,3.2,2.1,4.6,3.1   c0.2,0.2,0.4,0.4,0.4,0.7c0.1,0.3,0,0.6-0.2,0.8C451.8,147.5,451.5,147.7,451.2,147.6L451.2,147.6z M441,141.4   c-0.2,0-0.3,0-0.5-0.1c-1.5-0.8-3.2-1.6-4.9-2.3l0,0c-0.4-0.2-0.7-0.6-0.7-1c0-0.1,0-0.3,0.1-0.4c0.2-0.5,0.9-0.8,1.4-0.6   c1.7,0.7,3.4,1.5,5,2.3c0.5,0.3,0.8,0.9,0.5,1.5C441.8,141.2,441.4,141.4,441,141.4L441,141.4z M429.9,136.7c-0.1,0-0.2,0-0.4-0.1   c-1.7-0.6-3.4-1.2-5.1-1.7l0,0c-0.4-0.1-0.7-0.5-0.8-1c0-0.1,0-0.2,0.1-0.3c0.2-0.6,0.8-0.9,1.3-0.7c0,0,0,0,0,0   c1.9,0.6,3.6,1.1,5.2,1.7c0.6,0.2,0.9,0.8,0.7,1.4c0,0,0,0,0,0C430.8,136.4,430.4,136.7,429.9,136.7L429.9,136.7z M418.4,133.2   c-0.1,0-0.2,0-0.3,0c-1.7-0.4-3.5-0.9-5.3-1.3c-0.5-0.1-0.8-0.5-0.9-1.1c0-0.1,0-0.2,0-0.2c0.1-0.6,0.7-1,1.3-0.8   c1.9,0.4,3.6,0.9,5.4,1.3c0.3,0.1,0.5,0.2,0.7,0.5c0.3,0.5,0.1,1.2-0.4,1.5C418.8,133.2,418.6,133.2,418.4,133.2L418.4,133.2z    M406.7,130.6h-0.2c-1.9-0.4-3.7-0.7-5.4-0.9l0,0c-0.5-0.1-0.9-0.5-0.9-1.1c0-0.1,0-0.1,0-0.2c0.1-0.6,0.6-1,1.2-0.9h0.1   c1.8,0.3,3.6,0.6,5.4,0.9c0.3,0.1,0.5,0.2,0.7,0.5c0.2,0.2,0.2,0.5,0.2,0.8C407.7,130.2,407.2,130.6,406.7,130.6L406.7,130.6z    M394.8,128.8h-0.1c-2.9-0.3-5-0.5-5.3-0.5l0,0c-0.6-0.1-1-0.6-1-1.2c0.1-0.5,0.5-0.9,1-1c0.5,0,2.5,0.2,5.6,0.5   c0.6,0,1.1,0.5,1,1.1S395.4,128.8,394.8,128.8L394.8,128.8L394.8,128.8z"
       id="path63" /></g><g
     id="document_1"><linearGradient
       id="SVGID_00000047742379798243060300000016340595706712853168_"
       gradientUnits="userSpaceOnUse"
       x1="174.0012"
       y1="407.6396"
       x2="142.3312"
       y2="309.9496"
       gradientTransform="matrix(1 0 0 -1 0 502)"><stop
         offset="0"
         style="stop-color: rgb(10, 107, 91);"
         id="stop63" /><stop
         offset="0.78"
         style="stop-color: rgb(0, 81, 70);"
         id="stop64" /><stop
         offset="0.91"
         style="stop-color: rgb(0, 80, 69);"
         id="stop65" /></linearGradient><path
       d="M171.4,209.4c0,0,25.6-42.6,5.1-76.1   l-54.7,8.1c0,0,28.6,23.2-1.6,56L171.4,209.4z"
       style="fill:#ffe6d5"
       id="path65" /><path
       class="st18"
       d="M170,193.1c0,0,4.3-49.6-28.8-70.6l-45.6,31.4c0,0,35.9,8.3,23.2,51L170,193.1z"
       id="path66"
       style="fill:#ffb380" /><path
       class="st1"
       d="M114.2,157.1c-0.4,0-0.8-0.2-0.9-0.6c-0.3-0.5-0.1-1.2,0.4-1.5l26.8-15.1c0.5-0.3,1.2-0.1,1.5,0.4   s0.1,1.2-0.4,1.5l-26.8,15.1C114.6,157,114.4,157.1,114.2,157.1z"
       id="path67" /><path
       class="st1"
       d="M120.2,164.3c-0.6,0-1.1-0.6-1-1.2c0-0.3,0.2-0.6,0.5-0.8l23.1-13.6c0.5-0.3,1.2-0.1,1.5,0.4   c0.3,0.5,0.1,1.2-0.4,1.5l0,0l-23,13.6C120.6,164.3,120.4,164.3,120.2,164.3z"
       id="path68" /><path
       class="st1"
       d="M126.3,174.9c-0.6,0-1.1-0.5-1.1-1.1c0-0.5,0.3-0.9,0.7-1l22.3-7.7c0.6-0.2,1.2,0.1,1.4,0.7   c0.2,0.6-0.1,1.2-0.7,1.4l0,0l-22.3,7.7C126.6,174.9,126.5,174.9,126.3,174.9z"
       id="path69" /><path
       class="st1"
       d="M127.3,180.6c-0.6,0-1.1-0.5-1.1-1.1c0-0.5,0.4-1,0.9-1.1l22.6-4.7c0.6-0.1,1.2,0.3,1.3,0.8   c0.1,0.6-0.3,1.2-0.9,1.3l0,0l-22.6,4.7C127.5,180.6,127.4,180.6,127.3,180.6z"
       id="path70" /><path
       class="st1"
       d="M146.1,258.8H146h-0.4c-0.6-0.1-1-0.5-1-1.1v-0.1c0-0.6,0.6-1,1.2-1h0.3h0.1c0.3,0,0.6,0.2,0.8,0.4   c0.4,0.5,0.4,1.1-0.1,1.5C146.6,258.7,146.3,258.8,146.1,258.8L146.1,258.8z M139.1,258.1H139c-1.8-0.2-3.7-0.4-5.5-0.6   c-0.5-0.1-0.9-0.5-0.9-1.1v-0.1c0.1-0.6,0.6-1.1,1.2-1c0,0,0,0,0,0c1.8,0.2,3.6,0.4,5.4,0.6c0.6,0,1.1,0.5,1,1.1   S139.7,258.1,139.1,258.1L139.1,258.1L139.1,258.1z M127.1,256.6H127c-1.8-0.3-3.6-0.5-5.4-0.8c-0.5-0.1-0.9-0.5-0.9-1.1   c0-0.1,0-0.1,0-0.2c0.1-0.6,0.6-1,1.2-0.9c1.7,0.3,3.5,0.6,5.4,0.8c0.6,0.1,1,0.6,0.9,1.2C128.2,256.3,127.7,256.7,127.1,256.6   L127.1,256.6z M115.2,254.6H115c-2-0.4-3.7-0.7-5.4-1.1l0,0c-0.5-0.1-0.9-0.6-0.9-1.1c0-0.1,0-0.1,0-0.2c0.1-0.6,0.7-1,1.3-0.9   c1.6,0.3,3.3,0.7,5.3,1.1c0.3,0,0.5,0.2,0.7,0.4c0.3,0.5,0.2,1.2-0.3,1.5C115.7,254.6,115.5,254.6,115.2,254.6L115.2,254.6z    M103.5,252.1c-0.1,0-0.2,0-0.2,0c-1.9-0.5-3.7-0.9-5.3-1.4c-0.5-0.1-0.8-0.6-0.8-1.1c0-0.1,0-0.2,0-0.3c0.2-0.6,0.8-0.9,1.3-0.8   c1.7,0.5,3.5,0.9,5.3,1.3c0.6,0.2,0.9,0.8,0.8,1.4C104.3,251.8,103.9,252.2,103.5,252.1L103.5,252.1z M91.9,249   c-0.1,0-0.2,0-0.3-0.1c-1.8-0.6-3.6-1.1-5.2-1.7c-0.4-0.2-0.7-0.5-0.7-1c0-0.1,0-0.2,0.1-0.4c0.2-0.6,0.8-0.9,1.4-0.7   c1.6,0.6,3.4,1.1,5.2,1.7c0.6,0.2,0.9,0.8,0.7,1.4C92.8,248.7,92.4,249,91.9,249z M80.5,245c-0.1,0-0.3,0-0.4-0.1   c-1.8-0.7-3.5-1.5-5.1-2.2c-0.4-0.2-0.6-0.6-0.6-1c0-0.2,0-0.3,0.1-0.5c0.3-0.5,0.9-0.8,1.4-0.5c1.6,0.7,3.3,1.5,5,2.1   c0.3,0.1,0.5,0.3,0.6,0.6c0.1,0.3,0.1,0.6,0,0.8C81.4,244.7,81,245,80.5,245z M69.7,239.8c-0.2,0-0.4,0-0.5-0.1   c-1.7-0.9-3.2-1.9-4.7-3c-0.3-0.2-0.5-0.6-0.5-0.9c0-0.2,0.1-0.4,0.2-0.6c0.4-0.5,1-0.6,1.5-0.3c1.4,1,2.9,1.9,4.5,2.9   c0.5,0.3,0.6,1,0.3,1.5C70.4,239.5,70,239.7,69.7,239.8L69.7,239.8z M60,232.8c-0.3,0-0.5-0.1-0.7-0.3c-1.4-1.3-2.6-2.7-3.8-4.2   l0,0c-0.1-0.2-0.2-0.4-0.2-0.7c0-0.3,0.2-0.7,0.4-0.9c0.5-0.4,1.2-0.3,1.5,0.2c1.1,1.4,2.2,2.7,3.5,3.9c0.2,0.2,0.3,0.5,0.3,0.8   c0,0.3-0.1,0.6-0.3,0.8C60.6,232.7,60.3,232.8,60,232.8L60,232.8z M53.1,223.1c-0.4,0-0.8-0.3-1-0.7c-0.7-1.8-1.2-3.6-1.4-5.5   c0,0,0-0.1,0-0.1c0-0.6,0.4-1,1-1.1c0.6-0.1,1.1,0.4,1.2,0.9c0.2,1.7,0.6,3.4,1.3,5c0.1,0.3,0.1,0.6,0,0.8   c-0.1,0.3-0.3,0.5-0.6,0.6C53.4,223.1,53.3,223.1,53.1,223.1L53.1,223.1z M51.6,211.3L51.6,211.3c-0.7,0-1.1-0.6-1.1-1.2   c0.1-1.9,0.4-3.7,0.9-5.6c0.2-0.6,0.7-0.9,1.3-0.8c0.5,0.1,0.8,0.5,0.8,1c0,0.1,0,0.2,0,0.3c-0.4,1.7-0.7,3.4-0.8,5.2   C52.7,210.9,52.2,211.4,51.6,211.3C51.6,211.4,51.6,211.4,51.6,211.3L51.6,211.3z M54.6,199.8c-0.2,0-0.3,0-0.5-0.1   c-0.5-0.3-0.8-0.9-0.5-1.4c0.8-1.7,1.7-3.3,2.8-4.9c0.4-0.5,1-0.6,1.5-0.3c0.3,0.2,0.5,0.5,0.5,0.9c0,0.2-0.1,0.4-0.2,0.6   c-1,1.5-1.9,3-2.6,4.6C55.4,199.6,55.1,199.8,54.6,199.8L54.6,199.8z M61.4,190c-0.3,0-0.5-0.1-0.7-0.3c-0.4-0.4-0.5-1.1-0.1-1.6   c1.3-1.4,2.6-2.7,4-3.9l0,0c0.5-0.4,1.1-0.3,1.6,0.1c0.2,0.2,0.3,0.5,0.3,0.7c0,0.3-0.1,0.6-0.4,0.8c-1.3,1.2-2.6,2.4-3.8,3.7   C62,189.9,61.7,190,61.4,190z M70.5,182.2c-0.6,0-1.1-0.5-1.1-1.1c0-0.1,0-0.1,0-0.2c0.1-0.3,0.2-0.5,0.4-0.7c1.4-1,3-2,4.7-3   c0.5-0.3,1.2-0.1,1.5,0.4c0.1,0.2,0.1,0.4,0.2,0.6c0,0.4-0.2,0.7-0.5,0.9c-1.6,0.9-3.1,1.9-4.5,2.9   C70.9,182.1,70.7,182.2,70.5,182.2L70.5,182.2z M80.8,176c-0.4,0-0.8-0.2-1-0.6c-0.1-0.3-0.2-0.6-0.1-0.8c0.1-0.3,0.3-0.5,0.6-0.6   c1.6-0.8,3.3-1.6,5-2.3c0.6-0.2,1.2,0,1.4,0.6c0.1,0.1,0.1,0.3,0.1,0.4c0,0.4-0.3,0.8-0.7,1c-1.7,0.7-3.3,1.5-4.9,2.3   C81.1,176,81,176,80.8,176z M91.9,171.3c-0.5,0-0.8-0.3-1-0.7c-0.1-0.3-0.1-0.6,0-0.8c0.1-0.3,0.4-0.5,0.6-0.6   c3.2-1.1,5.3-1.7,5.3-1.7l0,0c0.6-0.2,1.2,0.2,1.3,0.8c0,0,0,0,0,0c0.1,0.3,0,0.6-0.1,0.8c-0.1,0.3-0.4,0.4-0.7,0.5l0,0   c-0.5,0.1-2.4,0.7-5.1,1.6C92.1,171.3,92,171.3,91.9,171.3L91.9,171.3z"
       id="path71" /></g><g
     id="paper_plane_2"><g
       id="paper_plane"><polygon
         class="st1"
         points="39.2,153 51.7,163.5 72.8,101   "
         id="polygon71" /><linearGradient
         id="SVGID_00000041983401841205702260000015469945198904014517_"
         gradientUnits="userSpaceOnUse"
         x1="25.68"
         y1="375.02"
         x2="72.78"
         y2="375.02"
         gradientTransform="matrix(1 0 0 -1 0 502)"><stop
           offset="0"
           style="stop-color: rgb(243, 131, 116);"
           id="stop71" /><stop
           offset="1"
           style="stop-color: rgb(198, 66, 52);"
           id="stop72" /></linearGradient><polygon
         points="25.7,149.4 72.8,101 39.2,153       "
         style="fill:#ff8080"
         id="polygon72" /><linearGradient
         id="SVGID_00000129888693883795627410000006452917226798468262_"
         gradientUnits="userSpaceOnUse"
         x1="-11034.1797"
         y1="-6040.9404"
         x2="-11021.5498"
         y2="-6025.6904"
         gradientTransform="matrix(0.61 -0.79 -0.79 -0.61 2002.4901 -12271.2998)"><stop
           offset="0"
           style="stop-color: rgb(10, 107, 91);"
           id="stop73" /><stop
           offset="0.78"
           style="stop-color: rgb(0, 81, 70);"
           id="stop74" /><stop
           offset="0.91"
           style="stop-color: rgb(0, 80, 69);"
           id="stop75" /></linearGradient><polygon
         points="43.9,152.8 51.7,163.5     54.8,156.2   "
         style="fill:#ffb380"
         id="polygon75" /><linearGradient
         id="SVGID_00000096781571865347499510000005046884195777235897_"
         gradientUnits="userSpaceOnUse"
         x1="43.93"
         y1="371.605"
         x2="72.78"
         y2="371.605"
         gradientTransform="matrix(1 0 0 -1 0 502)"><stop
           offset="0"
           style="stop-color: rgb(243, 131, 116);"
           id="stop76" /><stop
           offset="1"
           style="stop-color: rgb(198, 66, 52);"
           id="stop77" /></linearGradient><polygon
         points="43.9,152.8 72.8,101 66.2,159.8       "
         style="fill:#be2727"
         id="polygon77" /></g><path
       class="st1"
       d="M47.2,262c-0.3,0-0.5-0.1-0.7-0.3c-1.4-1.3-2.8-2.5-4-3.8l0,0c-0.2-0.2-0.3-0.5-0.3-0.8c0-0.3,0.1-0.6,0.3-0.8   c0.4-0.4,1.1-0.4,1.5,0c1.3,1.3,2.6,2.5,3.9,3.7c0.2,0.2,0.3,0.5,0.4,0.8c0,0.3-0.1,0.6-0.3,0.8C47.8,261.9,47.5,262,47.2,262z    M38.7,253.5c-0.3,0-0.6-0.1-0.8-0.4c-1.2-1.4-2.4-2.9-3.5-4.3c-0.4-0.5-0.3-1.2,0.2-1.5c0.5-0.4,1.2-0.3,1.5,0.2   c1.1,1.4,2.2,2.8,3.4,4.2c0.4,0.4,0.4,1.1-0.1,1.5C39.3,253.4,39,253.5,38.7,253.5L38.7,253.5z M31.5,243.9c-0.4,0-0.7-0.2-0.9-0.5   c-1-1.6-1.9-3.2-2.8-4.8l0,0c-0.1-0.1-0.1-0.3-0.1-0.5c0-0.6,0.5-1.1,1.1-1.1c0.4,0,0.8,0.2,1,0.6c0.8,1.6,1.7,3.1,2.7,4.6   c0.3,0.5,0.2,1.2-0.3,1.5C31.9,243.8,31.7,243.9,31.5,243.9L31.5,243.9z M26,233.2c-0.4,0-0.8-0.3-1-0.7c-0.7-1.7-1.3-3.5-1.9-5.2   c0-0.1,0-0.2,0-0.3c0-0.5,0.3-0.9,0.8-1.1c0.6-0.2,1.2,0.2,1.4,0.7c0.5,1.7,1.1,3.4,1.8,5.1c0.2,0.6,0,1.2-0.6,1.4c0,0,0,0,0,0   C26.3,233.2,26.2,233.2,26,233.2z M22.5,221.7c-0.5,0-1-0.4-1.1-0.9c-0.4-1.8-0.7-3.6-0.9-5.5c0,0,0-0.1,0-0.1   c0-0.6,0.5-1.1,1.1-1.1c0.5,0,1,0.4,1.1,0.9l0,0c0,0,0,0,0,0.1c0.2,1.8,0.5,3.5,0.8,5.2c0.1,0.3,0,0.6-0.1,0.8   c-0.2,0.2-0.4,0.4-0.7,0.5L22.5,221.7z M21.2,209.8L21.2,209.8c-0.6,0-1.1-0.5-1.1-1.1v-1c0-1.5,0-3,0.1-4.5c0-0.6,0.5-1,1.1-1   c0,0,0,0,0,0c0.6,0,1,0.5,1,1.1v0.1c-0.1,1.5-0.1,3-0.1,4.4v1C22.3,209.3,21.9,209.8,21.2,209.8C21.3,209.9,21.3,209.9,21.2,209.8   L21.2,209.8z M22.1,197.8h-0.2c-0.3,0-0.5-0.2-0.7-0.4c-0.2-0.2-0.2-0.5-0.2-0.8c0.3-1.8,0.7-3.7,1.1-5.4c0.1-0.6,0.7-0.9,1.3-0.8   c0.5,0.1,0.8,0.6,0.8,1.1c0,0.1,0,0.2,0,0.3c-0.4,1.7-0.8,3.5-1.1,5.3C23.1,197.5,22.7,197.9,22.1,197.8L22.1,197.8z M25.1,186.2   c-0.1,0-0.2,0-0.4-0.1c-0.3-0.1-0.5-0.3-0.6-0.6c-0.1-0.3-0.1-0.6,0-0.8c0.6-1.8,1.3-3.5,2.2-5.2l0,0c0.3-0.5,1-0.6,1.5-0.3   c0.4,0.3,0.6,0.8,0.4,1.3l0,0l0,0c-0.8,1.6-1.4,3.2-2,4.9C26,185.9,25.6,186.2,25.1,186.2L25.1,186.2z"
       id="path77" /></g><g
     id="paper_plane_1"><g
       id="paper_plane-2"><polygon
         class="st1"
         points="476.2,286.9 462.7,296.1 448,231.8   "
         id="polygon78" /><polygon
         class="st18"
         points="490,284.7 448,231.8 476.2,286.9   "
         id="polygon79"
         style="fill:#ffb380" /><linearGradient
         id="SVGID_00000080170130230683146860000007017943698239467166_"
         gradientUnits="userSpaceOnUse"
         x1="-11743.9121"
         y1="-5259.4067"
         x2="-11731.2812"
         y2="-5244.167"
         gradientTransform="matrix(-0.52 -0.85 0.85 -0.52 -1167.03 -12439.7002)"><stop
           offset="0"
           style="stop-color: rgb(243, 131, 116);"
           id="stop79" /><stop
           offset="1"
           style="stop-color: rgb(198, 66, 52);"
           id="stop80" /></linearGradient><polygon
         points="471.5,286.2 462.7,296.1     460.4,288.5   "
         style="fill: url(&quot;#SVGID_00000080170130230683146860000007017943698239467166_&quot;);"
         id="polygon80" /><polygon
         class="st18"
         points="471.5,286.2 448,231.8 448.6,291   "
         id="polygon81"
         style="fill:#ffb380" /></g><path
       class="st1"
       d="M419.6,327.6L419.6,327.6c-0.6,0-1.1-0.5-1.1-1.1c0-0.3,0.1-0.6,0.3-0.8c0.2-0.2,0.5-0.3,0.8-0.3   c1.8,0,3.6-0.2,5.3-0.3c0.6-0.1,1.1,0.4,1.2,0.9c0,0,0,0,0,0.1v0.1c0,0.6-0.4,1-1,1.1C423.3,327.5,421.4,327.7,419.6,327.6   L419.6,327.6z M431.5,326.2c-0.5,0-1-0.3-1.1-0.8c-0.1-0.3,0-0.6,0.1-0.8c0.2-0.2,0.4-0.4,0.7-0.5c1.8-0.4,3.5-0.9,5.1-1.5l0,0   c0.6-0.2,1.2,0.1,1.4,0.7c0,0.1,0.1,0.2,0.1,0.4c0,0.4-0.3,0.8-0.7,1l0,0H437c-1.7,0.6-3.5,1.1-5.3,1.5L431.5,326.2z M442.7,322.2   c-0.4,0-0.8-0.2-1-0.6c-0.1-0.3-0.1-0.6,0-0.8c0.1-0.3,0.3-0.5,0.5-0.6c1.6-0.8,3.1-1.7,4.6-2.6c0.5-0.3,1.2-0.2,1.5,0.3   c0.3,0.5,0.2,1.2-0.3,1.5c-1.6,1-3.2,1.9-4.9,2.8C443.1,322.2,442.9,322.2,442.7,322.2L442.7,322.2z M452.7,315.6   c-0.6,0-1.1-0.5-1.1-1.1c0,0,0-0.1,0-0.1c0-0.3,0.2-0.6,0.4-0.8c1.4-1.2,2.7-2.4,3.9-3.7c0.4-0.4,1.1-0.4,1.5,0   c0.2,0.2,0.3,0.5,0.3,0.8c0,0.3-0.1,0.6-0.3,0.8c-1.3,1.3-2.6,2.6-4,3.8C453.3,315.5,453,315.6,452.7,315.6L452.7,315.6z    M460.9,306.8c-0.2,0-0.5-0.1-0.6-0.2c-0.2-0.2-0.4-0.4-0.4-0.7c0-0.3,0-0.6,0.2-0.8c1-1.4,1.7-2.5,2.1-3.3s0.6-1.2,0.6-1.2l0,0   c0.3-0.5,0.9-0.7,1.4-0.5c0.5,0.3,0.8,0.9,0.5,1.4c0,0,0,0,0,0c-0.9,1.7-1.9,3.3-3,4.8C461.6,306.6,461.2,306.8,460.9,306.8   L460.9,306.8z"
       id="path81" /></g><g
     id="light"><path
       class="st18"
       d="M294.1,145.6c-8.6,0.6-15.6,7.4-16.4,16c-0.9-8.6-7.8-15.4-16.5-16c8.6-0.7,15.5-7.4,16.4-16   C278.5,138.2,285.4,144.9,294.1,145.6z"
       id="path82"
       style="fill:#ffb380" /><path
       class="st18"
       d="M305.6,125.8c-4.6,0.3-8.3,4-8.8,8.6c-0.5-4.6-4.2-8.2-8.8-8.6c4.6-0.3,8.3-4,8.8-8.6   c0.2,2.2,1.2,4.2,2.8,5.8C301.1,124.7,303.3,125.6,305.6,125.8z"
       id="path83"
       style="fill:#ffb380" /><path
       class="st18"
       d="M27.6,166.1c-4.6,0.3-8.3,4-8.8,8.6c-0.2-2.2-1.2-4.2-2.8-5.8c-1.6-1.6-3.8-2.6-6-2.8c4.6-0.3,8.3-4,8.8-8.6   C19.3,162.2,23,165.8,27.6,166.1z"
       id="path84"
       style="fill:#ffb380" /><path
       class="st18"
       d="M455.9,348.5c-4.6,0.3-8.3,4-8.8,8.6c-0.5-4.6-4.2-8.2-8.8-8.6c4.6-0.3,8.3-4,8.8-8.6   C447.5,344.6,451.2,348.2,455.9,348.5z"
       id="path85"
       style="fill:#ffb380" /><path
       class="st18"
       d="M63,286.7c-2.3,0.2-4.4,1.1-6,2.8c-1.6,1.6-2.5,3.6-2.8,5.8c-0.5-4.6-4.2-8.2-8.8-8.6c4.6-0.3,8.3-4,8.8-8.6   C54.7,282.7,58.4,286.3,63,286.7z"
       id="path86"
       style="fill:#ffb380" /></g></svg>
