<?xml version="1.0" encoding="UTF-8" standalone="no"?>
<svg
   transform="scale(1)"
   id="_0040_documents_2"
   data-name="0040_documents_2"
   viewBox="0 0 500 500"
   class="show_show__wrapper__graphic__5Waiy "
   version="1.1"
   sodipodi:docname="Documents 2 (1).svg"
   inkscape:version="1.3.2 (091e20e, 2023-11-25)"
   xmlns:inkscape="http://www.inkscape.org/namespaces/inkscape"
   xmlns:sodipodi="http://sodipodi.sourceforge.net/DTD/sodipodi-0.dtd"
   xmlns:xlink="http://www.w3.org/1999/xlink"
   xmlns="http://www.w3.org/2000/svg"
   xmlns:svg="http://www.w3.org/2000/svg">
  <sodipodi:namedview
     id="namedview31"
     pagecolor="#505050"
     bordercolor="#eeeeee"
     borderopacity="1"
     inkscape:showpageshadow="0"
     inkscape:pageopacity="0"
     inkscape:pagecheckerboard="0"
     inkscape:deskcolor="#505050"
     inkscape:zoom="0.944"
     inkscape:cx="200.74153"
     inkscape:cy="242.58475"
     inkscape:window-width="1440"
     inkscape:window-height="847"
     inkscape:window-x="0"
     inkscape:window-y="25"
     inkscape:window-maximized="0"
     inkscape:current-layer="front-map" />
  <title
     id="title1">React</title>
  <defs
     id="defs5">
    <style
       id="style1">.cls-1{fill:#000111;}.cls-2{fill:#fff;}.cls-3{fill:url(#linear-gradient);}.cls-4{fill:#fed490;}.cls-5{fill:#fef1e0;}.cls-6{fill:url(#linear-gradient-2);}.cls-7{fill:url(#linear-gradient-3);}.cls-8{fill:url(#linear-gradient-4);}.cls-9{fill:url(#linear-gradient-5);}.cls-10{fill:url(#linear-gradient-6);}.cls-11{fill:url(#linear-gradient-7);}.cls-12{fill:url(#linear-gradient-8);}</style>
    <linearGradient
       id="linear-gradient"
       x1="105.22"
       y1="159.56"
       x2="189.25"
       y2="406.2"
       gradientTransform="matrix(1, 0, 0.4, 1, -86.91, 0)"
       gradientUnits="userSpaceOnUse">
      <stop
         offset="0"
         stop-color="#0a6b5b"
         id="stop1" />
      <stop
         offset="0.78"
         stop-color="#005146"
         id="stop2" />
      <stop
         offset="0.91"
         stop-color="#005045"
         id="stop3" />
    </linearGradient>
    <linearGradient
       id="linear-gradient-2"
       x1="119.47"
       y1="351.38"
       x2="192.13"
       y2="351.38"
       gradientTransform="translate(174.58 498.29) rotate(-173.57)"
       gradientUnits="userSpaceOnUse">
      <stop
         offset="0"
         stop-color="#f38374"
         id="stop4" />
      <stop
         offset="1"
         stop-color="#c64234"
         id="stop5" />
    </linearGradient>
    <linearGradient
       id="linear-gradient-3"
       x1="410.3"
       y1="176.92"
       x2="476.58"
       y2="176.92"
       gradientTransform="matrix(0.82, 0.57, -0.57, 0.82, 141.55, -202.97)"
       xlink:href="#linear-gradient-2" />
    <linearGradient
       id="linear-gradient-4"
       x1="161.73"
       y1="213.94"
       x2="263.86"
       y2="396.19"
       gradientTransform="matrix(1, 0, 0, 1, 0, 0)"
       xlink:href="#linear-gradient-2" />
    <linearGradient
       id="linear-gradient-5"
       x1="268.03"
       y1="306.85"
       x2="193.01"
       y2="392.65"
       gradientTransform="matrix(1, 0, 0, 1, 0, 0)"
       xlink:href="#linear-gradient-2" />
    <linearGradient
       id="linear-gradient-6"
       x1="295.28"
       y1="330.67"
       x2="220.26"
       y2="416.47"
       gradientTransform="matrix(1, 0, 0, 1, 0, 0)"
       xlink:href="#linear-gradient-2" />
    <linearGradient
       id="linear-gradient-7"
       x1="264.94"
       y1="318.72"
       x2="189.92"
       y2="404.52"
       gradientTransform="matrix(1, 0, 0, 1, 0, 0)"
       xlink:href="#linear-gradient-2" />
    <linearGradient
       id="linear-gradient-8"
       x1="292.19"
       y1="342.54"
       x2="217.18"
       y2="428.34"
       gradientTransform="matrix(1, 0, 0, 1, 0, 0)"
       xlink:href="#linear-gradient-2" />
  </defs>
  <path
     class="cls-1"
     id="behind-map"
     d="M41.13,298.6,52,283.27h95.76l5.9,15.33,78.95,0h4.22l.46,8.26,3.44,62.22c1.65,29.74,23.07,50.63,54.21,51.48.76,0,1.53,0,2.3,0H85.31c-37.9,0-64.15-25.09-64.33-61.51l-.31-60.5Z" />
  <g
     id="paper-5">
    <polygon
       class="cls-2"
       points="280.17 419.33 78.83 419.33 38.11 226.43 239.46 226.43 280.17 419.33"
       id="polygon5"
       style="fill:#fef1e0;fill-opacity:1" />
    <path
       class="cls-1"
       d="M280.17,420.52H78.83a1.18,1.18,0,0,1-1.16-.94L37,226.68a1.2,1.2,0,0,1,.24-1,1.19,1.19,0,0,1,.92-.43H239.45a1.18,1.18,0,0,1,1.16.93l40.72,192.91a1.15,1.15,0,0,1-.24,1A1.17,1.17,0,0,1,280.17,420.52ZM79.79,418.15H278.71L238.49,227.61H39.57Z"
       id="path5" />
    <path
       class="cls-1"
       d="M83.42,396.82a1.19,1.19,0,0,1-1.16-.95L48.17,227.71a1.18,1.18,0,1,1,2.32-.47L84.58,395.4a1.19,1.19,0,0,1-.93,1.4A.9.9,0,0,1,83.42,396.82Z"
       id="path6" />
  </g>
  <g
     id="paper-5-2"
     data-name="paper-5">
    <polygon
       class="cls-3"
       points="280.17 420.61 78.83 420.61 117.22 215.28 318.56 215.28 280.17 420.61"
       id="polygon6"
       style="fill:#ff8080" />
    <path
       class="cls-1"
       d="M96.84,387.93h-.21a1.2,1.2,0,0,1-1-1.38L124.44,225.7a1.18,1.18,0,0,1,1.17-1h35.92a1.19,1.19,0,0,1,0,2.37H126.6L98,387A1.18,1.18,0,0,1,96.84,387.93Z"
       id="path7" />
  </g>
  <g
     id="paper-4">
    <path
       class="cls-4"
       d="M10,151.36,67.7,79.07s39,18.73,41,61c1.55,31.79,23.11,46.41,23.11,46.41L63.68,260.18S31.4,237.75,40.57,200.87C48.78,167.88,22.24,154.48,10,151.36Z"
       id="path8"
       style="fill:#fef1e0;fill-opacity:1" />
    <path
       class="cls-5"
       d="M122.18,186.06,62.4,250.88S40,241.51,44.3,209l57.39-60.11S108.61,177.68,122.18,186.06Z"
       id="path9"
       style="fill:#be2727" />
    <path
       class="cls-5"
       d="M100.33,143.28,45.71,199.15s2.15-14.12-.15-18.25l53.85-56.33S103.12,138.18,100.33,143.28Z"
       id="path10"
       style="fill:#be2727" />
    <path
       class="cls-6"
       d="M97,120.19S88.32,95.11,70.62,89.28L20.72,148s18.71,9,22.59,25.56Z"
       id="path11"
       style="fill:#800000" />
  </g>
  <g
     id="paper-3">
    <path
       class="cls-5"
       d="M453.1,200.54l-77.59,33.09s-23.18-31.88-6.57-66.7c12.51-26.21,1.51-47.27,1.51-47.27l86.61-29.73s16.22,32-7.1,57.63C429.11,170.5,444.62,192.73,453.1,200.54Z"
       id="path12" />
    <path
       class="cls-4"
       d="M378,124.15l76-26.19s13.92,17.2-3.58,41.45l-72.08,23.45S385.31,136.75,378,124.15Z"
       id="path13"
       style="fill:#be2727" />
    <path
       class="cls-4"
       d="M377.07,168l68-21.24s-7.82,10.41-7.76,14.71l-67.61,21.95S372.63,170.85,377.07,168Z"
       id="path14"
       style="fill:#be2727" />
    <path
       class="cls-7"
       d="M369.77,188s-3.88,23.89,7.81,36.22l65.47-25.59S431.9,183.3,436,168.29Z"
       id="path15"
       style="fill:#800000" />
  </g>
  <g
     id="paper-2">
    <polygon
       class="cls-8"
       points="284.45 420.61 83.11 420.61 161.53 225.91 362.87 225.91 284.45 420.61"
       id="polygon15" />
    <path
       class="cls-1"
       d="M103.74,395.73a1.07,1.07,0,0,1-.39-.07,1.16,1.16,0,0,1-.73-1.48c.48-1.45,62.13-141.13,69.16-157a1.18,1.18,0,0,1,1.08-.71H350.45a1.19,1.19,0,1,1,0,2.37H173.63c-5,11.37-67.88,153.82-68.77,156.17A1.21,1.21,0,0,1,103.74,395.73Z"
       id="path16" />
  </g>
  <g
     id="paper-1">
    <polygon
       class="cls-5"
       points="291.25 420.61 89.91 420.61 205.36 242.81 406.71 242.81 291.25 420.61"
       id="polygon16"
       style="fill:#fef1e0;fill-opacity:1" />
    <path
       class="cls-1"
       d="M187.35,299.4a1.12,1.12,0,0,1-.67-.22,1.19,1.19,0,0,1-.3-1.65l30-42.85a1.19,1.19,0,0,1,1-.5H398.1a1.19,1.19,0,0,1,0,2.37H218l-29.67,42.34A1.21,1.21,0,0,1,187.35,299.4Z"
       id="path17" />
  </g>
  <g
     id="light"
     style="fill:#ff8080">
    <path
       class="cls-4"
       d="M490,362.76a17.85,17.85,0,0,0-16.45,16,17.85,17.85,0,0,0-16.45-16,17.85,17.85,0,0,0,16.45-16,17.85,17.85,0,0,0,16.45,16Z"
       id="path18"
       style="fill:#ff8080" />
    <path
       class="cls-4"
       d="M456.8,349A9.55,9.55,0,0,0,448,357.6a9.55,9.55,0,0,0-8.8-8.57,9.55,9.55,0,0,0,8.8-8.57A9.55,9.55,0,0,0,456.8,349Z"
       id="path19"
       style="fill:#ff8080" />
    <path
       class="cls-4"
       d="M161.17,187.35a9.55,9.55,0,0,0-8.8,8.57,9.55,9.55,0,0,0-8.81-8.57,9.57,9.57,0,0,0,8.81-8.57,9.57,9.57,0,0,0,8.8,8.57Z"
       id="path20"
       style="fill:#ff8080" />
  </g>
  <g
     id="line">
    <path
       class="cls-1"
       d="M360.86,421.74H28.22a1.19,1.19,0,1,1,0-2.37H360.14c3.22-6.18,27-50.3,47.7-50.3,4,0,6.79,1.74,8,5,15.76-10.56,30.15-10.86,38.76-7.33a1.18,1.18,0,1,1-.9,2.19c-12-4.93-26.87.61-37.26,7.62,0,.37.07.75.09,1.15.49,10.59-10.7,30.95-17.35,31.56-1.27.12-3.51-.34-4.11-4.69-1.12-8.15,5.26-18.7,16.66-27.53.7-.54,1.39-1.06,2.08-1.56-.76-2.7-2.74-4-6-4-20.37,0-45.67,49.16-45.93,49.66A1.19,1.19,0,0,1,360.86,421.74Zm53.33-43.61-1,.76c-10.57,8.19-16.75,18.13-15.76,25.34.25,1.83.77,2.72,1.54,2.65C403.57,406.45,414.42,388.83,414.19,378.13Z"
       id="path21" />
    <path
       class="cls-1"
       d="M334,215.38a1.18,1.18,0,0,1-.42-2.29c3.24-1.23,5.39-3.28,6.2-5.83a22.15,22.15,0,0,1-7.5-4.18c-3.34-2.71-7.79-7.79-6.35-10.65.47-.94,1.68-1.9,4.74-1.1,6.63,1.7,11.49,7,11.82,13a9.91,9.91,0,0,1,0,1.09,6.6,6.6,0,0,0,4.92-1.33,5.58,5.58,0,0,0,2.23-5c-.52-7.64-12.71-18.42-14.27-19.35a1.19,1.19,0,0,1,1.21-2c1.13.68,14.8,12.09,15.42,21.24a7.86,7.86,0,0,1-3.11,7,8.92,8.92,0,0,1-6.77,1.84c-.94,3.35-3.62,6-7.7,7.56A1,1,0,0,1,334,215.38Zm-5.37-22a1.17,1.17,0,0,0-.59.1c-.31.56,1.14,3.84,5.26,7.35a21.27,21.27,0,0,0,6.83,4c0-.14,0-.29,0-.44-.27-4.84-4.49-9.38-10-10.81A6,6,0,0,0,328.59,193.4Z"
       id="path22" />
    <path
       class="cls-1"
       d="M137.15,153.38c-5.36,0-8-2.73-9.21-5.25a12.75,12.75,0,0,1-1.09-3.38,15.08,15.08,0,0,1-2.3,1c-2.8.93-4.47.06-5.37-.83-5.36-5.34,1.78-27.8,2.61-30.34a1.18,1.18,0,1,1,2.25.74c-3,9.07-6.45,24.67-3.19,27.92.23.23.94.93,3,.26a12.58,12.58,0,0,0,2.8-1.39c-.17-7.21,3.64-16,8.45-20.45,1.25-1.17,3.1-2.63,4.65-1.9.66.31,1.43,1.11,1.31,3.15-.29,5-5.24,15.26-12,20.37a10.83,10.83,0,0,0,1,3.77c1.65,3.31,5,4.54,10,3.66a1.19,1.19,0,0,1,.41,2.34A19.55,19.55,0,0,1,137.15,153.38ZM138.62,122a6.33,6.33,0,0,0-2,1.41c-4.29,4-7.21,11-7.63,16.81a35.85,35.85,0,0,0,8.56-13.2C138.62,124.22,138.74,122.58,138.62,122Z"
       id="path23" />
  </g>
  <g
     id="front-map">
    <path
       class="cls-4"
       d="M368.91,298.6l-6.51-15.33H266.64L256.42,298.6l-79,0h-4.22l-2.79,8.26-21,62.22c-10,29.74-37.35,50.63-68.73,51.48-.77,0-1.53,0-2.31,0H290.31A85,85,0,0,0,372,359.1l17.37-60.5Z"
       id="path24"
       style="fill:#ffccaa" />
    <path
       class="cls-1"
       d="M122.79,422.12a1.19,1.19,0,0,1-.3-2.34c.27-.07,27.17-7.4,35.4-33.68l21.43-69.84a8,8,0,0,1,7.7-5.69H363.53A8,8,0,0,1,371.24,321L355,374.73c-.3,1.1-7.81,27.59-25.88,36.91a1.19,1.19,0,0,1-1.08-2.11c17.14-8.84,24.61-35.19,24.68-35.46L369,320.27a5.68,5.68,0,0,0-5.44-7.33H187a5.64,5.64,0,0,0-5.43,4L160.16,386.8c-8.63,27.56-36.79,35.2-37.08,35.28A1.45,1.45,0,0,1,122.79,422.12Z"
       id="path25" />
    <path
       class="cls-1"
       d="M360.44,299.78h-104a1.18,1.18,0,1,1,0-2.36h104a1.18,1.18,0,0,1,0,2.36Z"
       id="path26" />
    <polygon
       class="cls-2"
       points="257.88 350.72 190.54 350.72 197.21 326.53 264.54 326.53 257.88 350.72"
       id="polygon26"
       style="fill:#be2727" />
    <polygon
       class="cls-2"
       points="281.53 350.72 263.06 350.72 269.72 326.53 288.19 326.53 281.53 350.72"
       id="polygon27"
       style="fill:#be2727" />
    <polygon
       class="cls-9"
       points="255.05 362.12 187.72 362.12 189.38 356.37 256.71 356.37 255.05 362.12"
       id="polygon28"
       style="fill:#be2727" />
    <polygon
       class="cls-10"
       points="278.7 362.12 260.23 362.12 261.89 356.37 280.36 356.37 278.7 362.12"
       id="polygon29"
       style="fill:#be2727" />
    <polygon
       class="cls-11"
       points="251.96 374 184.63 374 186.29 368.24 253.62 368.24 251.96 374"
       id="polygon30"
       style="fill:#be2727" />
    <polygon
       class="cls-12"
       points="275.62 374 257.14 374 258.8 368.24 277.27 368.24 275.62 374"
       id="polygon31"
       style="fill:#be2727" />
  </g>
</svg>
