<?xml version="1.0" encoding="UTF-8" standalone="no"?>
<svg
   transform="scale(1)"
   version="1.1"
   id="Layer_1"
   x="0px"
   y="0px"
   viewBox="0 0 500 500"
   xml:space="preserve"
   class="show_show__wrapper__graphic__5Waiy "
   sodipodi:docname="Loading.svg"
   inkscape:version="1.3.2 (091e20e, 2023-11-25)"
   xmlns:inkscape="http://www.inkscape.org/namespaces/inkscape"
   xmlns:sodipodi="http://sodipodi.sourceforge.net/DTD/sodipodi-0.dtd"
   xmlns="http://www.w3.org/2000/svg"
   xmlns:svg="http://www.w3.org/2000/svg"><defs
     id="defs57"><linearGradient
       id="SVGID_00000080170130230683146860000007017943698239467166_"
       gradientUnits="userSpaceOnUse"
       x1="-11743.912"
       y1="-5259.4067"
       x2="-11731.281"
       y2="-5244.167"
       gradientTransform="matrix(-0.52,-0.85,0.85,-0.52,-1167.03,-12439.7)"><stop
         offset="0"
         style="stop-color: rgb(243, 131, 116);"
         id="stop79" /><stop
         offset="1"
         style="stop-color: rgb(198, 66, 52);"
         id="stop80" /></linearGradient></defs><sodipodi:namedview
     id="namedview57"
     pagecolor="#505050"
     bordercolor="#eeeeee"
     borderopacity="1"
     inkscape:showpageshadow="0"
     inkscape:pageopacity="0"
     inkscape:pagecheckerboard="0"
     inkscape:deskcolor="#505050"
     inkscape:zoom="0.6675088"
     inkscape:cx="256.92545"
     inkscape:cy="140.82211"
     inkscape:window-width="1440"
     inkscape:window-height="847"
     inkscape:window-x="0"
     inkscape:window-y="25"
     inkscape:window-maximized="0"
     inkscape:current-layer="Layer_1" /><title
     id="title1">React</title><style
     type="text/css"
     id="style1">
	.st0{fill:#FFFFFF;}
	.st1{fill:#000111;}
	.st2{fill:url(#SVGID_1_);}
	.st3{fill:url(#SVGID_00000183945211384084003650000012045537993504778908_);}
	.st4{fill:#FFC2A7;}
	.st5{fill:#D88260;}
	.st6{fill:#005045;}
	.st7{fill:url(#SVGID_00000052806929880930267290000016900616747851998132_);}
	.st8{fill:url(#SVGID_00000169526355114347130360000015149971132508614579_);}
	.st9{fill:url(#SVGID_00000044896100210623705630000009607533819670951359_);}
	.st10{fill:url(#SVGID_00000125591049911575720830000010330935478289587635_);}
	.st11{fill:#FED490;}
</style><g
     id="loading"><path
       class="st0"
       d="M56.9,312.9h398.5c18.5,0,33.5,15,33.5,33.5v0c0,18.5-15,33.5-33.5,33.5H56.9c-18.5,0-33.5-15-33.5-33.5v0   C23.4,327.9,38.4,312.9,56.9,312.9z"
       id="path1"
       style="fill:#f9f9f9" /><path
       class="st1"
       d="M455.4,381H56.9c-19.1-0.3-34.3-16.1-34-35.2c0.3-18.6,15.3-33.7,34-34h398.5c19.1,0.3,34.3,16.1,34,35.2   C489.1,365.7,474.1,380.7,455.4,381z M56.9,314c-17.9,0-32.5,14.6-32.5,32.5S39,379,56.9,379h398.5c17.9,0,32.5-14.6,32.5-32.5   S473.4,314,455.4,314H56.9z"
       id="path2" /><linearGradient
       id="SVGID_1_"
       gradientUnits="userSpaceOnUse"
       x1="321.0694"
       y1="264.7108"
       x2="156.2394"
       y2="128.3508"
       gradientTransform="matrix(1 0 0 -1 0 502)"><stop
         offset="0"
         style="stop-color: rgb(243, 131, 116);"
         id="stop2" /><stop
         offset="1"
         style="stop-color: rgb(198, 66, 52);"
         id="stop3" /></linearGradient><path
       class="st2"
       d="M56.9,369.5c-12.8,0-23.1-10.3-23.1-23.1s10.3-23.1,23.1-23.1h264.5c12.8,0,23.1,10.3,23.1,23.1   s-10.3,23.1-23.1,23.1H56.9z"
       id="path3"
       style="fill:#800000" /><path
       class="st1"
       d="M455.4,370.5H56.9c-13.3,0-24.1-10.8-24.1-24.1c0-13.3,10.8-24.1,24.1-24.1h398.5c13.3,0,24.1,10.8,24.1,24.1   C479.6,359.7,468.8,370.5,455.4,370.5z M56.9,324.3c-12.2-0.3-22.3,9.4-22.5,21.6c-0.3,12.2,9.4,22.3,21.6,22.5c0.3,0,0.6,0,0.9,0   h398.5c12.2-0.3,21.8-10.3,21.6-22.5c-0.3-11.8-9.8-21.3-21.6-21.6L56.9,324.3z"
       id="path4" /><path
       class="st0"
       d="M240.4,363.7c-0.6,0-1-0.4-1-1c0-7.2,3.6-14.8,10.4-22c2.4-2.5,4.9-4.8,7.7-6.9h-17.6l1.9,4.8   c0.2,0.5,0,1.1-0.6,1.3c-0.5,0.2-1.1,0-1.3-0.6l-2.5-6.2c-0.2-0.5,0-1.1,0.5-1.3c0.2-0.1,0.4-0.1,0.5-0.1h22.3   c0.5-0.2,1.1,0.1,1.2,0.7c0.2,0.5-0.1,1.1-0.7,1.2c-0.2,0.1-19.9,13-19.9,29.1C241.5,363.2,241,363.7,240.4,363.7   C240.4,363.7,240.4,363.7,240.4,363.7z"
       id="path5" /><path
       class="st0"
       d="M271.9,364c-1.3,0-2.5-0.2-3.7-0.6c-1.9-0.6-3.4-2-4.1-3.8c-1.7-4.1,0.8-9.4,0.9-9.6c0.2-0.5,0.9-0.7,1.4-0.5   c0.5,0.2,0.7,0.9,0.5,1.4c0,0-2.2,4.7-0.9,8c0.5,1.3,1.6,2.3,2.9,2.7c4.3,1.6,10.2-0.6,13.3-4.9c2.7-3.7,2.6-7.9-0.3-11.6   c-5.7-7.3-15.3-1.6-15.7-1.4c-0.3,0.2-0.7,0.2-1,0c-0.3-0.2-0.5-0.5-0.5-0.9v-10c0-0.6,0.4-1,1-1h17.6c0.6,0,1,0.4,1,1v3   c0,0.6-0.5,1-1,1c-0.6,0-1-0.5-1-1v-2h-15.4v7.3c3.4-1.5,11.5-4.1,16.8,2.7c3.5,4.5,3.6,9.6,0.3,14.1   C281.1,361.6,276.7,363.9,271.9,364z"
       id="path6" /><path
       class="st0"
       d="M296,361c-0.2,0-0.4-0.1-0.6-0.2c-0.5-0.3-0.6-1-0.2-1.5l19.4-27.2c0.3-0.5,0.9-0.6,1.4-0.3c0,0,0,0,0.1,0   c0.5,0.3,0.6,0.9,0.3,1.4c0,0,0,0,0,0.1l-19.4,27.2C296.7,360.8,296.3,361,296,361z"
       id="path7" /><path
       class="st0"
       d="M301.5,339.4c-2.6,0-4.6-2.1-4.6-4.6s2.1-4.6,4.6-4.6s4.6,2.1,4.6,4.6S304,339.4,301.5,339.4L301.5,339.4z    M301.5,332.2c-1.4,0-2.6,1.1-2.6,2.5c0,1.4,1.1,2.6,2.5,2.6c1.4,0,2.6-1.1,2.6-2.5c0,0,0,0,0,0C304,333.4,302.9,332.3,301.5,332.2   z"
       id="path8" /><path
       class="st0"
       d="M313.9,360.5c-3.7,0-6.7-3-6.7-6.6c0-3.7,3-6.7,6.6-6.7c3.7,0,6.7,3,6.7,6.6c0,0,0,0,0,0   C320.6,357.5,317.6,360.5,313.9,360.5z M313.9,349.3c-2.5,0-4.6,2-4.6,4.6c0,2.5,2,4.6,4.6,4.6c2.5,0,4.6-2,4.6-4.6c0,0,0,0,0,0   C318.5,351.3,316.4,349.3,313.9,349.3z"
       id="path9" /></g><g
     id="line"><path
       class="st1"
       d="M485,381H11c-0.6,0-1-0.5-1-1c0-0.6,0.5-1,1-1h474c0.6,0,1,0.5,1,1C486,380.5,485.6,381,485,381z"
       id="path57" /></g><g
     id="document_2"
     transform="translate(-26.240181,56.711865)"><linearGradient
       id="SVGID_00000176728128550882704080000006816511508169380506_"
       gradientUnits="userSpaceOnUse"
       x1="435.59171"
       y1="616.26361"
       x2="474.51169"
       y2="616.26361"
       gradientTransform="matrix(0.72,0.69,0.69,-0.72,-422.86,256.45)"><stop
         offset="0"
         style="stop-color: rgb(243, 131, 116);"
         id="stop56" /><stop
         offset="1"
         style="stop-color: rgb(198, 66, 52);"
         id="stop57" /></linearGradient><path
       d="m 311.3,142 c 0,0 21.3,-28.9 21.9,-45 l 28.3,26.7 z"
       style="fill:#ff8080"
       id="path57-7" /><path
       class="st0"
       d="m 366.3,111.2 c 0,0 -49.5,5.1 -63.9,41.6 l 39.4,38.9 c 0,0 1.4,-36.8 45.8,-32.4 z"
       id="path58"
       style="fill:#ffffff" /><path
       class="st1"
       d="m 341.7,192.7 c -0.3,0 -0.6,-0.1 -0.8,-0.3 l -39.4,-38.9 c -0.3,-0.3 -0.4,-0.8 -0.2,-1.2 14.5,-36.7 64.3,-42.2 64.8,-42.2 0.5,-0.1 0.9,0.2 1.1,0.6 l 21.2,48.1 c 0.2,0.4 0.1,0.8 -0.1,1.1 -0.2,0.3 -0.6,0.5 -1,0.4 -14.3,-1.4 -25.5,1.3 -33.3,8.1 -10.6,9.2 -11.3,23 -11.3,23.2 0,0.4 -0.3,0.8 -0.7,1 0,0.1 -0.1,0.1 -0.3,0.1 z m -38,-40.2 37.2,36.8 c 0.6,-4.6 3,-14.8 11.8,-22.4 8,-6.9 19.1,-9.9 33.1,-8.8 l -20.2,-45.7 c -6.3,0.8 -48.6,7.7 -61.9,40.1 z"
       id="path59"
       style="fill:#000111" /><path
       class="st1"
       d="m 361.4,149.8 c -0.5,0 -0.9,-0.3 -1.1,-0.8 -1.2,-4.6 -5.7,-8.8 -10.3,-11 -4.7,2.2 -10.8,3.7 -12.6,2 -0.5,-0.4 -1.1,-1.5 0,-3.3 1.5,-2.2 4.3,-3.2 7.9,-2.6 1.6,0.3 3.2,0.7 4.6,1.4 1,-0.5 2,-1.2 2.9,-1.9 0.6,-0.5 2,-1.7 1.5,-2.6 -1.7,-3.4 -11.5,-4.9 -17.3,-5.1 -0.6,0 -1.1,-0.5 -1.1,-1.1 0,-0.6 0.5,-1.1 1.1,-1.1 v 0 0 c 1.7,0 16.4,0.7 19.2,6.3 0.6,1.2 0.6,3.2 -2.6,5.6 -0.5,0.4 -1,0.7 -1.5,1 4.6,2.6 8.8,6.9 10.1,11.7 0.1,0.6 -0.2,1.2 -0.8,1.3 0.1,0.2 0,0.2 0,0.2 z M 339,138.5 c 0.9,0.4 4.5,-0.2 8.1,-1.6 -0.7,-0.2 -1.4,-0.4 -2.1,-0.5 -1.6,-0.3 -4.4,-0.4 -5.7,1.6 -0.1,0.1 -0.2,0.3 -0.3,0.5 z"
       id="path60"
       style="fill:#000111" /><path
       class="st1"
       d="m 341.8,157.8 c -0.1,0 -0.2,0 -0.3,0 -0.3,-0.1 -0.5,-0.2 -0.6,-0.4 -1,-1 -11.3,-10 -18.1,-15.8 -0.5,-0.4 -0.5,-1.1 -0.1,-1.5 0.4,-0.4 1.1,-0.5 1.5,-0.1 18.9,16.2 18.9,16.2 18.7,17.1 -0.2,0.4 -0.6,0.7 -1.1,0.7 z"
       id="path61"
       style="fill:#000111" /><path
       class="st1"
       d="m 336.9,162.9 c -0.3,0 -0.5,-0.1 -0.7,-0.3 L 319,147.7 c -0.5,-0.4 -0.6,-1.1 -0.2,-1.5 0.4,-0.4 1.1,-0.6 1.5,-0.2 0,0 0.1,0 0.1,0.1 l 17.2,14.9 c 0.5,0.4 0.5,1.1 0.1,1.5 -0.2,0.2 -0.5,0.4 -0.8,0.4 z"
       id="path62"
       style="fill:#000111" /><path
       class="st1"
       d="m 333.2,260.1 c -0.1,0 -0.2,0 -0.3,0 -0.3,-0.1 -0.5,-0.3 -0.6,-0.5 -0.1,-0.3 -0.2,-0.6 -0.1,-0.8 0.6,-1.8 1.2,-3.6 1.9,-5.2 0.2,-0.6 0.9,-0.8 1.4,-0.6 0.4,0.2 0.7,0.6 0.7,1 0,0.1 0,0.3 -0.1,0.4 -0.7,1.6 -1.3,3.3 -1.8,5 -0.2,0.4 -0.6,0.7 -1.1,0.7 z m 4.8,-11 c -0.2,0 -0.4,-0.1 -0.5,-0.1 -0.3,-0.1 -0.4,-0.4 -0.5,-0.7 -0.1,-0.3 0,-0.6 0.1,-0.8 0.9,-1.6 1.9,-3.2 3,-4.7 0.4,-0.5 1,-0.6 1.5,-0.2 0.3,0.2 0.4,0.5 0.5,0.9 0,0.2 -0.1,0.5 -0.2,0.7 -1,1.4 -2,2.9 -2.9,4.4 -0.3,0.3 -0.6,0.5 -1,0.5 z m 7.2,-9.5 c -0.3,0 -0.6,-0.1 -0.8,-0.3 -0.2,-0.2 -0.3,-0.5 -0.3,-0.8 0,-0.3 0.1,-0.6 0.3,-0.8 1.3,-1.3 2.7,-2.6 4.1,-3.7 v 0 c 0.5,-0.3 1.1,-0.3 1.5,0.2 0.2,0.2 0.2,0.4 0.2,0.7 0,0.3 -0.2,0.6 -0.4,0.8 -1.4,1.1 -2.7,2.3 -3.9,3.6 -0.2,0.2 -0.4,0.3 -0.7,0.3 z m 9.4,-7.3 c -0.4,0 -0.7,-0.2 -0.9,-0.5 -0.3,-0.5 -0.1,-1.2 0.4,-1.5 0,0 0,0 0,0 1.6,-0.9 3.2,-1.8 4.9,-2.6 v 0 c 0.5,-0.2 1.2,0 1.5,0.5 0.1,0.1 0.1,0.3 0.1,0.4 0,0.4 -0.2,0.8 -0.6,1 -1.6,0.8 -3.2,1.6 -4.7,2.5 -0.3,0.1 -0.5,0.2 -0.7,0.2 z m 10.9,-5 c -0.5,0 -0.8,-0.3 -1,-0.7 -0.2,-0.6 0.1,-1.2 0.7,-1.4 1.7,-0.6 3.5,-1.1 5.3,-1.6 v 0 c 0.6,-0.2 1.2,0.2 1.3,0.8 0,0.1 0,0.2 0,0.3 0,0.5 -0.3,0.9 -0.8,1.1 -1.7,0.5 -3.5,1 -5.1,1.6 -0.2,-0.1 -0.3,-0.1 -0.4,-0.1 z m 11.6,-3 c -0.6,0 -1.1,-0.5 -1.1,-1.1 0,-0.5 0.4,-1 0.9,-1.1 1.8,-0.3 3.6,-0.6 5.4,-0.9 v 0 c 0.6,-0.1 1.1,0.3 1.2,0.9 v 0.1 c 0,0.6 -0.4,1 -0.9,1.1 -1.8,0.2 -3.6,0.6 -5.3,0.9 z m 11.9,-1.6 c -0.6,0 -1.1,-0.4 -1.1,-1 0,-0.6 0.4,-1.1 1,-1.1 v 0 c 1.7,-0.1 3.5,-0.3 5.5,-0.4 0.6,0 1.1,0.4 1.2,1 0,0 0,0 0,0 v 0.1 c 0,0.6 -0.4,1 -1,1.1 -1.9,0.1 -3.7,0.2 -5.4,0.4 z m 12,-0.7 v 0 c -0.6,0 -1.1,-0.5 -1.1,-1.1 0,-0.3 0.1,-0.6 0.3,-0.8 0.2,-0.2 0.5,-0.3 0.8,-0.4 l 5.5,-0.2 v 0 c 0.6,0 1.1,0.5 1.1,1.1 v 0 c 0,0.6 -0.5,1.1 -1.1,1.1 -1.5,0.1 -3.5,0.2 -5.5,0.3 z m 12,-0.3 c -0.6,0 -1.1,-0.5 -1.1,-1.1 0,-0.3 0.1,-0.6 0.3,-0.8 0.2,-0.2 0.5,-0.3 0.8,-0.3 h 1.1 l 4.4,-0.1 v 0 c 0.6,0 1.1,0.5 1.1,1.1 v 0 c 0,0.6 -0.5,1.1 -1,1.1 h -0.1 z m 12,-0.3 c -0.6,0 -1.1,-0.5 -1.1,-1.1 0,-0.3 0.1,-0.5 0.3,-0.7 0.2,-0.2 0.5,-0.3 0.8,-0.4 2,-0.1 3.8,-0.2 5.4,-0.4 v 0 c 0.6,0 1.1,0.4 1.2,1 v 0.1 c 0,0.6 -0.4,1 -1,1.1 -1.8,0.1 -3.6,0.2 -5.6,0.4 z m 12,-1.2 c -0.5,0 -1,-0.4 -1.1,-0.9 -0.1,-0.6 0.3,-1.2 0.9,-1.3 0,0 0,0 0,0 1.8,-0.3 3.5,-0.7 5.2,-1.2 0.6,-0.2 1.2,0.2 1.4,0.7 0.2,0.6 -0.2,1.2 -0.7,1.4 -1.8,0.5 -3.6,0.9 -5.5,1.2 z m 11.3,-3.8 c -0.4,0 -0.7,-0.2 -0.9,-0.5 -0.2,-0.2 -0.2,-0.5 -0.1,-0.8 0.1,-0.3 0.3,-0.5 0.5,-0.7 1.4,-0.9 2.7,-2 3.7,-3.3 0.4,-0.5 1,-0.6 1.5,-0.2 0.3,0.2 0.4,0.5 0.4,0.9 0,0.2 -0.1,0.5 -0.2,0.7 -1.2,1.5 -2.6,2.8 -4.3,3.8 -0.2,0 -0.4,0.1 -0.6,0.1 z m 6.5,-9.4 h -0.2 c -0.6,-0.1 -1,-0.7 -0.9,-1.3 0.3,-1.3 0.4,-2.7 0.4,-4.1 0,-0.4 0,-0.7 0,-1.1 v 0 -0.1 c 0,-0.6 0.6,-1.1 1.2,-1 0.5,0 0.9,0.4 1,1 0,0.4 0,0.8 0,1.2 0,1.5 -0.1,3 -0.4,4.5 -0.1,0.5 -0.5,0.9 -1.1,0.9 z m -40.3,-4.6 c -1.1,0 -2.1,0 -3.1,-0.1 -0.6,-0.1 -1,-0.6 -0.9,-1.2 0.1,-0.5 0.5,-0.9 1.1,-1 1.6,0.1 3.4,0.1 5.4,0 0.6,0 1.1,0.4 1.1,1 0,0 0,0 0,0.1 v 0 c 0,0.6 -0.5,1.1 -1,1.1 -0.9,0.1 -1.7,0.1 -2.6,0.1 z m 9,-0.6 c -0.6,0 -1,-0.4 -1.1,-0.9 -0.1,-0.6 0.3,-1.1 0.9,-1.2 0,0 0,0 0,0 1.8,-0.2 3.6,-0.5 5.3,-0.9 0.6,-0.1 1.2,0.3 1.3,0.9 0,0.1 0,0.1 0,0.2 0,0.5 -0.4,1 -0.9,1.1 -1.9,0.4 -3.7,0.7 -5.5,0.9 z M 405,201.6 c -0.1,0 -0.1,0 -0.2,0 -1.9,-0.3 -3.7,-0.8 -5.5,-1.5 -0.3,-0.1 -0.5,-0.3 -0.6,-0.6 -0.1,-0.3 -0.1,-0.6 0,-0.8 0.2,-0.6 0.8,-0.8 1.4,-0.6 1.7,0.6 3.4,1 5.1,1.4 0.5,0.1 0.9,0.6 0.9,1.1 0,0.1 0,0.1 0,0.2 -0.1,0.4 -0.6,0.8 -1.1,0.8 z m 30.2,-2.2 c -0.5,0 -0.9,-0.3 -1,-0.8 -0.2,-0.6 0.2,-1.2 0.7,-1.3 0,0 0,0 0,0 1.7,-0.5 3.4,-1.1 5.1,-1.7 0.6,-0.2 1.2,0.1 1.4,0.6 0,0.1 0.1,0.2 0.1,0.4 0,0.4 -0.3,0.8 -0.7,1 -1.7,0.6 -3.5,1.2 -5.3,1.7 0,0 -0.1,0 -0.3,0.1 z M 394,197 c -0.3,0 -0.5,-0.1 -0.7,-0.2 -1.6,-1.3 -2.8,-2.9 -3.6,-4.7 -0.3,-0.5 -0.1,-1.2 0.4,-1.5 0.5,-0.3 1.2,-0.1 1.5,0.4 0,0.1 0.1,0.2 0.1,0.3 0.6,1.5 1.7,2.9 2.9,3.9 0.5,0.4 0.5,1.1 0.1,1.5 -0.1,0.2 -0.4,0.3 -0.7,0.3 z m 59.9,-1.8 c -0.4,0 -0.8,-0.3 -1,-0.7 -0.3,-0.8 -0.6,-1.6 -1,-2.3 v 0 c -1.6,1 -3.2,1.9 -4.9,2.7 -0.5,0.3 -1.2,0 -1.5,-0.5 -0.1,-0.3 -0.2,-0.6 0,-0.8 0.1,-0.3 0.3,-0.5 0.5,-0.6 1.6,-0.8 3.1,-1.7 4.6,-2.6 h 0.1 c -0.1,-0.1 -0.2,-0.3 -0.3,-0.4 v 0 c -0.1,-0.2 -0.2,-0.4 -0.2,-0.6 0,-0.4 0.2,-0.7 0.5,-0.9 0.5,-0.3 1.2,-0.2 1.5,0.3 1.1,1.6 2,3.2 2.7,5 0.2,0.6 -0.1,1.2 -0.6,1.4 -0.1,0 -0.3,0 -0.4,0 z m 2.5,-6.8 c -0.3,0 -0.6,-0.1 -0.8,-0.4 -0.4,-0.4 -0.4,-1.1 0.1,-1.5 0,0 0,0 0,0 1.3,-1.2 2.5,-2.4 3.6,-3.8 v 0 c 0.4,-0.5 1,-0.5 1.5,-0.2 0.3,0.2 0.4,0.5 0.4,0.9 0,0.2 -0.1,0.5 -0.2,0.6 -1.2,1.5 -2.5,2.9 -3.9,4.1 -0.2,0.2 -0.4,0.3 -0.7,0.3 z m -66.2,-2.1 H 390 c -0.5,-0.1 -0.9,-0.5 -0.9,-1.1 0,-0.1 0,-0.1 0,-0.2 0.3,-1.9 1.1,-3.8 2.2,-5.4 0.3,-0.5 1,-0.6 1.5,-0.3 0.5,0.3 0.6,1 0.3,1.5 -0.9,1.4 -1.6,2.9 -1.9,4.6 0,0.5 -0.4,0.8 -1,0.9 z m 56.8,-0.9 c -0.3,0 -0.5,-0.1 -0.8,-0.3 -1.3,-1.2 -2.7,-2.3 -4.1,-3.3 -0.3,-0.2 -0.5,-0.5 -0.5,-0.9 0,-0.2 0.1,-0.4 0.2,-0.6 0.4,-0.5 1,-0.6 1.5,-0.3 1.5,1.1 3,2.2 4.4,3.5 0.4,0.4 0.5,1.1 0.1,1.5 0,0 0,0 0,0 -0.2,0.3 -0.4,0.4 -0.8,0.4 z m 16.4,-6.6 c -0.1,0 -0.3,0 -0.4,-0.1 -0.3,-0.1 -0.5,-0.3 -0.6,-0.6 -0.1,-0.3 -0.1,-0.6 0,-0.8 0.6,-1.6 1,-3.3 1.2,-5 0.1,-0.6 0.6,-1 1.2,-0.9 0.5,0.1 0.9,0.5 0.9,1 v 0.1 c -0.2,1.9 -0.7,3.8 -1.4,5.6 0,0.4 -0.4,0.7 -0.9,0.7 z m -26.3,0 c -0.2,0 -0.3,0 -0.5,-0.1 -1.6,-0.8 -3.2,-1.5 -4.9,-2.1 -0.4,-0.2 -0.7,-0.6 -0.7,-1 0,-0.1 0,-0.3 0.1,-0.4 0.2,-0.6 0.8,-0.9 1.4,-0.7 1.7,0.6 3.5,1.4 5.1,2.2 0.5,0.3 0.8,0.9 0.5,1.5 0,0 0,0 0,0 -0.2,0.4 -0.6,0.6 -1,0.6 z m -40,-1.9 c -0.4,0 -0.7,-0.2 -0.9,-0.5 -0.1,-0.2 -0.2,-0.4 -0.2,-0.6 0,-0.4 0.2,-0.7 0.5,-0.9 1.6,-1 3.4,-1.7 5.2,-2.3 0.6,-0.2 1.2,0.2 1.4,0.7 0.2,0.6 -0.1,1.2 -0.7,1.4 0,0 0,0 0,0 -1.7,0.5 -3.3,1.2 -4.8,2.1 -0.1,0 -0.3,0.1 -0.5,0.1 z m 28.7,-2.1 c -0.1,0 -0.2,0 -0.3,0 -1.7,-0.4 -3.5,-0.8 -5.3,-1 -0.5,-0.1 -0.9,-0.5 -0.9,-1.1 0,-0.1 0,-0.1 0,-0.2 0.1,-0.6 0.6,-1 1.2,-0.9 1.8,0.3 3.6,0.6 5.5,1.1 0.3,0.1 0.5,0.2 0.7,0.5 0.3,0.5 0.2,1.2 -0.4,1.5 -0.1,0.1 -0.3,0.1 -0.5,0.1 z m -17.3,-1.4 c -0.6,0 -1,-0.4 -1.1,-1 0,0 0,-0.1 0,-0.1 0,-0.6 0.4,-1 1,-1.1 1.5,-0.2 3.1,-0.2 4.6,-0.2 0.3,0 0.6,0 0.9,0 0.3,0 0.6,0.1 0.8,0.3 0.2,0.2 0.3,0.5 0.3,0.8 0,0.6 -0.5,1.1 -1.1,1.1 v 0 c -1.8,0 -3.6,0 -5.3,0.2 z m 55.9,-6.4 c -0.5,0 -1,-0.4 -1.1,-0.9 -0.3,-1.7 -0.8,-3.4 -1.5,-5 v 0 c -0.1,-0.1 -0.1,-0.3 -0.1,-0.4 0,-0.4 0.3,-0.8 0.7,-1 0.6,-0.2 1.2,0 1.4,0.6 0.7,1.7 1.3,3.5 1.6,5.4 0.1,0.3 0,0.6 -0.2,0.8 -0.2,0.2 -0.4,0.4 -0.7,0.5 z m -4.8,-10.9 c -0.4,0 -0.7,-0.2 -0.9,-0.5 -1,-1.4 -2.2,-2.8 -3.4,-4 -0.2,-0.2 -0.3,-0.5 -0.3,-0.8 0,-0.3 0.1,-0.6 0.3,-0.8 0.4,-0.4 1.1,-0.4 1.5,0 1.3,1.3 2.5,2.8 3.6,4.3 0.4,0.5 0.3,1.2 -0.2,1.5 -0.2,0.3 -0.4,0.4 -0.6,0.3 z m -8.4,-8.5 c -0.2,0 -0.5,-0.1 -0.6,-0.2 -1.4,-1.1 -2.9,-2.1 -4.4,-3 v 0 c -0.3,-0.2 -0.5,-0.6 -0.5,-0.9 0,-0.2 0.1,-0.4 0.2,-0.6 0.3,-0.5 1,-0.7 1.5,-0.4 1.6,1 3.2,2.1 4.6,3.1 0.2,0.2 0.4,0.4 0.4,0.7 0.1,0.3 0,0.6 -0.2,0.8 -0.4,0.4 -0.7,0.6 -1,0.5 z M 441,141.4 c -0.2,0 -0.3,0 -0.5,-0.1 -1.5,-0.8 -3.2,-1.6 -4.9,-2.3 v 0 c -0.4,-0.2 -0.7,-0.6 -0.7,-1 0,-0.1 0,-0.3 0.1,-0.4 0.2,-0.5 0.9,-0.8 1.4,-0.6 1.7,0.7 3.4,1.5 5,2.3 0.5,0.3 0.8,0.9 0.5,1.5 -0.1,0.4 -0.5,0.6 -0.9,0.6 z m -11.1,-4.7 c -0.1,0 -0.2,0 -0.4,-0.1 -1.7,-0.6 -3.4,-1.2 -5.1,-1.7 v 0 c -0.4,-0.1 -0.7,-0.5 -0.8,-1 0,-0.1 0,-0.2 0.1,-0.3 0.2,-0.6 0.8,-0.9 1.3,-0.7 0,0 0,0 0,0 1.9,0.6 3.6,1.1 5.2,1.7 0.6,0.2 0.9,0.8 0.7,1.4 0,0 0,0 0,0 -0.1,0.4 -0.5,0.7 -1,0.7 z m -11.5,-3.5 c -0.1,0 -0.2,0 -0.3,0 -1.7,-0.4 -3.5,-0.9 -5.3,-1.3 -0.5,-0.1 -0.8,-0.5 -0.9,-1.1 0,-0.1 0,-0.2 0,-0.2 0.1,-0.6 0.7,-1 1.3,-0.8 1.9,0.4 3.6,0.9 5.4,1.3 0.3,0.1 0.5,0.2 0.7,0.5 0.3,0.5 0.1,1.2 -0.4,1.5 -0.1,0.1 -0.3,0.1 -0.5,0.1 z m -11.7,-2.6 h -0.2 c -1.9,-0.4 -3.7,-0.7 -5.4,-0.9 v 0 c -0.5,-0.1 -0.9,-0.5 -0.9,-1.1 0,-0.1 0,-0.1 0,-0.2 0.1,-0.6 0.6,-1 1.2,-0.9 h 0.1 c 1.8,0.3 3.6,0.6 5.4,0.9 0.3,0.1 0.5,0.2 0.7,0.5 0.2,0.2 0.2,0.5 0.2,0.8 -0.1,0.5 -0.6,0.9 -1.1,0.9 z m -11.9,-1.8 h -0.1 c -2.9,-0.3 -5,-0.5 -5.3,-0.5 v 0 c -0.6,-0.1 -1,-0.6 -1,-1.2 0.1,-0.5 0.5,-0.9 1,-1 0.5,0 2.5,0.2 5.6,0.5 0.6,0 1.1,0.5 1,1.1 -0.1,0.6 -0.6,1.1 -1.2,1.1 z"
       id="path63"
       style="fill:#000111" /></g><g
     id="document_1"
     transform="translate(44.153071,60.311865)"><linearGradient
       id="SVGID_00000047742379798243060300000016340595706712853168_"
       gradientUnits="userSpaceOnUse"
       x1="174.00121"
       y1="407.63959"
       x2="142.33121"
       y2="309.94958"
       gradientTransform="matrix(1,0,0,-1,0,502)"><stop
         offset="0"
         style="stop-color: rgb(10, 107, 91);"
         id="stop63" /><stop
         offset="0.78"
         style="stop-color: rgb(0, 81, 70);"
         id="stop64" /><stop
         offset="0.91"
         style="stop-color: rgb(0, 80, 69);"
         id="stop65" /></linearGradient><path
       d="m 171.4,209.4 c 0,0 25.6,-42.6 5.1,-76.1 l -54.7,8.1 c 0,0 28.6,23.2 -1.6,56 z"
       style="fill:#ffe6d5"
       id="path65" /><path
       class="st18"
       d="m 170,193.1 c 0,0 4.3,-49.6 -28.8,-70.6 l -45.6,31.4 c 0,0 35.9,8.3 23.2,51 z"
       id="path66"
       style="fill:#ffb380" /><path
       class="st1"
       d="m 114.2,157.1 c -0.4,0 -0.8,-0.2 -0.9,-0.6 -0.3,-0.5 -0.1,-1.2 0.4,-1.5 l 26.8,-15.1 c 0.5,-0.3 1.2,-0.1 1.5,0.4 0.3,0.5 0.1,1.2 -0.4,1.5 l -26.8,15.1 c -0.2,0.1 -0.4,0.2 -0.6,0.2 z"
       id="path67"
       style="fill:#000111" /><path
       class="st1"
       d="m 120.2,164.3 c -0.6,0 -1.1,-0.6 -1,-1.2 0,-0.3 0.2,-0.6 0.5,-0.8 l 23.1,-13.6 c 0.5,-0.3 1.2,-0.1 1.5,0.4 0.3,0.5 0.1,1.2 -0.4,1.5 v 0 l -23,13.6 c -0.3,0.1 -0.5,0.1 -0.7,0.1 z"
       id="path68"
       style="fill:#000111" /><path
       class="st1"
       d="m 126.3,174.9 c -0.6,0 -1.1,-0.5 -1.1,-1.1 0,-0.5 0.3,-0.9 0.7,-1 l 22.3,-7.7 c 0.6,-0.2 1.2,0.1 1.4,0.7 0.2,0.6 -0.1,1.2 -0.7,1.4 v 0 l -22.3,7.7 c 0,0 -0.1,0 -0.3,0 z"
       id="path69"
       style="fill:#000111" /><path
       class="st1"
       d="m 127.3,180.6 c -0.6,0 -1.1,-0.5 -1.1,-1.1 0,-0.5 0.4,-1 0.9,-1.1 l 22.6,-4.7 c 0.6,-0.1 1.2,0.3 1.3,0.8 0.1,0.6 -0.3,1.2 -0.9,1.3 v 0 l -22.6,4.7 c 0,0.1 -0.1,0.1 -0.2,0.1 z"
       id="path70"
       style="fill:#000111" /><path
       class="st1"
       d="m 146.1,258.8 h -0.1 -0.4 c -0.6,-0.1 -1,-0.5 -1,-1.1 v -0.1 c 0,-0.6 0.6,-1 1.2,-1 h 0.3 0.1 c 0.3,0 0.6,0.2 0.8,0.4 0.4,0.5 0.4,1.1 -0.1,1.5 -0.3,0.2 -0.6,0.3 -0.8,0.3 z m -7,-0.7 H 139 c -1.8,-0.2 -3.7,-0.4 -5.5,-0.6 -0.5,-0.1 -0.9,-0.5 -0.9,-1.1 v -0.1 c 0.1,-0.6 0.6,-1.1 1.2,-1 0,0 0,0 0,0 1.8,0.2 3.6,0.4 5.4,0.6 0.6,0 1.1,0.5 1,1.1 -0.1,0.6 -0.5,1.1 -1.1,1.1 z m -12,-1.5 H 127 c -1.8,-0.3 -3.6,-0.5 -5.4,-0.8 -0.5,-0.1 -0.9,-0.5 -0.9,-1.1 0,-0.1 0,-0.1 0,-0.2 0.1,-0.6 0.6,-1 1.2,-0.9 1.7,0.3 3.5,0.6 5.4,0.8 0.6,0.1 1,0.6 0.9,1.2 0,0.7 -0.5,1.1 -1.1,1 z m -11.9,-2 H 115 c -2,-0.4 -3.7,-0.7 -5.4,-1.1 v 0 c -0.5,-0.1 -0.9,-0.6 -0.9,-1.1 0,-0.1 0,-0.1 0,-0.2 0.1,-0.6 0.7,-1 1.3,-0.9 1.6,0.3 3.3,0.7 5.3,1.1 0.3,0 0.5,0.2 0.7,0.4 0.3,0.5 0.2,1.2 -0.3,1.5 0,0.3 -0.2,0.3 -0.5,0.3 z m -11.7,-2.5 c -0.1,0 -0.2,0 -0.2,0 -1.9,-0.5 -3.7,-0.9 -5.3,-1.4 -0.5,-0.1 -0.8,-0.6 -0.8,-1.1 0,-0.1 0,-0.2 0,-0.3 0.2,-0.6 0.8,-0.9 1.3,-0.8 1.7,0.5 3.5,0.9 5.3,1.3 0.6,0.2 0.9,0.8 0.8,1.4 -0.3,0.6 -0.7,1 -1.1,0.9 z M 91.9,249 c -0.1,0 -0.2,0 -0.3,-0.1 -1.8,-0.6 -3.6,-1.1 -5.2,-1.7 -0.4,-0.2 -0.7,-0.5 -0.7,-1 0,-0.1 0,-0.2 0.1,-0.4 0.2,-0.6 0.8,-0.9 1.4,-0.7 1.6,0.6 3.4,1.1 5.2,1.7 0.6,0.2 0.9,0.8 0.7,1.4 -0.3,0.5 -0.7,0.8 -1.2,0.8 z m -11.4,-4 c -0.1,0 -0.3,0 -0.4,-0.1 -1.8,-0.7 -3.5,-1.5 -5.1,-2.2 -0.4,-0.2 -0.6,-0.6 -0.6,-1 0,-0.2 0,-0.3 0.1,-0.5 0.3,-0.5 0.9,-0.8 1.4,-0.5 1.6,0.7 3.3,1.5 5,2.1 0.3,0.1 0.5,0.3 0.6,0.6 0.1,0.3 0.1,0.6 0,0.8 -0.1,0.5 -0.5,0.8 -1,0.8 z m -10.8,-5.2 c -0.2,0 -0.4,0 -0.5,-0.1 -1.7,-0.9 -3.2,-1.9 -4.7,-3 -0.3,-0.2 -0.5,-0.6 -0.5,-0.9 0,-0.2 0.1,-0.4 0.2,-0.6 0.4,-0.5 1,-0.6 1.5,-0.3 1.4,1 2.9,1.9 4.5,2.9 0.5,0.3 0.6,1 0.3,1.5 -0.1,0.2 -0.5,0.4 -0.8,0.5 z m -9.7,-7 c -0.3,0 -0.5,-0.1 -0.7,-0.3 -1.4,-1.3 -2.6,-2.7 -3.8,-4.2 v 0 c -0.1,-0.2 -0.2,-0.4 -0.2,-0.7 0,-0.3 0.2,-0.7 0.4,-0.9 0.5,-0.4 1.2,-0.3 1.5,0.2 1.1,1.4 2.2,2.7 3.5,3.9 0.2,0.2 0.3,0.5 0.3,0.8 0,0.3 -0.1,0.6 -0.3,0.8 -0.1,0.3 -0.4,0.4 -0.7,0.4 z m -6.9,-9.7 c -0.4,0 -0.8,-0.3 -1,-0.7 -0.7,-1.8 -1.2,-3.6 -1.4,-5.5 0,0 0,-0.1 0,-0.1 0,-0.6 0.4,-1 1,-1.1 0.6,-0.1 1.1,0.4 1.2,0.9 0.2,1.7 0.6,3.4 1.3,5 0.1,0.3 0.1,0.6 0,0.8 -0.1,0.3 -0.3,0.5 -0.6,0.6 -0.2,0.1 -0.3,0.1 -0.5,0.1 z m -1.5,-11.8 v 0 c -0.7,0 -1.1,-0.6 -1.1,-1.2 0.1,-1.9 0.4,-3.7 0.9,-5.6 0.2,-0.6 0.7,-0.9 1.3,-0.8 0.5,0.1 0.8,0.5 0.8,1 0,0.1 0,0.2 0,0.3 -0.4,1.7 -0.7,3.4 -0.8,5.2 0,0.7 -0.5,1.2 -1.1,1.1 0,0.1 0,0.1 0,0 z m 3,-11.5 c -0.2,0 -0.3,0 -0.5,-0.1 -0.5,-0.3 -0.8,-0.9 -0.5,-1.4 0.8,-1.7 1.7,-3.3 2.8,-4.9 0.4,-0.5 1,-0.6 1.5,-0.3 0.3,0.2 0.5,0.5 0.5,0.9 0,0.2 -0.1,0.4 -0.2,0.6 -1,1.5 -1.9,3 -2.6,4.6 -0.2,0.4 -0.5,0.6 -1,0.6 z m 6.8,-9.8 c -0.3,0 -0.5,-0.1 -0.7,-0.3 -0.4,-0.4 -0.5,-1.1 -0.1,-1.6 1.3,-1.4 2.6,-2.7 4,-3.9 v 0 c 0.5,-0.4 1.1,-0.3 1.6,0.1 0.2,0.2 0.3,0.5 0.3,0.7 0,0.3 -0.1,0.6 -0.4,0.8 -1.3,1.2 -2.6,2.4 -3.8,3.7 -0.3,0.4 -0.6,0.5 -0.9,0.5 z m 9.1,-7.8 c -0.6,0 -1.1,-0.5 -1.1,-1.1 0,-0.1 0,-0.1 0,-0.2 0.1,-0.3 0.2,-0.5 0.4,-0.7 1.4,-1 3,-2 4.7,-3 0.5,-0.3 1.2,-0.1 1.5,0.4 0.1,0.2 0.1,0.4 0.2,0.6 0,0.4 -0.2,0.7 -0.5,0.9 -1.6,0.9 -3.1,1.9 -4.5,2.9 -0.3,0.1 -0.5,0.2 -0.7,0.2 z M 80.8,176 c -0.4,0 -0.8,-0.2 -1,-0.6 -0.1,-0.3 -0.2,-0.6 -0.1,-0.8 0.1,-0.3 0.3,-0.5 0.6,-0.6 1.6,-0.8 3.3,-1.6 5,-2.3 0.6,-0.2 1.2,0 1.4,0.6 0.1,0.1 0.1,0.3 0.1,0.4 0,0.4 -0.3,0.8 -0.7,1 -1.7,0.7 -3.3,1.5 -4.9,2.3 -0.1,0 -0.2,0 -0.4,0 z m 11.1,-4.7 c -0.5,0 -0.8,-0.3 -1,-0.7 -0.1,-0.3 -0.1,-0.6 0,-0.8 0.1,-0.3 0.4,-0.5 0.6,-0.6 3.2,-1.1 5.3,-1.7 5.3,-1.7 v 0 c 0.6,-0.2 1.2,0.2 1.3,0.8 0,0 0,0 0,0 0.1,0.3 0,0.6 -0.1,0.8 -0.1,0.3 -0.4,0.4 -0.7,0.5 v 0 c -0.5,0.1 -2.4,0.7 -5.1,1.6 -0.1,0.1 -0.2,0.1 -0.3,0.1 z"
       id="path71"
       style="fill:#000111" /></g><g
     id="paper_plane_2"
     transform="translate(-1.3977763,59.35)"><g
       id="paper_plane"><polygon
         class="st1"
         points="39.2,153 51.7,163.5 72.8,101 "
         id="polygon71"
         style="fill:#000111" /><linearGradient
         id="SVGID_00000041983401841205702260000015469945198904014517_"
         gradientUnits="userSpaceOnUse"
         x1="25.68"
         y1="375.01999"
         x2="72.779999"
         y2="375.01999"
         gradientTransform="matrix(1,0,0,-1,0,502)"><stop
           offset="0"
           style="stop-color: rgb(243, 131, 116);"
           id="stop71" /><stop
           offset="1"
           style="stop-color: rgb(198, 66, 52);"
           id="stop72" /></linearGradient><polygon
         points="25.7,149.4 72.8,101 39.2,153 "
         style="fill:#ff8080"
         id="polygon72" /><linearGradient
         id="SVGID_00000129888693883795627410000006452917226798468262_"
         gradientUnits="userSpaceOnUse"
         x1="-11034.18"
         y1="-6040.9404"
         x2="-11021.55"
         y2="-6025.6904"
         gradientTransform="matrix(0.61,-0.79,-0.79,-0.61,2002.4901,-12271.3)"><stop
           offset="0"
           style="stop-color: rgb(10, 107, 91);"
           id="stop73" /><stop
           offset="0.78"
           style="stop-color: rgb(0, 81, 70);"
           id="stop74" /><stop
           offset="0.91"
           style="stop-color: rgb(0, 80, 69);"
           id="stop75" /></linearGradient><polygon
         points="43.9,152.8 51.7,163.5 54.8,156.2 "
         style="fill:#ffb380"
         id="polygon75" /><linearGradient
         id="SVGID_00000096781571865347499510000005046884195777235897_"
         gradientUnits="userSpaceOnUse"
         x1="43.93"
         y1="371.60501"
         x2="72.779999"
         y2="371.60501"
         gradientTransform="matrix(1,0,0,-1,0,502)"><stop
           offset="0"
           style="stop-color: rgb(243, 131, 116);"
           id="stop76" /><stop
           offset="1"
           style="stop-color: rgb(198, 66, 52);"
           id="stop77" /></linearGradient><polygon
         points="43.9,152.8 72.8,101 66.2,159.8 "
         style="fill:#be2727"
         id="polygon77" /></g><path
       class="st1"
       d="m 47.2,262 c -0.3,0 -0.5,-0.1 -0.7,-0.3 -1.4,-1.3 -2.8,-2.5 -4,-3.8 v 0 c -0.2,-0.2 -0.3,-0.5 -0.3,-0.8 0,-0.3 0.1,-0.6 0.3,-0.8 0.4,-0.4 1.1,-0.4 1.5,0 1.3,1.3 2.6,2.5 3.9,3.7 0.2,0.2 0.3,0.5 0.4,0.8 0,0.3 -0.1,0.6 -0.3,0.8 -0.2,0.3 -0.5,0.4 -0.8,0.4 z m -8.5,-8.5 c -0.3,0 -0.6,-0.1 -0.8,-0.4 -1.2,-1.4 -2.4,-2.9 -3.5,-4.3 -0.4,-0.5 -0.3,-1.2 0.2,-1.5 0.5,-0.4 1.2,-0.3 1.5,0.2 1.1,1.4 2.2,2.8 3.4,4.2 0.4,0.4 0.4,1.1 -0.1,1.5 -0.1,0.2 -0.4,0.3 -0.7,0.3 z m -7.2,-9.6 c -0.4,0 -0.7,-0.2 -0.9,-0.5 -1,-1.6 -1.9,-3.2 -2.8,-4.8 v 0 c -0.1,-0.1 -0.1,-0.3 -0.1,-0.5 0,-0.6 0.5,-1.1 1.1,-1.1 0.4,0 0.8,0.2 1,0.6 0.8,1.6 1.7,3.1 2.7,4.6 0.3,0.5 0.2,1.2 -0.3,1.5 -0.3,0.1 -0.5,0.2 -0.7,0.2 z M 26,233.2 c -0.4,0 -0.8,-0.3 -1,-0.7 -0.7,-1.7 -1.3,-3.5 -1.9,-5.2 0,-0.1 0,-0.2 0,-0.3 0,-0.5 0.3,-0.9 0.8,-1.1 0.6,-0.2 1.2,0.2 1.4,0.7 0.5,1.7 1.1,3.4 1.8,5.1 0.2,0.6 0,1.2 -0.6,1.4 0,0 0,0 0,0 -0.2,0.1 -0.3,0.1 -0.5,0.1 z m -3.5,-11.5 c -0.5,0 -1,-0.4 -1.1,-0.9 -0.4,-1.8 -0.7,-3.6 -0.9,-5.5 0,0 0,-0.1 0,-0.1 0,-0.6 0.5,-1.1 1.1,-1.1 0.5,0 1,0.4 1.1,0.9 v 0 c 0,0 0,0 0,0.1 0.2,1.8 0.5,3.5 0.8,5.2 0.1,0.3 0,0.6 -0.1,0.8 -0.2,0.2 -0.4,0.4 -0.7,0.5 z m -1.3,-11.9 v 0 c -0.6,0 -1.1,-0.5 -1.1,-1.1 v -1 c 0,-1.5 0,-3 0.1,-4.5 0,-0.6 0.5,-1 1.1,-1 0,0 0,0 0,0 0.6,0 1,0.5 1,1.1 v 0.1 c -0.1,1.5 -0.1,3 -0.1,4.4 v 1 c 0.1,0.5 -0.3,1 -1,1 0.1,0.1 0.1,0.1 0,0 z m 0.9,-12 h -0.2 c -0.3,0 -0.5,-0.2 -0.7,-0.4 -0.2,-0.2 -0.2,-0.5 -0.2,-0.8 0.3,-1.8 0.7,-3.7 1.1,-5.4 0.1,-0.6 0.7,-0.9 1.3,-0.8 0.5,0.1 0.8,0.6 0.8,1.1 0,0.1 0,0.2 0,0.3 -0.4,1.7 -0.8,3.5 -1.1,5.3 0,0.4 -0.4,0.8 -1,0.7 z m 3,-11.6 c -0.1,0 -0.2,0 -0.4,-0.1 -0.3,-0.1 -0.5,-0.3 -0.6,-0.6 -0.1,-0.3 -0.1,-0.6 0,-0.8 0.6,-1.8 1.3,-3.5 2.2,-5.2 v 0 c 0.3,-0.5 1,-0.6 1.5,-0.3 0.4,0.3 0.6,0.8 0.4,1.3 v 0 0 c -0.8,1.6 -1.4,3.2 -2,4.9 -0.2,0.5 -0.6,0.8 -1.1,0.8 z"
       id="path77"
       style="fill:#000111" /></g><g
     id="paper_plane_1"
     transform="translate(11.704052,10.725424)"><g
       id="paper_plane-2"><polygon
         class="st1"
         points="448,231.8 476.2,286.9 462.7,296.1 "
         id="polygon78"
         style="fill:#000111" /><polygon
         class="st18"
         points="476.2,286.9 490,284.7 448,231.8 "
         id="polygon79"
         style="fill:#ffb380" /><linearGradient
         id="linearGradient2"
         gradientUnits="userSpaceOnUse"
         x1="-11743.912"
         y1="-5259.4067"
         x2="-11731.281"
         y2="-5244.167"
         gradientTransform="matrix(-0.52,-0.85,0.85,-0.52,-1167.03,-12439.7)"><stop
           offset="0"
           style="stop-color: rgb(243, 131, 116);"
           id="stop1" /><stop
           offset="1"
           style="stop-color: rgb(198, 66, 52);"
           id="stop2-9" /></linearGradient><polygon
         points="460.4,288.5 471.5,286.2 462.7,296.1 "
         style="fill:url(#SVGID_00000080170130230683146860000007017943698239467166_)"
         id="polygon80" /><polygon
         class="st18"
         points="448.6,291 471.5,286.2 448,231.8 "
         id="polygon81"
         style="fill:#ffb380" /></g><path
       class="st1"
       d="m 419.6,327.6 v 0 c -0.6,0 -1.1,-0.5 -1.1,-1.1 0,-0.3 0.1,-0.6 0.3,-0.8 0.2,-0.2 0.5,-0.3 0.8,-0.3 1.8,0 3.6,-0.2 5.3,-0.3 0.6,-0.1 1.1,0.4 1.2,0.9 0,0 0,0 0,0.1 v 0.1 c 0,0.6 -0.4,1 -1,1.1 -1.8,0.2 -3.7,0.4 -5.5,0.3 z m 11.9,-1.4 c -0.5,0 -1,-0.3 -1.1,-0.8 -0.1,-0.3 0,-0.6 0.1,-0.8 0.2,-0.2 0.4,-0.4 0.7,-0.5 1.8,-0.4 3.5,-0.9 5.1,-1.5 v 0 c 0.6,-0.2 1.2,0.1 1.4,0.7 0,0.1 0.1,0.2 0.1,0.4 0,0.4 -0.3,0.8 -0.7,1 v 0 H 437 c -1.7,0.6 -3.5,1.1 -5.3,1.5 z m 11.2,-4 c -0.4,0 -0.8,-0.2 -1,-0.6 -0.1,-0.3 -0.1,-0.6 0,-0.8 0.1,-0.3 0.3,-0.5 0.5,-0.6 1.6,-0.8 3.1,-1.7 4.6,-2.6 0.5,-0.3 1.2,-0.2 1.5,0.3 0.3,0.5 0.2,1.2 -0.3,1.5 -1.6,1 -3.2,1.9 -4.9,2.8 0,0 -0.2,0 -0.4,0 z m 10,-6.6 c -0.6,0 -1.1,-0.5 -1.1,-1.1 0,0 0,-0.1 0,-0.1 0,-0.3 0.2,-0.6 0.4,-0.8 1.4,-1.2 2.7,-2.4 3.9,-3.7 0.4,-0.4 1.1,-0.4 1.5,0 0.2,0.2 0.3,0.5 0.3,0.8 0,0.3 -0.1,0.6 -0.3,0.8 -1.3,1.3 -2.6,2.6 -4,3.8 -0.1,0.2 -0.4,0.3 -0.7,0.3 z m 8.2,-8.8 c -0.2,0 -0.5,-0.1 -0.6,-0.2 -0.2,-0.2 -0.4,-0.4 -0.4,-0.7 0,-0.3 0,-0.6 0.2,-0.8 1,-1.4 1.7,-2.5 2.1,-3.3 0.4,-0.8 0.6,-1.2 0.6,-1.2 v 0 c 0.3,-0.5 0.9,-0.7 1.4,-0.5 0.5,0.3 0.8,0.9 0.5,1.4 0,0 0,0 0,0 -0.9,1.7 -1.9,3.3 -3,4.8 -0.1,0.3 -0.5,0.5 -0.8,0.5 z"
       id="path81"
       style="fill:#000111" /></g></svg>
