<?xml version="1.0" encoding="UTF-8" standalone="no"?>
<svg
   transform="scale(1)"
   version="1.1"
   id="Layer_1"
   x="0px"
   y="0px"
   viewBox="0 0 500 500"
   xml:space="preserve"
   class="show_show__wrapper__graphic__5Waiy "
   sodipodi:docname="QR Code.svg"
   inkscape:version="1.3.2 (091e20e, 2023-11-25)"
   xmlns:inkscape="http://www.inkscape.org/namespaces/inkscape"
   xmlns:sodipodi="http://sodipodi.sourceforge.net/DTD/sodipodi-0.dtd"
   xmlns="http://www.w3.org/2000/svg"
   xmlns:svg="http://www.w3.org/2000/svg"><defs
     id="defs53" /><sodipodi:namedview
     id="namedview53"
     pagecolor="#505050"
     bordercolor="#eeeeee"
     borderopacity="1"
     inkscape:showpageshadow="0"
     inkscape:pageopacity="0"
     inkscape:pagecheckerboard="0"
     inkscape:deskcolor="#505050"
     inkscape:zoom="1.3350176"
     inkscape:cx="186.88892"
     inkscape:cy="272.65558"
     inkscape:window-width="1440"
     inkscape:window-height="847"
     inkscape:window-x="0"
     inkscape:window-y="25"
     inkscape:window-maximized="0"
     inkscape:current-layer="hand" /><title
     id="title1">React</title><style
     type="text/css"
     id="style1">
	.st0{fill:#000111;}
	.st1{fill:url(#SVGID_1_);}
	.st2{fill:url(#SVGID_00000160156249989478486770000013920082201881088440_);}
	.st3{fill:url(#SVGID_00000117658207763713109710000015124760780745267110_);}
	.st4{fill:#C64234;}
	.st5{fill:#FFC2A7;}
	.st6{fill:url(#SVGID_00000137839311115210803550000010378380871179084720_);}
	.st7{fill:#FFFFFF;}
	.st8{fill:#D88260;}
	.st9{fill:url(#SVGID_00000098942705202404730820000014681306068441285823_);}
	.st10{fill:#FED490;}
	.st11{fill:url(#SVGID_00000105409369059365785760000014749159954696705982_);}
</style><g
     id="barcode"><path
       class="st0"
       d="M319,148h-25.1v-25.1H319V148z M300.2,141.7h12.5v-12.5h-12.5L300.2,141.7z"
       id="path1" /><path
       class="st0"
       d="M377.4,148h-25.1v-25.1h25.1V148z M358.5,141.7h12.5v-12.5h-12.5V141.7z"
       id="path2" /><polygon
       class="st0"
       points="319,175.5 293.9,175.5 293.9,150.4 315.9,150.4 315.9,156.7 300.2,156.7 300.2,169.2 312.7,169.2    312.7,164.2 319,164.2  "
       id="polygon2" /><path
       class="st0"
       d="M319,205.8h-25.1v-25.1H319V205.8z M300.2,199.4h12.5v-12.6h-12.5L300.2,199.4z"
       id="path3" /><polygon
       class="st0"
       points="347.1,166.1 306.5,166.1 306.5,159.8 340.8,159.8 340.8,152.4 325.8,152.4 325.8,146.1 347.1,146.1     "
       id="polygon3" /><polygon
       class="st0"
       points="347.1,137 324.5,137 324.5,122.9 330.8,122.9 330.8,130.7 340.8,130.7 340.8,123.1 347.1,123.1  "
       id="polygon4" /><rect
       class="st0"
       x="332.3"
       y="136.2"
       width="6.3"
       height="13.2"
       id="rect4" /><rect
       class="st0"
       x="325.8"
       y="163.1"
       width="6.3"
       height="19.8"
       id="rect5" /><rect
       class="st0"
       x="346.6"
       y="154.4"
       width="6.3"
       height="11.7"
       id="rect6" /><rect
       class="st0"
       x="339.6"
       y="165.4"
       width="6.3"
       height="19.7"
       id="rect7" /><polygon
       class="st0"
       points="360.3,205.8 347.6,205.8 347.6,199.4 354,199.4 354,190.2 338.2,190.2 338.2,205.6 331.9,205.6    331.9,183.9 360.3,183.9  "
       id="polygon7" /><rect
       class="st0"
       x="325.9"
       y="192.1"
       width="9.2"
       height="6.3"
       id="rect8" /><polygon
       class="st0"
       points="371.2,170 364.9,170 364.9,154.1 377.4,154.1 377.4,160.4 371.2,160.4  "
       id="polygon8" /><polygon
       class="st0"
       points="377.4,205.8 371.1,205.8 371.1,190.1 355.1,190.1 355.1,168.4 376,168.4 376,174.7 361.4,174.7    361.4,183.8 377.4,183.8  "
       id="polygon9" /><polygon
       class="st0"
       points="289.1,133.4 282.8,133.4 282.8,112.4 304.9,112.4 304.9,118.7 289.1,118.7  "
       id="polygon10" /><polygon
       class="st0"
       points="388.6,133.4 382.3,133.4 382.3,118.7 366.4,118.7 366.4,112.4 388.6,112.4  "
       id="polygon11" /><polygon
       class="st0"
       points="304.9,216.7 282.8,216.7 282.8,195.7 289.1,195.7 289.1,210.4 304.9,210.4  "
       id="polygon12" /><polygon
       class="st0"
       points="388.6,216.7 366.4,216.7 366.4,210.4 382.3,210.4 382.3,195.7 388.6,195.7  "
       id="polygon13" /><path
       class="st0"
       d="M415.5,277.7h-165c-0.7,0.1-1.4-0.5-1.5-1.2s0.5-1.4,1.2-1.5c0.1,0,0.2,0,0.2,0h165c7,0,13-5.6,16.4-15.5V65.1   c-1.9-3-7.9-11-16.4-11H248.1c-7.1,0-12.9,5.8-12.9,12.9v47.5c0,0.7-0.6,1.3-1.4,1.3c-0.7,0-1.3-0.6-1.3-1.3V67.1   c0-8.6,7-15.6,15.6-15.6h167.3c10.2,0,17,9.6,18.9,12.6c0.1,0.2,0.2,0.5,0.2,0.7v195c0,0.1,0,0.3-0.1,0.4   C430.7,271.3,423.8,277.7,415.5,277.7z"
       id="path13" /><path
       class="st0"
       d="M429.4,80.8H235c-0.7,0-1.3-0.6-1.3-1.4c0-0.7,0.6-1.3,1.3-1.3h194.4c0.7,0,1.4,0.6,1.4,1.3   C430.7,80.2,430.1,80.8,429.4,80.8C429.4,80.8,429.4,80.8,429.4,80.8z"
       id="path14" /><linearGradient
       id="SVGID_1_"
       gradientUnits="userSpaceOnUse"
       x1="239.9011"
       y1="444.9313"
       x2="263.6911"
       y2="424.2913"
       gradientTransform="matrix(1 0 0 -1 0 502)"><stop
         offset="0"
         style="stop-color: rgb(243, 131, 116);"
         id="stop14" /><stop
         offset="1"
         style="stop-color: rgb(198, 66, 52);"
         id="stop15" /></linearGradient><circle
       class="st1"
       cx="251.7"
       cy="67.3"
       r="5.4"
       id="circle15"
       style="fill:#ff8080" /><linearGradient
       id="SVGID_00000031202956798433460800000012123948655539390387_"
       gradientUnits="userSpaceOnUse"
       x1="254.9211"
       y1="444.9313"
       x2="278.7111"
       y2="424.2913"
       gradientTransform="matrix(1 0 0 -1 0 502)"><stop
         offset="0"
         style="stop-color: rgb(243, 131, 116);"
         id="stop16" /><stop
         offset="1"
         style="stop-color: rgb(198, 66, 52);"
         id="stop17" /></linearGradient><circle
       cx="266.8"
       cy="67.3"
       r="5.4"
       style="fill:#ff8080"
       id="circle17" /><linearGradient
       id="SVGID_00000163039432937373789000000009727856161520760498_"
       gradientUnits="userSpaceOnUse"
       x1="269.9411"
       y1="444.9313"
       x2="293.7311"
       y2="424.2913"
       gradientTransform="matrix(1 0 0 -1 0 502)"><stop
         offset="0"
         style="stop-color: rgb(243, 131, 116);"
         id="stop18" /><stop
         offset="1"
         style="stop-color: rgb(198, 66, 52);"
         id="stop19" /></linearGradient><circle
       cx="281.8"
       cy="67.3"
       r="5.4"
       style="fill:#ff8080"
       id="circle19" /><path
       class="st4"
       d="M435.7,292.7H257.1c-0.7,0-1.4-0.6-1.4-1.4s0.6-1.4,1.4-1.4h178.6c5.1,0,9.2-4.1,9.2-9.2V88.4   c0-5.1-4.1-9.2-9.2-9.2c-0.7,0.1-1.4-0.5-1.5-1.2c-0.1-0.7,0.5-1.4,1.2-1.5c0.1,0,0.2,0,0.2,0c6.6,0,11.9,5.3,11.9,11.9v192.4   C447.6,287.4,442.2,292.7,435.7,292.7z"
       id="path19"
       style="fill:#c83737" /></g><g
     id="hand"><path
       class="st0"
       d="M149.3,169.8L149.3,169.8c-1.4-0.1-2.4-1.3-2.3-2.7l1.1-14.4c0.1-1.4,1.3-2.4,2.7-2.3l0,0   c1.4,0.1,2.4,1.3,2.3,2.7c0,0,0,0,0,0l-1.1,14.4C151.9,168.8,150.7,169.9,149.3,169.8C149.3,169.8,149.3,169.8,149.3,169.8z"
       id="path20" /><path
       class="st0"
       d="M147.8,191.1L147.8,191.1c-1.4-0.1-2.4-1.3-2.3-2.7l1.1-14.4c0.1-1.4,1.3-2.4,2.7-2.3l0,0   c1.4,0.1,2.4,1.3,2.3,2.7l-1.1,14.4C150.4,190.2,149.2,191.2,147.8,191.1z"
       id="path21" /><path
       class="st5"
       d="M265.6,195.5c-3-5.8-10.1-8.3-16.1-5.6l-0.7,0.3c0.1,2.3-0.2,4.7-0.9,6.9c-0.6,3-1,6.1-1.2,9.2   c-0.3,2.9-0.9,5.9-0.7,8.8c0.1,1.7,0.5,4.1-0.6,5.6c-0.1,0.4-0.2,0.9-0.3,1.3c0.3-0.1,0.6-0.3,0.8-0.5c5-3.2,10.7-6.9,15.4-9.9   C266.7,208.2,268.6,201.2,265.6,195.5z"
       id="path22"
       style="fill:#ffc2a7;fill-opacity:1" /><linearGradient
       id="SVGID_00000031186864244537546070000012935018806920325787_"
       gradientUnits="userSpaceOnUse"
       x1="201.6635"
       y1="396.8094"
       x2="202.8135"
       y2="223.8194"
       gradientTransform="matrix(0.9964 -8.472133e-02 -8.472133e-02 -0.9964 14.6605 490.2343)"><stop
         offset="0"
         style="stop-color: rgb(243, 131, 116);"
         id="stop22" /><stop
         offset="1"
         style="stop-color: rgb(198, 66, 52);"
         id="stop23" /></linearGradient><path
       d="M143.4,251.9l10.9-122.4   c0.6-8.3,7.9-14.6,16.2-14c0,0,0.1,0,0.1,0l72.6,5.8c8.3,0.7,14.5,7.9,13.9,16.3c0,0.1,0,0.3,0,0.4l-19.6,169.5   c-0.8,7.9-7.6,13.7-15.5,13.5l-53.8-1.7l-34.4-6.7L143.4,251.9z"
       style="fill:#be2727"
       id="path23" /><path
       class="st7"
       d="M151.3,251.5l10.5-115.4c0.6-5.7,5.6-9.8,11.3-9.3c0,0,0.1,0,0.1,0l16.9,1.9c2,0.2,3.5,2,3.4,4l0,0   c-0.1,2,1.4,3.8,3.4,4l23,2c2.1,0.1,3.9-1.4,4.1-3.5c0-0.1,0-0.1,0-0.2v-0.1c0.1-2.1,1.8-3.7,3.9-3.6c0.1,0,0.2,0,0.3,0l10.5,1.1   c5.7,0.6,9.8,5.7,9.2,11.4c0,0,0,0,0,0.1l-9.8,81.8l-4.9,70.6c-0.7,9.4-8.8,16.4-18.1,15.9l-69.9-4.6L151.3,251.5z"
       id="path24"
       style="fill:#f9f9f9" /><path
       class="st5"
       d="M126,347l3.1-13.3l-14.7-34.9c-2.7-6-1.4-13,3.2-17.7l25.7-29.1c0,0,11.6-7.8,14.3,16.2   c3.5,13.3-10.9,26.5-10.9,26.5l20.1,22.3l58.8,3.1l11.7-9.2c0,0,2.8,24.9-14.2,46.4c-5.7,7.2-13,20-13,20L126,347z"
       id="path25"
       style="fill:#ffc2a7;fill-opacity:1" /><circle
       class="st0"
       cx="201.8"
       cy="127.8"
       r="2.8"
       id="circle25" /><circle
       class="st0"
       cx="209.2"
       cy="129"
       r="1.4"
       id="circle26" /><path
       class="st8"
       d="M181.5,331.1c-0.5,0-0.9-0.2-1.2-0.7c-3.4-5.3-8.2-9.6-13.9-12.3c-0.7-0.4-0.9-1.2-0.5-1.8   c0.3-0.6,0.9-0.8,1.5-0.7c6.3,2.9,11.6,7.5,15.3,13.4c0.4,0.6,0.2,1.5-0.5,1.8c0,0,0,0,0,0C181.9,331,181.7,331.1,181.5,331.1z"
       id="path26" /><path
       class="st8"
       d="M136,303.5c-0.7,0-1.3-0.6-1.3-1.4c0-0.6,0.5-1.2,1.1-1.3c3.4-0.6,8.4-5.3,10.1-7.1c0.5-0.6,1.4-0.6,1.9-0.1   c0.6,0.5,0.6,1.4,0.1,1.9c-0.3,0.3-6.6,7-11.6,7.9L136,303.5z"
       id="path27" /><path
       class="st0"
       d="M191.3,195.3l-12.7-1.3l1.3-12.7l12.7,1.3L191.3,195.3z M182.1,191.2l6.4,0.6l0.6-6.4l-6.4-0.6L182.1,191.2z"
       id="path28" /><path
       class="st0"
       d="M220.9,198.2l-12.7-1.2l1.3-12.7l12.7,1.3L220.9,198.2z M211.7,194.1l6.4,0.6l0.6-6.4l-6.4-0.6L211.7,194.1z"
       id="path29" /><polygon
       class="st0"
       points="189.9,209.2 177.2,208 178.5,195.2 189.6,196.3 189.3,199.5 181.4,198.7 180.7,205.1 187.1,205.7    187.3,203.2 190.5,203.5  "
       id="polygon29" /><path
       class="st0"
       d="M188.4,224.5l-12.7-1.3l1.3-12.7l12.7,1.3L188.4,224.5z M179.2,220.4l6.4,0.6l0.6-6.4l-6.4-0.6L179.2,220.4z"
       id="path30" /><polygon
       class="st0"
       points="204.6,205.9 184.1,203.8 184.4,200.6 201.8,202.4 202.1,198.6 194.5,197.9 194.9,194.7 205.6,195.7     "
       id="polygon30" /><polygon
       class="st0"
       points="206.1,191.1 194.6,190 195.3,182.9 198.5,183.2 198.1,187.1 203.2,187.6 203.6,183.8 206.8,184.1  "
       id="polygon31" /><rect
       class="st0"
       x="196.6"
       y="191.9"
       transform="matrix(9.862511e-02 -0.9951 0.9951 9.862511e-02 -12.344 373.3684)"
       width="6.7"
       height="3.2"
       id="rect31" /><rect
       class="st0"
       x="190.1"
       y="206.9"
       transform="matrix(9.862511e-02 -0.9951 0.9951 9.862511e-02 -31.6125 382.0737)"
       width="10.1"
       height="3.2"
       id="rect32" /><rect
       class="st0"
       x="203.3"
       y="201.4"
       transform="matrix(9.862511e-02 -0.9951 0.9951 9.862511e-02 -16.1499 388.2601)"
       width="6"
       height="3.2"
       id="rect33" /><rect
       class="st0"
       x="197"
       y="208.7"
       transform="matrix(9.862511e-02 -0.9951 0.9951 9.862511e-02 -27.1725 390.5336)"
       width="10"
       height="3.2"
       id="rect34" /><polygon
       class="st0"
       points="209.3,226.6 202.9,226 203.2,222.8 206.4,223.1 206.9,218.4 198.9,217.6 198.1,225.4 194.9,225.1    196,214.1 210.4,215.6  "
       id="polygon34" /><rect
       class="st0"
       x="193.2"
       y="217.5"
       transform="matrix(9.862511e-02 -0.9951 0.9951 9.862511e-02 -43.1777 391.9573)"
       width="3.2"
       height="4.7"
       id="rect35" /><polygon
       class="st0"
       points="216.6,209.1 213.4,208.7 214.2,200.7 220.6,201.3 220.2,204.5 217.1,204.2  "
       id="polygon35" /><polygon
       class="st0"
       points="218,227.5 214.8,227.1 215.6,219.2 207.5,218.4 208.6,207.4 219.1,208.5 218.8,211.7 211.5,210.9    211,215.5 219.1,216.4  "
       id="polygon36" /><polygon
       class="st0"
       points="176.9,186.4 173.7,186.1 174.7,175.4 186,176.6 185.6,179.8 177.6,178.9  "
       id="polygon37" /><polygon
       class="st0"
       points="227.3,191.4 224.1,191.1 224.8,183.6 216.8,182.8 217.1,179.6 228.3,180.8  "
       id="polygon38" /><polygon
       class="st0"
       points="180.7,229.4 169.5,228.3 170.6,217.6 173.8,218 173,225.4 181,226.2  "
       id="polygon39" /><polygon
       class="st0"
       points="223.1,233.6 211.9,232.5 212.2,229.3 220.2,230.1 221,222.6 224.2,223  "
       id="polygon40" /><linearGradient
       id="SVGID_00000018948519586474730070000005272166002825022397_"
       gradientUnits="userSpaceOnUse"
       x1="178.4198"
       y1="304.7777"
       x2="215.6698"
       y2="261.8677"
       gradientTransform="matrix(1.0359 9.172686e-02 8.819891e-02 -0.9961 -44.4008 502.4677)"><stop
         offset="0"
         style="stop-color: rgb(243, 131, 116);"
         id="stop40" /><stop
         offset="1"
         style="stop-color: rgb(198, 66, 52);"
         id="stop41" /></linearGradient><path
       d="M170.2,239.7l45.8,4.1   c3.8,0.3,6.5,3.7,6.2,7.4v0c-0.3,3.8-3.7,6.5-7.4,6.2l-45.8-4.1c-3.8-0.3-6.5-3.7-6.2-7.4v0C163.1,242.2,166.4,239.4,170.2,239.7z"
       style="fill:#be2727"
       id="path41" /><path
       class="st5"
       d="M241.1,282.9c-5.7,1.6-12.3,3.4-17.6,4.9c-6.2,1.7-10,7.8-8.9,14.1l0,0c1.1,6.5,7.1,10.9,13.7,10.2l18.1-2.1   c6.8-0.8,11.7-6.9,10.9-13.8c0-0.3-0.1-0.5-0.1-0.8l-0.5-2.8c-1.2-6.8-7.6-11.3-14.4-10.1C241.8,282.7,241.5,282.7,241.1,282.9z"
       id="path42"
       style="fill:#ffc2a7;fill-opacity:1" /><path
       class="st5"
       d="M240.5,254.9c-5.6,2-11.9,4.4-17.2,6.3c-6,2.2-9.4,8.6-7.7,14.8l0,0c1.7,6.3,8,10.3,14.4,9l17.8-3.5   c6.7-1.3,11.1-7.9,9.8-14.6c0-0.3-0.1-0.5-0.2-0.7l-0.7-2.7c-1.8-6.6-8.6-10.6-15.2-8.8C241.2,254.7,240.8,254.8,240.5,254.9z"
       id="path43"
       style="fill:#ffc2a7;fill-opacity:1" /><path
       class="st5"
       d="M244.6,228.1c-5.9,0.8-12.6,1.7-18.1,2.4c-6.3,0.9-11,6.4-10.7,12.8l0,0c0.2,6.6,5.6,11.9,12.2,12l18.2,0.4   c6.9,0.1,12.5-5.3,12.7-12.2c0-0.3,0-0.5,0-0.8l-0.1-2.8c-0.3-6.9-6-12.2-12.9-12C245.4,228,245,228.1,244.6,228.1z"
       id="path44"
       style="fill:#ffc2a7;fill-opacity:1" /><path
       class="st8"
       d="M232.9,285.9c-0.7,0-1.3-0.6-1.3-1.4c0-0.7,0.5-1.2,1.2-1.3l10.6-1.1c0.7,0,1.4,0.5,1.4,1.3   c0,0.7-0.4,1.3-1.1,1.4l-10.6,1.1L232.9,285.9z"
       id="path45" /><path
       class="st8"
       d="M235.3,257.4c-0.7-0.1-1.3-0.7-1.2-1.5c0.1-0.7,0.6-1.2,1.2-1.2l10.8-0.4l0,0c0.7,0,1.4,0.6,1.4,1.4   c0,0.7-0.6,1.4-1.4,1.4L235.3,257.4z"
       id="path46" /><circle
       class="st10"
       cx="175.4"
       cy="144.9"
       r="4.1"
       id="circle46"
       style="fill:#ffb380" /><circle
       class="st10"
       cx="188.2"
       cy="146.2"
       r="4.1"
       id="circle47"
       style="fill:#ffb380" /><circle
       class="st10"
       cx="201"
       cy="147.5"
       r="4.1"
       id="circle48"
       style="fill:#ffb380" /><linearGradient
       id="SVGID_00000029733277449717260250000006965961185340775348_"
       gradientUnits="userSpaceOnUse"
       x1="67.6679"
       y1="218.169"
       x2="233.9179"
       y2="-127.2111"
       gradientTransform="matrix(1 0 0 -1 0 502)"><stop
         offset="0"
         style="stop-color: rgb(243, 131, 116);"
         id="stop48" /><stop
         offset="1"
         style="stop-color: rgb(198, 66, 52);"
         id="stop49" /></linearGradient><polygon
       points="126,347 68.7,488.6 195.1,488.6    210.2,377.2  "
       style="fill:#800000"
       id="polygon49" /><path
       class="st0"
       d="M206.3,398.4c-0.2,0-0.3,0-0.5-0.1L118,366.1c-0.7-0.3-1.1-1-0.8-1.7c0.3-0.7,1-1.1,1.7-0.8l87.9,32.2   c0.7,0.3,1,1,0.8,1.7C207.4,398,206.9,398.4,206.3,398.4z"
       id="path50" /></g><g
     id="line"><path
       class="st0"
       d="M221.3,490H53.8c-0.7,0-1.4-0.6-1.4-1.4s0.6-1.4,1.4-1.4h167.6c0.7,0,1.4,0.6,1.4,1.4S222.1,490,221.3,490z"
       id="path51" /></g><g
     id="light"
     style="fill:#ffb380"><path
       class="st10"
       d="M236.2,43.2c-10.7,0.8-19.2,9.1-20.3,19.8c-1.1-10.6-9.6-19-20.3-19.7c10.7-0.8,19.2-9.1,20.3-19.8   C217,34.1,225.5,42.4,236.2,43.2L236.2,43.2z"
       id="path52"
       style="fill:#ffb380" /><path
       class="st10"
       d="M253.9,20.6c-5.7,0.4-10.3,4.9-10.9,10.6c-0.6-5.7-5.1-10.2-10.9-10.6c5.7-0.4,10.3-4.9,10.9-10.6   C243.6,15.7,248.2,20.2,253.9,20.6z"
       id="path53"
       style="fill:#ffb380" /></g></svg>
